M48
; DRILL file KiCad 10.0.4 date 2026-08-01T21:57:26
; FORMAT={-:-/ absolute / metric / decimal}
; #@! TF.CreationDate,2026-08-01T21:57:26-07:00
; #@! TF.GenerationSoftware,Kicad,Pcbnew,10.0.4
; #@! TF.FileFunction,Plated,1,2,PTH
FMAT,2
METRIC
; #@! TA.AperFunction,Plated,PTH,ViaDrill
T1C0.300
; #@! TA.AperFunction,Plated,PTH,ComponentDrill
T2C0.800
; #@! TA.AperFunction,Plated,PTH,ComponentDrill
T3C1.000
%
G90
G05
T1
X87.02Y-64.55
X97.0Y-66.45
X98.34Y-59.13
X98.67Y-62.95
X98.73Y-65.02
X99.66Y-47.89
X101.025Y-56.595
X104.45Y-61.9
X107.9Y-57.0
X108.5Y-58.45
X108.5Y-60.4
X111.522Y-68.0
X113.7Y-43.1
X116.69Y-57.26
X117.0Y-50.5
X118.79Y-56.7
X121.14Y-56.1
X123.351Y-55.5
X124.46Y-46.5
X125.1Y-65.2
X128.7Y-47.95
X130.5Y-48.35
X131.4Y-48.91
X132.2Y-49.6
X133.6Y-55.4
X133.75Y-48.0
X135.75Y-53.05
X135.79Y-57.29
X145.55Y-55.25
X147.0Y-57.75
T3
X67.88Y-64.337
X70.42Y-64.337
X72.96Y-64.337
X75.5Y-64.337
X89.5Y-65.25
X92.04Y-65.25
X94.58Y-65.25
X101.01Y-64.354
X101.05Y-46.5
X103.55Y-64.354
X103.59Y-46.5
X106.09Y-64.354
X106.13Y-46.5
X108.63Y-64.354
X108.67Y-46.5
X111.17Y-64.354
X111.21Y-46.5
X113.71Y-64.354
X113.75Y-46.5
X116.25Y-64.354
X116.29Y-46.5
X130.25Y-52.21
X130.25Y-54.75
X130.25Y-57.29
X130.25Y-59.83
X132.839Y-42.5
X132.841Y-60.375
X133.92Y-65.5
X133.92Y-68.04
X135.379Y-42.5
X135.381Y-60.375
X136.46Y-65.5
X136.46Y-68.04
X137.919Y-42.5
X137.921Y-60.375
X139.0Y-65.5
X139.0Y-68.04
X140.459Y-42.5
X140.461Y-60.375
X141.54Y-65.5
X141.54Y-68.04
X142.999Y-42.5
X143.001Y-60.375
X144.08Y-65.5
X144.08Y-68.04
X145.539Y-42.5
X145.541Y-60.375
X148.079Y-42.5
X148.081Y-60.375
T2
X119.5Y-50.3G85X119.5Y-48.6
G05
X119.5Y-62.2G85X119.5Y-63.9
G05
X123.85Y-44.35G85X122.15Y-44.35
G05
X123.85Y-52.65G85X122.15Y-52.65
G05
X122.15Y-59.85G85X123.85Y-59.85
G05
X122.15Y-68.15G85X123.85Y-68.15
G05
X126.5Y-50.3G85X126.5Y-48.6
G05
X126.5Y-62.2G85X126.5Y-63.9
G05
M30
