G04 #@! TF.GenerationSoftware,KiCad,Pcbnew,10.0.4*
G04 #@! TF.CreationDate,2026-08-01T21:57:26-07:00*
G04 #@! TF.ProjectId,eurorack,6575726f-7261-4636-9b2e-6b696361645f,rev?*
G04 #@! TF.SameCoordinates,Original*
G04 #@! TF.FileFunction,Copper,L1,Top*
G04 #@! TF.FilePolarity,Positive*
%FSLAX46Y46*%
G04 Gerber Fmt 4.6, Leading zero omitted, Abs format (unit mm)*
G04 Created by KiCad (PCBNEW 10.0.4) date 2026-08-01 21:57:26*
%MOMM*%
%LPD*%
G01*
G04 APERTURE LIST*
G04 Aperture macros list*
%AMRoundRect*
0 Rectangle with rounded corners*
0 $1 Rounding radius*
0 $2 $3 $4 $5 $6 $7 $8 $9 X,Y pos of 4 corners*
0 Add a 4 corners polygon primitive as box body*
4,1,4,$2,$3,$4,$5,$6,$7,$8,$9,$2,$3,0*
0 Add four circle primitives for the rounded corners*
1,1,$1+$1,$2,$3*
1,1,$1+$1,$4,$5*
1,1,$1+$1,$6,$7*
1,1,$1+$1,$8,$9*
0 Add four rect primitives between the rounded corners*
20,1,$1+$1,$2,$3,$4,$5,0*
20,1,$1+$1,$4,$5,$6,$7,0*
20,1,$1+$1,$6,$7,$8,$9,0*
20,1,$1+$1,$8,$9,$2,$3,0*%
G04 Aperture macros list end*
G04 #@! TA.AperFunction,EtchedComponent*
%ADD10C,0.000000*%
G04 #@! TD*
G04 #@! TA.AperFunction,ComponentPad*
%ADD11R,1.700000X1.700000*%
G04 #@! TD*
G04 #@! TA.AperFunction,ComponentPad*
%ADD12C,1.700000*%
G04 #@! TD*
G04 #@! TA.AperFunction,ComponentPad*
%ADD13O,3.200000X1.500000*%
G04 #@! TD*
G04 #@! TA.AperFunction,ComponentPad*
%ADD14O,1.500000X3.200000*%
G04 #@! TD*
G04 #@! TA.AperFunction,SMDPad,CuDef*
%ADD15RoundRect,0.218750X0.218750X0.381250X-0.218750X0.381250X-0.218750X-0.381250X0.218750X-0.381250X0*%
G04 #@! TD*
G04 #@! TA.AperFunction,SMDPad,CuDef*
%ADD16RoundRect,0.150000X-0.825000X-0.150000X0.825000X-0.150000X0.825000X0.150000X-0.825000X0.150000X0*%
G04 #@! TD*
G04 #@! TA.AperFunction,SMDPad,CuDef*
%ADD17RoundRect,0.140000X0.170000X-0.140000X0.170000X0.140000X-0.170000X0.140000X-0.170000X-0.140000X0*%
G04 #@! TD*
G04 #@! TA.AperFunction,SMDPad,CuDef*
%ADD18RoundRect,0.250000X-0.475000X0.250000X-0.475000X-0.250000X0.475000X-0.250000X0.475000X0.250000X0*%
G04 #@! TD*
G04 #@! TA.AperFunction,SMDPad,CuDef*
%ADD19RoundRect,0.140000X-0.170000X0.140000X-0.170000X-0.140000X0.170000X-0.140000X0.170000X0.140000X0*%
G04 #@! TD*
G04 #@! TA.AperFunction,SMDPad,CuDef*
%ADD20RoundRect,0.135000X-0.135000X-0.185000X0.135000X-0.185000X0.135000X0.185000X-0.135000X0.185000X0*%
G04 #@! TD*
G04 #@! TA.AperFunction,SMDPad,CuDef*
%ADD21RoundRect,0.250000X0.650000X-1.000000X0.650000X1.000000X-0.650000X1.000000X-0.650000X-1.000000X0*%
G04 #@! TD*
G04 #@! TA.AperFunction,SMDPad,CuDef*
%ADD22RoundRect,0.135000X0.135000X0.185000X-0.135000X0.185000X-0.135000X-0.185000X0.135000X-0.185000X0*%
G04 #@! TD*
G04 #@! TA.AperFunction,SMDPad,CuDef*
%ADD23RoundRect,0.135000X0.185000X-0.135000X0.185000X0.135000X-0.185000X0.135000X-0.185000X-0.135000X0*%
G04 #@! TD*
G04 #@! TA.AperFunction,SMDPad,CuDef*
%ADD24C,0.500000*%
G04 #@! TD*
G04 #@! TA.AperFunction,SMDPad,CuDef*
%ADD25RoundRect,0.250000X0.475000X-0.250000X0.475000X0.250000X-0.475000X0.250000X-0.475000X-0.250000X0*%
G04 #@! TD*
G04 #@! TA.AperFunction,SMDPad,CuDef*
%ADD26RoundRect,0.140000X-0.140000X-0.170000X0.140000X-0.170000X0.140000X0.170000X-0.140000X0.170000X0*%
G04 #@! TD*
G04 #@! TA.AperFunction,ComponentPad*
%ADD27R,1.500000X2.500000*%
G04 #@! TD*
G04 #@! TA.AperFunction,ComponentPad*
%ADD28O,1.500000X2.500000*%
G04 #@! TD*
G04 #@! TA.AperFunction,ComponentPad*
%ADD29RoundRect,0.250000X0.600000X-0.600000X0.600000X0.600000X-0.600000X0.600000X-0.600000X-0.600000X0*%
G04 #@! TD*
G04 #@! TA.AperFunction,ViaPad*
%ADD30C,0.600000*%
G04 #@! TD*
G04 #@! TA.AperFunction,Conductor*
%ADD31C,0.200000*%
G04 #@! TD*
G04 #@! TA.AperFunction,Conductor*
%ADD32C,0.300000*%
G04 #@! TD*
G04 #@! TA.AperFunction,Conductor*
%ADD33C,0.500000*%
G04 #@! TD*
G04 APERTURE END LIST*
D10*
G04 #@! TA.AperFunction,EtchedComponent*
G04 #@! TO.C,NT1*
G36*
X85000000Y-64000000D02*
G01*
X84000000Y-64000000D01*
X84000000Y-63500000D01*
X85000000Y-63500000D01*
X85000000Y-64000000D01*
G37*
G04 #@! TD.AperFunction*
G04 #@! TD*
D11*
G04 #@! TO.P,J8,1,Pin_1_1*
G04 #@! TO.N,AIN_T*
X67880000Y-64337322D03*
D12*
G04 #@! TO.P,J8,2,Pin_2_2*
G04 #@! TO.N,AIN_S*
X70420000Y-64337322D03*
G04 #@! TO.P,J8,3,Pin_3_3*
G04 #@! TO.N,AOUT_S*
X72960000Y-64337322D03*
G04 #@! TO.P,J8,4,Pin_4_4*
G04 #@! TO.N,AOUT_HAT*
X75500000Y-64337322D03*
G04 #@! TD*
D13*
G04 #@! TO.P,J7,3*
G04 #@! TO.N,N/C*
X123000000Y-44350000D03*
D14*
G04 #@! TO.P,J7,S*
G04 #@! TO.N,AOUT_S*
X126500000Y-49450000D03*
G04 #@! TO.P,J7,T*
G04 #@! TO.N,AOUT_T*
X119500000Y-49450000D03*
D13*
G04 #@! TO.P,J7,TN*
G04 #@! TO.N,unconnected-(J7-PadTN)*
X123000000Y-52650000D03*
G04 #@! TD*
D15*
G04 #@! TO.P,FB2,1*
G04 #@! TO.N,-12V_P*
X144812500Y-63000000D03*
G04 #@! TO.P,FB2,2*
G04 #@! TO.N,-12V_F*
X142687500Y-63000000D03*
G04 #@! TD*
D16*
G04 #@! TO.P,U2,1*
G04 #@! TO.N,AOUT_AMP*
X101025000Y-56595000D03*
G04 #@! TO.P,U2,2,-_2*
G04 #@! TO.N,AOUT_FB*
X101025000Y-57865000D03*
G04 #@! TO.P,U2,3,+_3*
G04 #@! TO.N,AOUT_HAT*
X101025000Y-59135000D03*
G04 #@! TO.P,U2,4,V-_4*
G04 #@! TO.N,-12V_F*
X101025000Y-60405000D03*
G04 #@! TO.P,U2,5,+_5*
G04 #@! TO.N,GND*
X105975000Y-60405000D03*
G04 #@! TO.P,U2,6,-_6*
G04 #@! TO.N,U2B_FB*
X105975000Y-59135000D03*
G04 #@! TO.P,U2,7*
X105975000Y-57865000D03*
G04 #@! TO.P,U2,8,V+_8*
G04 #@! TO.N,+12V_F*
X105975000Y-56595000D03*
G04 #@! TD*
D17*
G04 #@! TO.P,C2,1*
G04 #@! TO.N,+12V_F*
X85600000Y-65980000D03*
G04 #@! TO.P,C2,2*
G04 #@! TO.N,GND*
X85600000Y-65020000D03*
G04 #@! TD*
D18*
G04 #@! TO.P,C3,1*
G04 #@! TO.N,+5V*
X97000000Y-64550000D03*
G04 #@! TO.P,C3,2*
G04 #@! TO.N,GND*
X97000000Y-66450000D03*
G04 #@! TD*
D19*
G04 #@! TO.P,C4,1*
G04 #@! TO.N,+5V*
X98400000Y-65020000D03*
G04 #@! TO.P,C4,2*
G04 #@! TO.N,GND*
X98400000Y-65980000D03*
G04 #@! TD*
D11*
G04 #@! TO.P,J10,1,Pin_1_1*
G04 #@! TO.N,GND*
X130250000Y-59830000D03*
D12*
G04 #@! TO.P,J10,2,Pin_2_2*
G04 #@! TO.N,+3V3*
X130250000Y-57290000D03*
G04 #@! TO.P,J10,3,Pin_3_3*
G04 #@! TO.N,SCL*
X130250000Y-54750000D03*
G04 #@! TO.P,J10,4,Pin_4_4*
G04 #@! TO.N,SDA*
X130250000Y-52210000D03*
G04 #@! TD*
D20*
G04 #@! TO.P,R3,1*
G04 #@! TO.N,AIN_T*
X68490000Y-67250000D03*
G04 #@! TO.P,R3,2*
G04 #@! TO.N,AIN_S*
X69510000Y-67250000D03*
G04 #@! TD*
D21*
G04 #@! TO.P,D2,1,K_1*
G04 #@! TO.N,-12V*
X147250000Y-68500000D03*
G04 #@! TO.P,D2,2,A_2*
G04 #@! TO.N,-12V_P*
X147250000Y-64500000D03*
G04 #@! TD*
D22*
G04 #@! TO.P,R4,1*
G04 #@! TO.N,AOUT_FB*
X99360000Y-57870000D03*
G04 #@! TO.P,R4,2*
G04 #@! TO.N,GND*
X98340000Y-57870000D03*
G04 #@! TD*
D23*
G04 #@! TO.P,R6,1*
G04 #@! TO.N,AOUT_AMP*
X116990000Y-50520000D03*
G04 #@! TO.P,R6,2*
G04 #@! TO.N,AOUT_T*
X116990000Y-49500000D03*
G04 #@! TD*
D24*
G04 #@! TO.P,NT1,1,1_1*
G04 #@! TO.N,AOUT_S*
X84000000Y-63750000D03*
G04 #@! TO.P,NT1,2,2_2*
G04 #@! TO.N,GND*
X85000000Y-63750000D03*
G04 #@! TD*
D11*
G04 #@! TO.P,J4,1,Pin_1_1*
G04 #@! TO.N,SDA*
X116290000Y-46500000D03*
D12*
G04 #@! TO.P,J4,2,Pin_2_2*
G04 #@! TO.N,SCL*
X113750000Y-46500000D03*
G04 #@! TO.P,J4,3,Pin_3_3*
G04 #@! TO.N,+3V3*
X111210000Y-46500000D03*
G04 #@! TO.P,J4,4,Pin_4_4*
G04 #@! TO.N,PASS_B4*
X108670000Y-46500000D03*
G04 #@! TO.P,J4,5,Pin_5_5*
G04 #@! TO.N,GND*
X106130000Y-46500000D03*
G04 #@! TO.P,J4,6,Pin_6_6*
G04 #@! TO.N,PASS_B2*
X103590000Y-46500000D03*
G04 #@! TO.P,J4,7,Pin_7_7*
G04 #@! TO.N,+5V*
X101050000Y-46500000D03*
G04 #@! TD*
D18*
G04 #@! TO.P,C7,1*
G04 #@! TO.N,-12V_F*
X108500000Y-58450000D03*
G04 #@! TO.P,C7,2*
G04 #@! TO.N,GND*
X108500000Y-60350000D03*
G04 #@! TD*
D20*
G04 #@! TO.P,R5,1*
G04 #@! TO.N,AOUT_FB*
X98340000Y-56590000D03*
G04 #@! TO.P,R5,2*
G04 #@! TO.N,AOUT_AMP*
X99360000Y-56590000D03*
G04 #@! TD*
D25*
G04 #@! TO.P,C1,1*
G04 #@! TO.N,+12V_F*
X87000000Y-66450000D03*
G04 #@! TO.P,C1,2*
G04 #@! TO.N,GND*
X87000000Y-64550000D03*
G04 #@! TD*
D15*
G04 #@! TO.P,FB1,1*
G04 #@! TO.N,+12V_P*
X107500000Y-68000000D03*
G04 #@! TO.P,FB1,2*
G04 #@! TO.N,+12V_F*
X105375000Y-68000000D03*
G04 #@! TD*
D13*
G04 #@! TO.P,J6,3*
G04 #@! TO.N,N/C*
X123000000Y-68150000D03*
D14*
G04 #@! TO.P,J6,S*
G04 #@! TO.N,AIN_S*
X119500000Y-63050000D03*
G04 #@! TO.P,J6,T*
G04 #@! TO.N,AIN_JACK*
X126500000Y-63050000D03*
D13*
G04 #@! TO.P,J6,TN*
G04 #@! TO.N,unconnected-(J6-PadTN)*
X123000000Y-59850000D03*
G04 #@! TD*
D22*
G04 #@! TO.P,R2,1*
G04 #@! TO.N,AIN_JACK*
X69510000Y-68500000D03*
G04 #@! TO.P,R2,2*
G04 #@! TO.N,AIN_T*
X68490000Y-68500000D03*
G04 #@! TD*
D11*
G04 #@! TO.P,J5,1,Pin_1_1*
G04 #@! TO.N,DET*
X116250000Y-64353810D03*
D12*
G04 #@! TO.P,J5,2,Pin_2_2*
G04 #@! TO.N,MCLK*
X113710000Y-64353810D03*
G04 #@! TO.P,J5,3,Pin_3_3*
G04 #@! TO.N,BCLK*
X111170000Y-64353810D03*
G04 #@! TO.P,J5,4,Pin_4_4*
G04 #@! TO.N,DSDIN*
X108630000Y-64353810D03*
G04 #@! TO.P,J5,5,Pin_5_5*
G04 #@! TO.N,GND*
X106090000Y-64353810D03*
G04 #@! TO.P,J5,6,Pin_6_6*
G04 #@! TO.N,LRCK*
X103550000Y-64353810D03*
G04 #@! TO.P,J5,7,Pin_7_7*
G04 #@! TO.N,ASDOUT*
X101010000Y-64353810D03*
G04 #@! TD*
D22*
G04 #@! TO.P,R7,1*
G04 #@! TO.N,AOUT_HAT*
X99360000Y-59130000D03*
G04 #@! TO.P,R7,2*
G04 #@! TO.N,GND*
X98340000Y-59130000D03*
G04 #@! TD*
D26*
G04 #@! TO.P,C6,1*
G04 #@! TO.N,-12V_F*
X100620000Y-61890000D03*
G04 #@! TO.P,C6,2*
G04 #@! TO.N,GND*
X101580000Y-61890000D03*
G04 #@! TD*
D19*
G04 #@! TO.P,C5,1*
G04 #@! TO.N,+12V_F*
X107900000Y-56020000D03*
G04 #@! TO.P,C5,2*
G04 #@! TO.N,GND*
X107900000Y-56980000D03*
G04 #@! TD*
D27*
G04 #@! TO.P,U1,1,IN_1*
G04 #@! TO.N,+12V_F*
X89500000Y-65250000D03*
D28*
G04 #@! TO.P,U1,2,GND_2*
G04 #@! TO.N,GND*
X92040000Y-65250000D03*
G04 #@! TO.P,U1,3,OUT_3*
G04 #@! TO.N,+5V*
X94580000Y-65250000D03*
G04 #@! TD*
D11*
G04 #@! TO.P,J3,1,Pin_1_1*
G04 #@! TO.N,+5V*
X148081454Y-60375457D03*
D12*
G04 #@! TO.P,J3,2,Pin_2_2*
G04 #@! TO.N,PASS_B2*
X145541454Y-60375457D03*
G04 #@! TO.P,J3,3,Pin_3_3*
G04 #@! TO.N,GND*
X143001454Y-60375457D03*
G04 #@! TO.P,J3,4,Pin_4_4*
G04 #@! TO.N,PASS_B4*
X140461454Y-60375457D03*
G04 #@! TO.P,J3,5,Pin_5_5*
G04 #@! TO.N,+3V3*
X137921454Y-60375457D03*
G04 #@! TO.P,J3,6,Pin_6_6*
G04 #@! TO.N,SCL*
X135381454Y-60375457D03*
G04 #@! TO.P,J3,7,Pin_7_7*
G04 #@! TO.N,SDA*
X132841454Y-60375457D03*
G04 #@! TD*
D29*
G04 #@! TO.P,J1,1,Pin_1_1*
G04 #@! TO.N,-12V*
X144080000Y-68040000D03*
D12*
G04 #@! TO.P,J1,2,Pin_2_2*
X144080000Y-65500000D03*
G04 #@! TO.P,J1,3,Pin_3_3*
G04 #@! TO.N,GND*
X141540000Y-68040000D03*
G04 #@! TO.P,J1,4,Pin_4_4*
X141540000Y-65500000D03*
G04 #@! TO.P,J1,5,Pin_5_5*
X139000000Y-68040000D03*
G04 #@! TO.P,J1,6,Pin_6_6*
X139000000Y-65500000D03*
G04 #@! TO.P,J1,7,Pin_7_7*
X136460000Y-68040000D03*
G04 #@! TO.P,J1,8,Pin_8_8*
X136460000Y-65500000D03*
G04 #@! TO.P,J1,9,Pin_9_9*
G04 #@! TO.N,+12V_RAW*
X133920000Y-68040000D03*
G04 #@! TO.P,J1,10,Pin_10_10*
X133920000Y-65500000D03*
G04 #@! TD*
D11*
G04 #@! TO.P,J2,1,Pin_1_1*
G04 #@! TO.N,ASDOUT*
X148078728Y-42500000D03*
D12*
G04 #@! TO.P,J2,2,Pin_2_2*
G04 #@! TO.N,LRCK*
X145538728Y-42500000D03*
G04 #@! TO.P,J2,3,Pin_3_3*
G04 #@! TO.N,GND*
X142998728Y-42500000D03*
G04 #@! TO.P,J2,4,Pin_4_4*
G04 #@! TO.N,DSDIN*
X140458728Y-42500000D03*
G04 #@! TO.P,J2,5,Pin_5_5*
G04 #@! TO.N,BCLK*
X137918728Y-42500000D03*
G04 #@! TO.P,J2,6,Pin_6_6*
G04 #@! TO.N,MCLK*
X135378728Y-42500000D03*
G04 #@! TO.P,J2,7,Pin_7_7*
G04 #@! TO.N,DET*
X132838728Y-42500000D03*
G04 #@! TD*
D30*
G04 #@! TO.N,-12V_F*
X125100000Y-65200000D03*
X108500000Y-58450000D03*
G04 #@! TO.N,AOUT_AMP*
X101025000Y-56595000D03*
X117000000Y-50500000D03*
G04 #@! TO.N,GND*
X107900000Y-57000000D03*
X87020000Y-64550000D03*
X97000000Y-66450000D03*
X98340000Y-59130000D03*
X108500000Y-60400000D03*
G04 #@! TO.N,+5V*
X98730000Y-65020000D03*
X98670000Y-62950000D03*
X99660000Y-47890000D03*
G04 #@! TO.N,+3V3*
X135790000Y-57290000D03*
X133750000Y-48000000D03*
X113700000Y-43100000D03*
G04 #@! TO.N,SCL*
X128700000Y-47950000D03*
X133600000Y-55400000D03*
G04 #@! TO.N,SDA*
X124460000Y-46500000D03*
G04 #@! TO.N,+12V_P*
X111522500Y-68000000D03*
G04 #@! TO.N,DET*
X130500000Y-48350000D03*
X123350735Y-55500000D03*
G04 #@! TO.N,MCLK*
X121140000Y-56100000D03*
X131400000Y-48910000D03*
G04 #@! TO.N,BCLK*
X132200000Y-49600000D03*
X118790000Y-56700000D03*
G04 #@! TO.N,DSDIN*
X116690000Y-57260000D03*
X135750000Y-53050000D03*
G04 #@! TO.N,LRCK*
X145550000Y-55250000D03*
X104450000Y-61900000D03*
G04 #@! TO.N,ASDOUT*
X147000000Y-57750000D03*
G04 #@! TD*
G04 #@! TO.N,AIN_T*
D31*
X68490000Y-67250000D02*
X68490000Y-67190000D01*
X68490000Y-67190000D02*
X67880000Y-66580000D01*
X68490000Y-68500000D02*
X68490000Y-67250000D01*
X67880000Y-66580000D02*
X67880000Y-64337322D01*
G04 #@! TO.N,AIN_S*
X118100000Y-69600000D02*
X75682678Y-69600000D01*
X69510000Y-67250000D02*
X69510000Y-65247322D01*
X119500000Y-63050000D02*
X119500000Y-68200000D01*
X75682678Y-69600000D02*
X70420000Y-64337322D01*
X119500000Y-68200000D02*
X118100000Y-69600000D01*
X69510000Y-65247322D02*
X70420000Y-64337322D01*
G04 #@! TO.N,AOUT_S*
X126500000Y-49450000D02*
X125550000Y-49450000D01*
X84000000Y-63750000D02*
X82262678Y-65487322D01*
X97100000Y-43900000D02*
X97100000Y-61248528D01*
X74110000Y-65487322D02*
X72960000Y-64337322D01*
X117950000Y-41850000D02*
X99150000Y-41850000D01*
X97100000Y-61248528D02*
X96748528Y-61600000D01*
X125550000Y-49450000D02*
X117950000Y-41850000D01*
X75697322Y-61600000D02*
X72960000Y-64337322D01*
X96748528Y-61600000D02*
X75697322Y-61600000D01*
X82262678Y-65487322D02*
X74110000Y-65487322D01*
X99150000Y-41850000D02*
X97100000Y-43900000D01*
G04 #@! TO.N,AOUT_HAT*
X99360000Y-59130000D02*
X99360000Y-59690000D01*
X101025000Y-59135000D02*
X99365000Y-59135000D01*
X99365000Y-59135000D02*
X99360000Y-59130000D01*
X99360000Y-59690000D02*
X96950000Y-62100000D01*
X77737322Y-62100000D02*
X75500000Y-64337322D01*
X96950000Y-62100000D02*
X77737322Y-62100000D01*
G04 #@! TO.N,AOUT_T*
X116990000Y-49500000D02*
X119450000Y-49500000D01*
X119450000Y-49500000D02*
X119500000Y-49450000D01*
G04 #@! TO.N,-12V_P*
X147250000Y-64500000D02*
X146144401Y-64500000D01*
X146144401Y-64500000D02*
X145145552Y-63501151D01*
G04 #@! TO.N,-12V_F*
X101625000Y-59805000D02*
X107145000Y-59805000D01*
X125100000Y-65200000D02*
X128350000Y-65200000D01*
X128350000Y-65200000D02*
X129950000Y-63600000D01*
X107145000Y-59805000D02*
X108500000Y-58450000D01*
X100620000Y-60810000D02*
X101025000Y-60405000D01*
X100620000Y-61890000D02*
X100620000Y-60810000D01*
X142087500Y-63600000D02*
X142687500Y-63000000D01*
X101025000Y-60405000D02*
X101625000Y-59805000D01*
X129950000Y-63600000D02*
X142087500Y-63600000D01*
G04 #@! TO.N,AOUT_AMP*
X101020000Y-56590000D02*
X101025000Y-56595000D01*
X116990000Y-50510000D02*
X117000000Y-50500000D01*
X116990000Y-50520000D02*
X116990000Y-50510000D01*
X99360000Y-56590000D02*
X101020000Y-56590000D01*
G04 #@! TO.N,AOUT_FB*
X101025000Y-57865000D02*
X99365000Y-57865000D01*
X98340000Y-56850000D02*
X99360000Y-57870000D01*
X99365000Y-57865000D02*
X99360000Y-57870000D01*
X98340000Y-56590000D02*
X98340000Y-56850000D01*
G04 #@! TO.N,GND*
D32*
X86070000Y-64550000D02*
X87000000Y-64550000D01*
D31*
X107900000Y-56980000D02*
X107900000Y-57000000D01*
D32*
X97930000Y-66450000D02*
X98400000Y-65980000D01*
D31*
X108495000Y-60405000D02*
X108500000Y-60400000D01*
D32*
X97000000Y-66450000D02*
X97930000Y-66450000D01*
D31*
X86200000Y-63750000D02*
X87000000Y-64550000D01*
X85000000Y-63750000D02*
X86200000Y-63750000D01*
X98340000Y-57870000D02*
X98340000Y-59130000D01*
D32*
X85600000Y-65020000D02*
X86070000Y-64550000D01*
D31*
X87000000Y-64550000D02*
X87020000Y-64550000D01*
X103065000Y-60405000D02*
X105975000Y-60405000D01*
X108500000Y-60350000D02*
X108500000Y-60400000D01*
X105975000Y-60405000D02*
X108495000Y-60405000D01*
X101580000Y-61890000D02*
X103065000Y-60405000D01*
G04 #@! TO.N,U2B_FB*
X105975000Y-59135000D02*
X105975000Y-57865000D01*
G04 #@! TO.N,+12V_F*
D32*
X91950000Y-67700000D02*
X89500000Y-65250000D01*
X87000000Y-66450000D02*
X86070000Y-66450000D01*
X106800000Y-61650000D02*
X108780456Y-61650000D01*
D31*
X106550000Y-56020000D02*
X105975000Y-56595000D01*
D32*
X104800000Y-63650000D02*
X106800000Y-61650000D01*
X108780456Y-61650000D02*
X109575000Y-60855456D01*
X109575000Y-57385001D02*
X108209999Y-56020000D01*
X104800000Y-67425000D02*
X104800000Y-63650000D01*
X105075000Y-67700000D02*
X91950000Y-67700000D01*
D31*
X107900000Y-56020000D02*
X106550000Y-56020000D01*
D32*
X105375000Y-68000000D02*
X104800000Y-67425000D01*
X105375000Y-68000000D02*
X105075000Y-67700000D01*
X109575000Y-60855456D02*
X109575000Y-57385001D01*
X89500000Y-65250000D02*
X88420000Y-65250000D01*
X87220000Y-66450000D02*
X87000000Y-66450000D01*
X86070000Y-66450000D02*
X85600000Y-65980000D01*
X88420000Y-65250000D02*
X87220000Y-66450000D01*
X108209999Y-56020000D02*
X107900000Y-56020000D01*
G04 #@! TO.N,+5V*
X96300000Y-65250000D02*
X94580000Y-65250000D01*
X97330000Y-64550000D02*
X97000000Y-64550000D01*
X98250000Y-64550000D02*
X97330000Y-64550000D01*
X99660000Y-47890000D02*
X101050000Y-46500000D01*
D31*
X98730000Y-65020000D02*
X98720000Y-65020000D01*
D32*
X98720000Y-65020000D02*
X98250000Y-64550000D01*
X98670000Y-62950000D02*
X97000000Y-64620000D01*
X97000000Y-64550000D02*
X96300000Y-65250000D01*
G04 #@! TO.N,+3V3*
D31*
X134850000Y-56350000D02*
X137850000Y-59350000D01*
X133750000Y-48000000D02*
X133850000Y-48000000D01*
X111210000Y-45590000D02*
X113700000Y-43100000D01*
X137850000Y-60304003D02*
X137921454Y-60375457D01*
X137850000Y-59350000D02*
X135790000Y-57290000D01*
X134850000Y-49000000D02*
X134850000Y-56350000D01*
X133850000Y-48000000D02*
X134850000Y-49000000D01*
X111210000Y-46500000D02*
X111210000Y-45590000D01*
X137850000Y-59350000D02*
X137850000Y-60304003D01*
G04 #@! TO.N,SCL*
X128700000Y-47950000D02*
X128700000Y-53200000D01*
X133600000Y-58470000D02*
X133600000Y-55400000D01*
X135380000Y-60250000D02*
X133600000Y-58470000D01*
X128700000Y-53200000D02*
X130250000Y-54750000D01*
G04 #@! TO.N,SDA*
X132840000Y-60250000D02*
X132840000Y-54800000D01*
X129650000Y-51610000D02*
X130250000Y-52210000D01*
X128600000Y-46500000D02*
X129650000Y-47550000D01*
X129650000Y-47550000D02*
X129650000Y-51610000D01*
X132840000Y-54800000D02*
X130250000Y-52210000D01*
X124460000Y-46500000D02*
X128600000Y-46500000D01*
G04 #@! TO.N,-12V*
D33*
X144080000Y-68040000D02*
X146790000Y-68040000D01*
X146790000Y-68040000D02*
X147250000Y-68500000D01*
X144080000Y-68040000D02*
X144080000Y-65500000D01*
G04 #@! TO.N,PASS_B4*
D31*
X126400000Y-59290000D02*
X126400000Y-52092033D01*
X128910000Y-61800000D02*
X126400000Y-59290000D01*
X126400000Y-52092033D02*
X125357967Y-51050000D01*
X140460000Y-60250000D02*
X138910000Y-61800000D01*
X125357967Y-51050000D02*
X121050000Y-51050000D01*
X138910000Y-61800000D02*
X128910000Y-61800000D01*
X115950000Y-51600000D02*
X113050000Y-48700000D01*
X121050000Y-51050000D02*
X120500000Y-51600000D01*
X110870000Y-48700000D02*
X108670000Y-46500000D01*
X120500000Y-51600000D02*
X115950000Y-51600000D01*
X113050000Y-48700000D02*
X110870000Y-48700000D01*
G04 #@! TO.N,PASS_B2*
X140750000Y-62450000D02*
X141350000Y-61850000D01*
X145541454Y-60508546D02*
X145541454Y-60375457D01*
X144200000Y-61850000D02*
X145541454Y-60508546D01*
X125100000Y-51600000D02*
X125850000Y-52350000D01*
X103590000Y-46500000D02*
X106340000Y-49250000D01*
X141350000Y-61850000D02*
X144200000Y-61850000D01*
X106340000Y-49250000D02*
X112850000Y-49250000D01*
X112850000Y-49250000D02*
X115750000Y-52150000D01*
X115750000Y-52150000D02*
X120800000Y-52150000D01*
X125850000Y-59598529D02*
X128701471Y-62450000D01*
X121350000Y-51600000D02*
X125100000Y-51600000D01*
X120800000Y-52150000D02*
X121350000Y-51600000D01*
X128701471Y-62450000D02*
X140750000Y-62450000D01*
X125850000Y-52350000D02*
X125850000Y-59598529D01*
G04 #@! TO.N,+12V_P*
D33*
X107500000Y-68000000D02*
X111522500Y-68000000D01*
G04 #@! TO.N,AIN_JACK*
D31*
X71210000Y-70200000D02*
X69510000Y-68500000D01*
X127000000Y-63550000D02*
X125000000Y-63550000D01*
X118350000Y-70200000D02*
X71210000Y-70200000D01*
X126500000Y-63050000D02*
X127000000Y-63550000D01*
X125000000Y-63550000D02*
X118350000Y-70200000D01*
G04 #@! TO.N,DET*
X119700000Y-59150735D02*
X119699265Y-59150735D01*
X119699265Y-59150735D02*
X116250000Y-62600000D01*
X130500000Y-44838728D02*
X132838728Y-42500000D01*
X116250000Y-62600000D02*
X116250000Y-64353810D01*
X130500000Y-48350000D02*
X130500000Y-44838728D01*
X123350735Y-55500000D02*
X119700000Y-59150735D01*
G04 #@! TO.N,MCLK*
X113710000Y-64353810D02*
X114050000Y-64013810D01*
X131400000Y-48910000D02*
X131400000Y-46478728D01*
X114050000Y-63200000D02*
X115100000Y-62150000D01*
X115100000Y-62140000D02*
X121140000Y-56100000D01*
X115100000Y-62150000D02*
X115100000Y-62140000D01*
X114050000Y-64013810D02*
X114050000Y-63200000D01*
X131400000Y-46478728D02*
X135378728Y-42500000D01*
G04 #@! TO.N,BCLK*
X111170000Y-64330000D02*
X111170000Y-64353810D01*
X132200000Y-47851471D02*
X132200000Y-49600000D01*
X137551471Y-42500000D02*
X132200000Y-47851471D01*
X137918728Y-42500000D02*
X137551471Y-42500000D01*
X118790000Y-56710000D02*
X111170000Y-64330000D01*
X118790000Y-56700000D02*
X118790000Y-56710000D01*
G04 #@! TO.N,DSDIN*
X136100000Y-52650000D02*
X136100000Y-46858728D01*
X136100000Y-46858728D02*
X140458728Y-42500000D01*
X116550000Y-57400000D02*
X116202671Y-57400000D01*
X116690000Y-57260000D02*
X116550000Y-57400000D01*
X116202671Y-57400000D02*
X109248861Y-64353810D01*
X135750000Y-53050000D02*
X135750000Y-53000000D01*
X135750000Y-53000000D02*
X136100000Y-52650000D01*
X109248861Y-64353810D02*
X108630000Y-64353810D01*
G04 #@! TO.N,LRCK*
X145550000Y-55200000D02*
X146500000Y-54250000D01*
X146500000Y-54250000D02*
X146500000Y-43461272D01*
X104450000Y-61900000D02*
X103550000Y-62800000D01*
X146500000Y-43461272D02*
X145538728Y-42500000D01*
X145550000Y-55250000D02*
X145550000Y-55200000D01*
X103550000Y-62800000D02*
X103550000Y-64353810D01*
G04 #@! TO.N,ASDOUT*
X147600000Y-57150000D02*
X147600000Y-42978728D01*
X147600000Y-42978728D02*
X148078728Y-42500000D01*
X147000000Y-57750000D02*
X147600000Y-57150000D01*
G04 #@! TO.N,+12V_RAW*
D33*
X133920000Y-68040000D02*
X133920000Y-65500000D01*
G04 #@! TD*
M02*
