G04 #@! TF.GenerationSoftware,KiCad,Pcbnew,10.0.4*
G04 #@! TF.CreationDate,2026-08-01T21:57:26-07:00*
G04 #@! TF.ProjectId,eurorack,6575726f-7261-4636-9b2e-6b696361645f,rev?*
G04 #@! TF.SameCoordinates,Original*
G04 #@! TF.FileFunction,Copper,L2,Bot*
G04 #@! TF.FilePolarity,Positive*
%FSLAX46Y46*%
G04 Gerber Fmt 4.6, Leading zero omitted, Abs format (unit mm)*
G04 Created by KiCad (PCBNEW 10.0.4) date 2026-08-01 21:57:26*
%MOMM*%
%LPD*%
G01*
G04 APERTURE LIST*
G04 Aperture macros list*
%AMRoundRect*
0 Rectangle with rounded corners*
0 $1 Rounding radius*
0 $2 $3 $4 $5 $6 $7 $8 $9 X,Y pos of 4 corners*
0 Add a 4 corners polygon primitive as box body*
4,1,4,$2,$3,$4,$5,$6,$7,$8,$9,$2,$3,0*
0 Add four circle primitives for the rounded corners*
1,1,$1+$1,$2,$3*
1,1,$1+$1,$4,$5*
1,1,$1+$1,$6,$7*
1,1,$1+$1,$8,$9*
0 Add four rect primitives between the rounded corners*
20,1,$1+$1,$2,$3,$4,$5,0*
20,1,$1+$1,$4,$5,$6,$7,0*
20,1,$1+$1,$6,$7,$8,$9,0*
20,1,$1+$1,$8,$9,$2,$3,0*%
G04 Aperture macros list end*
G04 #@! TA.AperFunction,ComponentPad*
%ADD10R,1.700000X1.700000*%
G04 #@! TD*
G04 #@! TA.AperFunction,ComponentPad*
%ADD11C,1.700000*%
G04 #@! TD*
G04 #@! TA.AperFunction,ComponentPad*
%ADD12O,3.200000X1.500000*%
G04 #@! TD*
G04 #@! TA.AperFunction,ComponentPad*
%ADD13O,1.500000X3.200000*%
G04 #@! TD*
G04 #@! TA.AperFunction,ComponentPad*
%ADD14R,1.500000X2.500000*%
G04 #@! TD*
G04 #@! TA.AperFunction,ComponentPad*
%ADD15O,1.500000X2.500000*%
G04 #@! TD*
G04 #@! TA.AperFunction,ComponentPad*
%ADD16RoundRect,0.250000X0.600000X-0.600000X0.600000X0.600000X-0.600000X0.600000X-0.600000X-0.600000X0*%
G04 #@! TD*
G04 #@! TA.AperFunction,SMDPad,CuDef*
%ADD17RoundRect,0.250000X-1.000000X-0.650000X1.000000X-0.650000X1.000000X0.650000X-1.000000X0.650000X0*%
G04 #@! TD*
G04 #@! TA.AperFunction,ViaPad*
%ADD18C,0.600000*%
G04 #@! TD*
G04 #@! TA.AperFunction,Conductor*
%ADD19C,0.200000*%
G04 #@! TD*
G04 #@! TA.AperFunction,Conductor*
%ADD20C,0.300000*%
G04 #@! TD*
G04 #@! TA.AperFunction,Conductor*
%ADD21C,0.500000*%
G04 #@! TD*
G04 APERTURE END LIST*
D10*
G04 #@! TO.P,J8,1,Pin_1_1*
G04 #@! TO.N,AIN_T*
X67880000Y-64337322D03*
D11*
G04 #@! TO.P,J8,2,Pin_2_2*
G04 #@! TO.N,AIN_S*
X70420000Y-64337322D03*
G04 #@! TO.P,J8,3,Pin_3_3*
G04 #@! TO.N,AOUT_S*
X72960000Y-64337322D03*
G04 #@! TO.P,J8,4,Pin_4_4*
G04 #@! TO.N,AOUT_HAT*
X75500000Y-64337322D03*
G04 #@! TD*
D12*
G04 #@! TO.P,J7,3*
G04 #@! TO.N,N/C*
X123000000Y-44350000D03*
D13*
G04 #@! TO.P,J7,S*
G04 #@! TO.N,AOUT_S*
X126500000Y-49450000D03*
G04 #@! TO.P,J7,T*
G04 #@! TO.N,AOUT_T*
X119500000Y-49450000D03*
D12*
G04 #@! TO.P,J7,TN*
G04 #@! TO.N,unconnected-(J7-PadTN)*
X123000000Y-52650000D03*
G04 #@! TD*
D10*
G04 #@! TO.P,J10,1,Pin_1_1*
G04 #@! TO.N,GND*
X130250000Y-59830000D03*
D11*
G04 #@! TO.P,J10,2,Pin_2_2*
G04 #@! TO.N,+3V3*
X130250000Y-57290000D03*
G04 #@! TO.P,J10,3,Pin_3_3*
G04 #@! TO.N,SCL*
X130250000Y-54750000D03*
G04 #@! TO.P,J10,4,Pin_4_4*
G04 #@! TO.N,SDA*
X130250000Y-52210000D03*
G04 #@! TD*
D10*
G04 #@! TO.P,J4,1,Pin_1_1*
G04 #@! TO.N,SDA*
X116290000Y-46500000D03*
D11*
G04 #@! TO.P,J4,2,Pin_2_2*
G04 #@! TO.N,SCL*
X113750000Y-46500000D03*
G04 #@! TO.P,J4,3,Pin_3_3*
G04 #@! TO.N,+3V3*
X111210000Y-46500000D03*
G04 #@! TO.P,J4,4,Pin_4_4*
G04 #@! TO.N,PASS_B4*
X108670000Y-46500000D03*
G04 #@! TO.P,J4,5,Pin_5_5*
G04 #@! TO.N,GND*
X106130000Y-46500000D03*
G04 #@! TO.P,J4,6,Pin_6_6*
G04 #@! TO.N,PASS_B2*
X103590000Y-46500000D03*
G04 #@! TO.P,J4,7,Pin_7_7*
G04 #@! TO.N,+5V*
X101050000Y-46500000D03*
G04 #@! TD*
D12*
G04 #@! TO.P,J6,3*
G04 #@! TO.N,N/C*
X123000000Y-68150000D03*
D13*
G04 #@! TO.P,J6,S*
G04 #@! TO.N,AIN_S*
X119500000Y-63050000D03*
G04 #@! TO.P,J6,T*
G04 #@! TO.N,AIN_JACK*
X126500000Y-63050000D03*
D12*
G04 #@! TO.P,J6,TN*
G04 #@! TO.N,unconnected-(J6-PadTN)*
X123000000Y-59850000D03*
G04 #@! TD*
D10*
G04 #@! TO.P,J5,1,Pin_1_1*
G04 #@! TO.N,DET*
X116250000Y-64353810D03*
D11*
G04 #@! TO.P,J5,2,Pin_2_2*
G04 #@! TO.N,MCLK*
X113710000Y-64353810D03*
G04 #@! TO.P,J5,3,Pin_3_3*
G04 #@! TO.N,BCLK*
X111170000Y-64353810D03*
G04 #@! TO.P,J5,4,Pin_4_4*
G04 #@! TO.N,DSDIN*
X108630000Y-64353810D03*
G04 #@! TO.P,J5,5,Pin_5_5*
G04 #@! TO.N,GND*
X106090000Y-64353810D03*
G04 #@! TO.P,J5,6,Pin_6_6*
G04 #@! TO.N,LRCK*
X103550000Y-64353810D03*
G04 #@! TO.P,J5,7,Pin_7_7*
G04 #@! TO.N,ASDOUT*
X101010000Y-64353810D03*
G04 #@! TD*
D14*
G04 #@! TO.P,U1,1,IN_1*
G04 #@! TO.N,+12V_F*
X89500000Y-65250000D03*
D15*
G04 #@! TO.P,U1,2,GND_2*
G04 #@! TO.N,GND*
X92040000Y-65250000D03*
G04 #@! TO.P,U1,3,OUT_3*
G04 #@! TO.N,+5V*
X94580000Y-65250000D03*
G04 #@! TD*
D10*
G04 #@! TO.P,J3,1,Pin_1_1*
G04 #@! TO.N,+5V*
X148081454Y-60375457D03*
D11*
G04 #@! TO.P,J3,2,Pin_2_2*
G04 #@! TO.N,PASS_B2*
X145541454Y-60375457D03*
G04 #@! TO.P,J3,3,Pin_3_3*
G04 #@! TO.N,GND*
X143001454Y-60375457D03*
G04 #@! TO.P,J3,4,Pin_4_4*
G04 #@! TO.N,PASS_B4*
X140461454Y-60375457D03*
G04 #@! TO.P,J3,5,Pin_5_5*
G04 #@! TO.N,+3V3*
X137921454Y-60375457D03*
G04 #@! TO.P,J3,6,Pin_6_6*
G04 #@! TO.N,SCL*
X135381454Y-60375457D03*
G04 #@! TO.P,J3,7,Pin_7_7*
G04 #@! TO.N,SDA*
X132841454Y-60375457D03*
G04 #@! TD*
D16*
G04 #@! TO.P,J1,1,Pin_1_1*
G04 #@! TO.N,-12V*
X144080000Y-68040000D03*
D11*
G04 #@! TO.P,J1,2,Pin_2_2*
X144080000Y-65500000D03*
G04 #@! TO.P,J1,3,Pin_3_3*
G04 #@! TO.N,GND*
X141540000Y-68040000D03*
G04 #@! TO.P,J1,4,Pin_4_4*
X141540000Y-65500000D03*
G04 #@! TO.P,J1,5,Pin_5_5*
X139000000Y-68040000D03*
G04 #@! TO.P,J1,6,Pin_6_6*
X139000000Y-65500000D03*
G04 #@! TO.P,J1,7,Pin_7_7*
X136460000Y-68040000D03*
G04 #@! TO.P,J1,8,Pin_8_8*
X136460000Y-65500000D03*
G04 #@! TO.P,J1,9,Pin_9_9*
G04 #@! TO.N,+12V_RAW*
X133920000Y-68040000D03*
G04 #@! TO.P,J1,10,Pin_10_10*
X133920000Y-65500000D03*
G04 #@! TD*
D10*
G04 #@! TO.P,J2,1,Pin_1_1*
G04 #@! TO.N,ASDOUT*
X148078728Y-42500000D03*
D11*
G04 #@! TO.P,J2,2,Pin_2_2*
G04 #@! TO.N,LRCK*
X145538728Y-42500000D03*
G04 #@! TO.P,J2,3,Pin_3_3*
G04 #@! TO.N,GND*
X142998728Y-42500000D03*
G04 #@! TO.P,J2,4,Pin_4_4*
G04 #@! TO.N,DSDIN*
X140458728Y-42500000D03*
G04 #@! TO.P,J2,5,Pin_5_5*
G04 #@! TO.N,BCLK*
X137918728Y-42500000D03*
G04 #@! TO.P,J2,6,Pin_6_6*
G04 #@! TO.N,MCLK*
X135378728Y-42500000D03*
G04 #@! TO.P,J2,7,Pin_7_7*
G04 #@! TO.N,DET*
X132838728Y-42500000D03*
G04 #@! TD*
D17*
G04 #@! TO.P,D1,1,K_1*
G04 #@! TO.N,+12V_P*
X111522500Y-68000000D03*
G04 #@! TO.P,D1,2,A_2*
G04 #@! TO.N,+12V_RAW*
X115522500Y-68000000D03*
G04 #@! TD*
D18*
G04 #@! TO.N,-12V_F*
X125100000Y-65200000D03*
X108500000Y-58450000D03*
G04 #@! TO.N,AOUT_AMP*
X101025000Y-56595000D03*
X117000000Y-50500000D03*
G04 #@! TO.N,GND*
X107900000Y-57000000D03*
X87020000Y-64550000D03*
X97000000Y-66450000D03*
X98340000Y-59130000D03*
X108500000Y-60400000D03*
G04 #@! TO.N,+5V*
X98730000Y-65020000D03*
X98670000Y-62950000D03*
X99660000Y-47890000D03*
G04 #@! TO.N,+3V3*
X135790000Y-57290000D03*
X133750000Y-48000000D03*
X113700000Y-43100000D03*
G04 #@! TO.N,SCL*
X128700000Y-47950000D03*
X133600000Y-55400000D03*
G04 #@! TO.N,SDA*
X124460000Y-46500000D03*
G04 #@! TO.N,+12V_P*
X111522500Y-68000000D03*
G04 #@! TO.N,DET*
X130500000Y-48350000D03*
X123350735Y-55500000D03*
G04 #@! TO.N,MCLK*
X121140000Y-56100000D03*
X131400000Y-48910000D03*
G04 #@! TO.N,BCLK*
X132200000Y-49600000D03*
X118790000Y-56700000D03*
G04 #@! TO.N,DSDIN*
X116690000Y-57260000D03*
X135750000Y-53050000D03*
G04 #@! TO.N,LRCK*
X145550000Y-55250000D03*
X104450000Y-61900000D03*
G04 #@! TO.N,ASDOUT*
X147000000Y-57750000D03*
G04 #@! TD*
G04 #@! TO.N,-12V_F*
D19*
X124500000Y-65200000D02*
X123850000Y-65850000D01*
X99650000Y-63750000D02*
X104950000Y-58450000D01*
X125100000Y-65200000D02*
X124500000Y-65200000D01*
X123850000Y-65850000D02*
X100750000Y-65850000D01*
X100750000Y-65850000D02*
X99650000Y-64750000D01*
X99650000Y-64750000D02*
X99650000Y-63750000D01*
X104950000Y-58450000D02*
X108500000Y-58450000D01*
G04 #@! TO.N,AOUT_AMP*
X117000000Y-50500000D02*
X112950000Y-54550000D01*
X112950000Y-54550000D02*
X103070000Y-54550000D01*
X103070000Y-54550000D02*
X101025000Y-56595000D01*
G04 #@! TO.N,+5V*
D20*
X98840000Y-65140000D02*
X100150000Y-66450000D01*
X145106911Y-63350000D02*
X148081454Y-60375457D01*
X98670000Y-62930000D02*
X99900000Y-61700000D01*
X98670000Y-62950000D02*
X98670000Y-62930000D01*
X100150000Y-66450000D02*
X128550000Y-66450000D01*
X98840000Y-65000000D02*
X98840000Y-65140000D01*
X128550000Y-66450000D02*
X131650000Y-63350000D01*
X131650000Y-63350000D02*
X145106911Y-63350000D01*
X98730000Y-65020000D02*
X98820000Y-65020000D01*
X98860000Y-65150000D02*
X98730000Y-65020000D01*
X98820000Y-65020000D02*
X98840000Y-65000000D01*
X99900000Y-48130000D02*
X99660000Y-47890000D01*
X99900000Y-61700000D02*
X99900000Y-48130000D01*
G04 #@! TO.N,+3V3*
D19*
X135790000Y-57290000D02*
X130250000Y-57290000D01*
X114200000Y-42600000D02*
X113700000Y-43100000D01*
X133750000Y-48000000D02*
X128350000Y-42600000D01*
X128350000Y-42600000D02*
X114200000Y-42600000D01*
G04 #@! TO.N,SCL*
X130250000Y-54800000D02*
X130250000Y-54750000D01*
X133600000Y-55400000D02*
X130850000Y-55400000D01*
X118150000Y-47200000D02*
X117450000Y-47900000D01*
X127950000Y-47200000D02*
X118150000Y-47200000D01*
X128700000Y-47950000D02*
X127950000Y-47200000D01*
X115150000Y-47900000D02*
X113750000Y-46500000D01*
X117450000Y-47900000D02*
X115150000Y-47900000D01*
X130850000Y-55400000D02*
X130250000Y-54800000D01*
G04 #@! TO.N,SDA*
X124460000Y-46500000D02*
X116290000Y-46500000D01*
G04 #@! TO.N,DET*
X123450000Y-55400735D02*
X123450000Y-55400000D01*
X123350735Y-55500000D02*
X123450000Y-55400735D01*
X123450000Y-55400000D02*
X130500000Y-48350000D01*
G04 #@! TO.N,MCLK*
X130650000Y-49700000D02*
X131400000Y-48950000D01*
X130000000Y-49700000D02*
X130650000Y-49700000D01*
X121140000Y-56100000D02*
X123600000Y-56100000D01*
X123600000Y-56100000D02*
X130000000Y-49700000D01*
X131400000Y-48950000D02*
X131400000Y-48910000D01*
G04 #@! TO.N,BCLK*
X132200000Y-49900000D02*
X132200000Y-49600000D01*
X118790000Y-56700000D02*
X123933654Y-56700000D01*
X123933654Y-56700000D02*
X129883654Y-50750000D01*
X129883654Y-50750000D02*
X131350000Y-50750000D01*
X131350000Y-50750000D02*
X132200000Y-49900000D01*
G04 #@! TO.N,DSDIN*
X135750000Y-53050000D02*
X135250000Y-53550000D01*
X125550000Y-57300000D02*
X116730000Y-57300000D01*
X135250000Y-53550000D02*
X129300000Y-53550000D01*
X116730000Y-57300000D02*
X116690000Y-57260000D01*
X129300000Y-53550000D02*
X125550000Y-57300000D01*
G04 #@! TO.N,LRCK*
X129560000Y-56140000D02*
X127600000Y-58100000D01*
X144660000Y-56140000D02*
X129560000Y-56140000D01*
X127600000Y-58100000D02*
X118250000Y-58100000D01*
X114500000Y-61850000D02*
X104500000Y-61850000D01*
X118250000Y-58100000D02*
X114500000Y-61850000D01*
X145550000Y-55250000D02*
X144660000Y-56140000D01*
X104500000Y-61850000D02*
X104450000Y-61900000D01*
G04 #@! TO.N,ASDOUT*
X126100000Y-61000000D02*
X118800000Y-61000000D01*
X117300000Y-62500000D02*
X102863810Y-62500000D01*
X147000000Y-57750000D02*
X146310000Y-58440000D01*
X118800000Y-61000000D02*
X117300000Y-62500000D01*
X102863810Y-62500000D02*
X101010000Y-64353810D01*
X146310000Y-58440000D02*
X128660000Y-58440000D01*
X128660000Y-58440000D02*
X126100000Y-61000000D01*
G04 #@! TO.N,+12V_RAW*
D21*
X116972500Y-69450000D02*
X115522500Y-68000000D01*
X132510000Y-69450000D02*
X116972500Y-69450000D01*
X133920000Y-68040000D02*
X132510000Y-69450000D01*
G04 #@! TD*
G04 #@! TA.AperFunction,Conductor*
G04 #@! TO.N,GND*
G36*
X132064926Y-41507663D02*
G01*
X132087824Y-41511290D01*
X132093472Y-41516938D01*
X132101070Y-41519407D01*
X132114697Y-41538163D01*
X132131089Y-41554555D01*
X132132338Y-41562444D01*
X132137034Y-41568907D01*
X132137034Y-41592092D01*
X132140660Y-41614987D01*
X132137034Y-41622103D01*
X132137034Y-41630093D01*
X132112884Y-41669501D01*
X131999314Y-41783072D01*
X131999313Y-41783073D01*
X131897494Y-41923214D01*
X131818853Y-42077558D01*
X131818851Y-42077561D01*
X131765326Y-42242293D01*
X131765325Y-42242297D01*
X131738229Y-42413378D01*
X131738228Y-42413384D01*
X131738228Y-42586614D01*
X131765325Y-42757702D01*
X131765326Y-42757706D01*
X131818851Y-42922438D01*
X131818853Y-42922441D01*
X131894395Y-43070703D01*
X131897496Y-43076788D01*
X131999314Y-43216928D01*
X132121800Y-43339414D01*
X132261940Y-43441232D01*
X132416283Y-43519873D01*
X132416285Y-43519873D01*
X132416286Y-43519874D01*
X132416289Y-43519876D01*
X132581021Y-43573401D01*
X132581025Y-43573402D01*
X132752114Y-43600500D01*
X132752117Y-43600500D01*
X132925342Y-43600500D01*
X133096430Y-43573402D01*
X133096434Y-43573401D01*
X133261166Y-43519876D01*
X133261168Y-43519874D01*
X133261173Y-43519873D01*
X133415516Y-43441232D01*
X133555656Y-43339414D01*
X133678142Y-43216928D01*
X133779960Y-43076788D01*
X133858601Y-42922445D01*
X133858602Y-42922440D01*
X133858604Y-42922438D01*
X133912129Y-42757706D01*
X133912130Y-42757702D01*
X133939228Y-42586614D01*
X133939228Y-42413384D01*
X133939227Y-42413378D01*
X133912130Y-42242297D01*
X133912129Y-42242293D01*
X133858604Y-42077561D01*
X133858602Y-42077558D01*
X133858601Y-42077557D01*
X133858601Y-42077555D01*
X133779960Y-41923212D01*
X133678142Y-41783072D01*
X133564571Y-41669501D01*
X133536796Y-41614987D01*
X133546367Y-41554555D01*
X133589632Y-41511290D01*
X133634577Y-41500500D01*
X134582879Y-41500500D01*
X134641070Y-41519407D01*
X134677034Y-41568907D01*
X134677034Y-41630093D01*
X134652884Y-41669501D01*
X134539314Y-41783072D01*
X134539313Y-41783073D01*
X134437494Y-41923214D01*
X134358853Y-42077558D01*
X134358851Y-42077561D01*
X134305326Y-42242293D01*
X134305325Y-42242297D01*
X134278229Y-42413378D01*
X134278228Y-42413384D01*
X134278228Y-42586614D01*
X134305325Y-42757702D01*
X134305326Y-42757706D01*
X134358851Y-42922438D01*
X134358853Y-42922441D01*
X134434395Y-43070703D01*
X134437496Y-43076788D01*
X134539314Y-43216928D01*
X134661800Y-43339414D01*
X134801940Y-43441232D01*
X134956283Y-43519873D01*
X134956285Y-43519873D01*
X134956286Y-43519874D01*
X134956289Y-43519876D01*
X135121021Y-43573401D01*
X135121025Y-43573402D01*
X135292114Y-43600500D01*
X135292117Y-43600500D01*
X135465342Y-43600500D01*
X135636430Y-43573402D01*
X135636434Y-43573401D01*
X135801166Y-43519876D01*
X135801168Y-43519874D01*
X135801173Y-43519873D01*
X135955516Y-43441232D01*
X136095656Y-43339414D01*
X136218142Y-43216928D01*
X136319960Y-43076788D01*
X136398601Y-42922445D01*
X136398602Y-42922440D01*
X136398604Y-42922438D01*
X136452129Y-42757706D01*
X136452130Y-42757702D01*
X136479228Y-42586614D01*
X136479228Y-42413384D01*
X136479227Y-42413378D01*
X136452130Y-42242297D01*
X136452129Y-42242293D01*
X136398604Y-42077561D01*
X136398602Y-42077558D01*
X136398601Y-42077557D01*
X136398601Y-42077555D01*
X136319960Y-41923212D01*
X136218142Y-41783072D01*
X136104571Y-41669501D01*
X136076796Y-41614987D01*
X136086367Y-41554555D01*
X136129632Y-41511290D01*
X136174577Y-41500500D01*
X137122879Y-41500500D01*
X137181070Y-41519407D01*
X137217034Y-41568907D01*
X137217034Y-41630093D01*
X137192884Y-41669501D01*
X137079314Y-41783072D01*
X137079313Y-41783073D01*
X136977494Y-41923214D01*
X136898853Y-42077558D01*
X136898851Y-42077561D01*
X136845326Y-42242293D01*
X136845325Y-42242297D01*
X136818229Y-42413378D01*
X136818228Y-42413384D01*
X136818228Y-42586614D01*
X136845325Y-42757702D01*
X136845326Y-42757706D01*
X136898851Y-42922438D01*
X136898853Y-42922441D01*
X136974395Y-43070703D01*
X136977496Y-43076788D01*
X137079314Y-43216928D01*
X137201800Y-43339414D01*
X137341940Y-43441232D01*
X137496283Y-43519873D01*
X137496285Y-43519873D01*
X137496286Y-43519874D01*
X137496289Y-43519876D01*
X137661021Y-43573401D01*
X137661025Y-43573402D01*
X137832114Y-43600500D01*
X137832117Y-43600500D01*
X138005342Y-43600500D01*
X138176430Y-43573402D01*
X138176434Y-43573401D01*
X138341166Y-43519876D01*
X138341168Y-43519874D01*
X138341173Y-43519873D01*
X138495516Y-43441232D01*
X138635656Y-43339414D01*
X138758142Y-43216928D01*
X138859960Y-43076788D01*
X138938601Y-42922445D01*
X138938602Y-42922440D01*
X138938604Y-42922438D01*
X138992129Y-42757706D01*
X138992130Y-42757702D01*
X139019228Y-42586614D01*
X139019228Y-42413384D01*
X139019227Y-42413378D01*
X138992130Y-42242297D01*
X138992129Y-42242293D01*
X138938604Y-42077561D01*
X138938602Y-42077558D01*
X138938601Y-42077557D01*
X138938601Y-42077555D01*
X138859960Y-41923212D01*
X138758142Y-41783072D01*
X138644571Y-41669501D01*
X138616796Y-41614987D01*
X138626367Y-41554555D01*
X138669632Y-41511290D01*
X138714577Y-41500500D01*
X139662879Y-41500500D01*
X139721070Y-41519407D01*
X139757034Y-41568907D01*
X139757034Y-41630093D01*
X139732884Y-41669501D01*
X139619314Y-41783072D01*
X139619313Y-41783073D01*
X139517494Y-41923214D01*
X139438853Y-42077558D01*
X139438851Y-42077561D01*
X139385326Y-42242293D01*
X139385325Y-42242297D01*
X139358229Y-42413378D01*
X139358228Y-42413384D01*
X139358228Y-42586614D01*
X139385325Y-42757702D01*
X139385326Y-42757706D01*
X139438851Y-42922438D01*
X139438853Y-42922441D01*
X139514395Y-43070703D01*
X139517496Y-43076788D01*
X139619314Y-43216928D01*
X139741800Y-43339414D01*
X139881940Y-43441232D01*
X140036283Y-43519873D01*
X140036285Y-43519873D01*
X140036286Y-43519874D01*
X140036289Y-43519876D01*
X140201021Y-43573401D01*
X140201025Y-43573402D01*
X140372114Y-43600500D01*
X140372117Y-43600500D01*
X140545342Y-43600500D01*
X140716430Y-43573402D01*
X140716434Y-43573401D01*
X140881166Y-43519876D01*
X140881168Y-43519874D01*
X140881173Y-43519873D01*
X141035516Y-43441232D01*
X141175656Y-43339414D01*
X141298142Y-43216928D01*
X141399960Y-43076788D01*
X141478601Y-42922445D01*
X141478602Y-42922440D01*
X141478604Y-42922438D01*
X141532129Y-42757706D01*
X141532130Y-42757702D01*
X141559228Y-42586614D01*
X141559228Y-42413385D01*
X141532130Y-42242297D01*
X141532129Y-42242293D01*
X141478604Y-42077561D01*
X141478602Y-42077558D01*
X141478601Y-42077557D01*
X141478601Y-42077555D01*
X141399960Y-41923212D01*
X141298142Y-41783072D01*
X141184571Y-41669501D01*
X141156796Y-41614987D01*
X141166367Y-41554555D01*
X141209632Y-41511290D01*
X141254577Y-41500500D01*
X142241063Y-41500500D01*
X142299254Y-41519407D01*
X142311067Y-41529496D01*
X142813551Y-42031980D01*
X142805735Y-42034075D01*
X142691721Y-42099901D01*
X142598629Y-42192993D01*
X142532803Y-42307007D01*
X142530708Y-42314823D01*
X142056395Y-41840510D01*
X142015160Y-41897267D01*
X141932978Y-42058559D01*
X141877044Y-42230710D01*
X141848728Y-42409489D01*
X141848728Y-42590510D01*
X141877044Y-42769289D01*
X141932978Y-42941440D01*
X142015158Y-43102728D01*
X142056395Y-43159488D01*
X142530708Y-42685174D01*
X142532803Y-42692993D01*
X142598629Y-42807007D01*
X142691721Y-42900099D01*
X142805735Y-42965925D01*
X142813549Y-42968019D01*
X142339239Y-43442330D01*
X142396003Y-43483571D01*
X142557287Y-43565749D01*
X142729438Y-43621683D01*
X142908218Y-43650000D01*
X143089238Y-43650000D01*
X143268017Y-43621683D01*
X143440168Y-43565749D01*
X143601456Y-43483569D01*
X143658215Y-43442330D01*
X143183904Y-42968019D01*
X143191721Y-42965925D01*
X143305735Y-42900099D01*
X143398827Y-42807007D01*
X143464653Y-42692993D01*
X143466747Y-42685176D01*
X143941058Y-43159487D01*
X143982297Y-43102728D01*
X144064477Y-42941440D01*
X144120411Y-42769289D01*
X144148728Y-42590510D01*
X144148728Y-42409489D01*
X144120411Y-42230710D01*
X144064477Y-42058559D01*
X143982299Y-41897275D01*
X143941058Y-41840511D01*
X143466747Y-42314821D01*
X143464653Y-42307007D01*
X143398827Y-42192993D01*
X143305735Y-42099901D01*
X143191721Y-42034075D01*
X143183903Y-42031980D01*
X143686388Y-41529496D01*
X143740905Y-41501719D01*
X143756392Y-41500500D01*
X144742879Y-41500500D01*
X144801070Y-41519407D01*
X144837034Y-41568907D01*
X144837034Y-41630093D01*
X144812884Y-41669501D01*
X144699314Y-41783072D01*
X144699313Y-41783073D01*
X144597494Y-41923214D01*
X144518853Y-42077558D01*
X144518851Y-42077561D01*
X144465326Y-42242293D01*
X144465325Y-42242297D01*
X144438229Y-42413378D01*
X144438228Y-42413384D01*
X144438228Y-42586614D01*
X144465325Y-42757702D01*
X144465326Y-42757706D01*
X144518851Y-42922438D01*
X144518853Y-42922441D01*
X144594395Y-43070703D01*
X144597496Y-43076788D01*
X144699314Y-43216928D01*
X144821800Y-43339414D01*
X144961940Y-43441232D01*
X145116283Y-43519873D01*
X145116285Y-43519873D01*
X145116286Y-43519874D01*
X145116289Y-43519876D01*
X145281021Y-43573401D01*
X145281025Y-43573402D01*
X145452114Y-43600500D01*
X145452117Y-43600500D01*
X145625342Y-43600500D01*
X145796430Y-43573402D01*
X145796434Y-43573401D01*
X145961166Y-43519876D01*
X145961168Y-43519874D01*
X145961173Y-43519873D01*
X146115516Y-43441232D01*
X146255656Y-43339414D01*
X146378142Y-43216928D01*
X146479960Y-43076788D01*
X146558601Y-42922445D01*
X146558602Y-42922440D01*
X146558604Y-42922438D01*
X146612129Y-42757706D01*
X146612130Y-42757702D01*
X146639228Y-42586614D01*
X146639228Y-42413384D01*
X146639227Y-42413378D01*
X146612130Y-42242297D01*
X146612129Y-42242293D01*
X146558604Y-42077561D01*
X146558602Y-42077558D01*
X146558601Y-42077557D01*
X146558601Y-42077555D01*
X146479960Y-41923212D01*
X146378142Y-41783072D01*
X146264571Y-41669501D01*
X146236796Y-41614987D01*
X146246367Y-41554555D01*
X146289632Y-41511290D01*
X146334577Y-41500500D01*
X146882425Y-41500500D01*
X146940616Y-41519407D01*
X146976580Y-41568907D01*
X146979523Y-41618813D01*
X146978228Y-41625320D01*
X146978228Y-43374672D01*
X146978229Y-43374684D01*
X146992761Y-43447736D01*
X146992763Y-43447742D01*
X147048125Y-43530599D01*
X147048128Y-43530602D01*
X147111375Y-43572861D01*
X147130988Y-43585966D01*
X147186536Y-43597015D01*
X147204043Y-43600498D01*
X147204048Y-43600498D01*
X147204054Y-43600500D01*
X147204055Y-43600500D01*
X148953401Y-43600500D01*
X148953402Y-43600500D01*
X149026468Y-43585966D01*
X149109329Y-43530601D01*
X149164694Y-43447740D01*
X149179228Y-43374674D01*
X149179228Y-41625326D01*
X149178587Y-41622103D01*
X149177933Y-41618813D01*
X149185125Y-41558052D01*
X149226658Y-41513122D01*
X149275031Y-41500500D01*
X149400500Y-41500500D01*
X149458691Y-41519407D01*
X149494655Y-41568907D01*
X149499500Y-41599500D01*
X149499500Y-70400500D01*
X149480593Y-70458691D01*
X149431093Y-70494655D01*
X149400500Y-70499500D01*
X84596707Y-70499500D01*
X84538516Y-70480593D01*
X84502552Y-70431093D01*
X84497707Y-70400735D01*
X84493947Y-68819907D01*
X84482426Y-63975327D01*
X88499500Y-63975327D01*
X88499500Y-66524672D01*
X88499501Y-66524684D01*
X88514033Y-66597736D01*
X88514035Y-66597742D01*
X88569397Y-66680599D01*
X88569400Y-66680602D01*
X88616468Y-66712051D01*
X88652260Y-66735966D01*
X88707808Y-66747015D01*
X88725315Y-66750498D01*
X88725320Y-66750498D01*
X88725326Y-66750500D01*
X88725327Y-66750500D01*
X90274673Y-66750500D01*
X90274674Y-66750500D01*
X90347740Y-66735966D01*
X90430601Y-66680601D01*
X90485966Y-66597740D01*
X90500500Y-66524674D01*
X90500500Y-64646581D01*
X90990000Y-64646581D01*
X90990000Y-65049999D01*
X90990001Y-65050000D01*
X91578120Y-65050000D01*
X91574075Y-65057007D01*
X91540000Y-65184174D01*
X91540000Y-65315826D01*
X91574075Y-65442993D01*
X91578120Y-65450000D01*
X90990001Y-65450000D01*
X90990000Y-65450001D01*
X90990000Y-65853418D01*
X91030349Y-66056272D01*
X91109501Y-66247360D01*
X91109508Y-66247374D01*
X91224405Y-66419329D01*
X91370670Y-66565594D01*
X91542625Y-66680491D01*
X91542639Y-66680498D01*
X91733723Y-66759648D01*
X91733730Y-66759650D01*
X91840000Y-66780787D01*
X91840000Y-65711879D01*
X91847007Y-65715925D01*
X91974174Y-65750000D01*
X92105826Y-65750000D01*
X92232993Y-65715925D01*
X92240000Y-65711879D01*
X92240000Y-66780786D01*
X92346269Y-66759650D01*
X92346276Y-66759648D01*
X92537360Y-66680498D01*
X92537374Y-66680491D01*
X92709329Y-66565594D01*
X92855594Y-66419329D01*
X92970491Y-66247374D01*
X92970498Y-66247360D01*
X93049650Y-66056272D01*
X93089999Y-65853418D01*
X93090000Y-65853413D01*
X93090000Y-65450001D01*
X93089999Y-65450000D01*
X92501880Y-65450000D01*
X92505925Y-65442993D01*
X92540000Y-65315826D01*
X92540000Y-65184174D01*
X92505925Y-65057007D01*
X92501880Y-65050000D01*
X93089999Y-65050000D01*
X93090000Y-65049999D01*
X93090000Y-64651456D01*
X93579500Y-64651456D01*
X93579500Y-65848543D01*
X93617949Y-66041834D01*
X93617949Y-66041836D01*
X93693367Y-66223913D01*
X93693368Y-66223914D01*
X93802861Y-66387782D01*
X93942218Y-66527139D01*
X94106086Y-66636632D01*
X94288165Y-66712051D01*
X94481459Y-66750500D01*
X94481460Y-66750500D01*
X94678540Y-66750500D01*
X94678541Y-66750500D01*
X94871835Y-66712051D01*
X95053914Y-66636632D01*
X95217782Y-66527139D01*
X95357139Y-66387782D01*
X95466632Y-66223914D01*
X95542051Y-66041835D01*
X95580500Y-65848541D01*
X95580500Y-64947525D01*
X98179500Y-64947525D01*
X98179500Y-65092474D01*
X98217017Y-65232489D01*
X98289487Y-65358010D01*
X98289489Y-65358012D01*
X98289491Y-65358015D01*
X98391985Y-65460509D01*
X98391987Y-65460510D01*
X98391989Y-65460512D01*
X98517511Y-65532982D01*
X98517512Y-65532982D01*
X98517515Y-65532984D01*
X98657525Y-65570500D01*
X98663099Y-65570500D01*
X98721290Y-65589407D01*
X98733103Y-65599496D01*
X99829518Y-66695910D01*
X99829520Y-66695913D01*
X99904087Y-66770480D01*
X99949750Y-66796843D01*
X99995412Y-66823207D01*
X100097273Y-66850500D01*
X100202727Y-66850500D01*
X110073443Y-66850500D01*
X110131634Y-66869407D01*
X110167598Y-66918907D01*
X110167598Y-66980093D01*
X110152696Y-67008827D01*
X110144238Y-67020127D01*
X110078702Y-67107670D01*
X110028410Y-67242511D01*
X110028408Y-67242522D01*
X110022000Y-67302129D01*
X110022000Y-68697866D01*
X110022001Y-68697870D01*
X110028408Y-68757480D01*
X110028409Y-68757485D01*
X110078702Y-68892329D01*
X110145255Y-68981232D01*
X110164954Y-69007546D01*
X110164957Y-69007548D01*
X110164958Y-69007549D01*
X110280170Y-69093797D01*
X110415011Y-69144089D01*
X110415012Y-69144089D01*
X110415017Y-69144091D01*
X110474627Y-69150500D01*
X112570372Y-69150499D01*
X112629983Y-69144091D01*
X112712267Y-69113401D01*
X112764829Y-69093797D01*
X112764829Y-69093796D01*
X112764831Y-69093796D01*
X112880046Y-69007546D01*
X112966296Y-68892331D01*
X112970488Y-68881093D01*
X113016589Y-68757488D01*
X113016590Y-68757485D01*
X113016591Y-68757483D01*
X113023000Y-68697873D01*
X113022999Y-67302128D01*
X113016591Y-67242517D01*
X113000952Y-67200586D01*
X112966297Y-67107670D01*
X112900762Y-67020127D01*
X112892303Y-67008828D01*
X112872567Y-66950915D01*
X112890641Y-66892460D01*
X112939622Y-66855792D01*
X112971557Y-66850500D01*
X114073443Y-66850500D01*
X114131634Y-66869407D01*
X114167598Y-66918907D01*
X114167598Y-66980093D01*
X114152696Y-67008827D01*
X114144238Y-67020127D01*
X114078702Y-67107670D01*
X114028410Y-67242511D01*
X114028408Y-67242522D01*
X114022000Y-67302129D01*
X114022000Y-68697866D01*
X114022001Y-68697870D01*
X114028408Y-68757480D01*
X114028409Y-68757485D01*
X114078702Y-68892329D01*
X114145255Y-68981232D01*
X114164954Y-69007546D01*
X114164957Y-69007548D01*
X114164958Y-69007549D01*
X114280170Y-69093797D01*
X114415011Y-69144089D01*
X114415012Y-69144089D01*
X114415017Y-69144091D01*
X114474627Y-69150500D01*
X115924177Y-69150499D01*
X115982368Y-69169406D01*
X115994181Y-69179495D01*
X116572000Y-69757314D01*
X116571999Y-69757314D01*
X116665185Y-69850499D01*
X116665190Y-69850503D01*
X116779310Y-69916390D01*
X116779308Y-69916390D01*
X116779312Y-69916391D01*
X116779314Y-69916392D01*
X116906608Y-69950500D01*
X116906610Y-69950500D01*
X132575890Y-69950500D01*
X132575892Y-69950500D01*
X132703186Y-69916392D01*
X132703188Y-69916390D01*
X132703190Y-69916390D01*
X132817309Y-69850503D01*
X132817309Y-69850502D01*
X132817314Y-69850500D01*
X133537973Y-69129839D01*
X133592488Y-69102064D01*
X133638567Y-69105690D01*
X133662299Y-69113402D01*
X133662302Y-69113402D01*
X133662304Y-69113403D01*
X133662302Y-69113403D01*
X133833386Y-69140500D01*
X133833389Y-69140500D01*
X134006614Y-69140500D01*
X134177702Y-69113402D01*
X134177706Y-69113401D01*
X134342438Y-69059876D01*
X134342440Y-69059874D01*
X134342445Y-69059873D01*
X134496788Y-68981232D01*
X134636928Y-68879414D01*
X134759414Y-68756928D01*
X134861232Y-68616788D01*
X134939873Y-68462445D01*
X134939874Y-68462440D01*
X134939876Y-68462438D01*
X134993401Y-68297706D01*
X134993402Y-68297702D01*
X135020500Y-68126614D01*
X135020500Y-67953385D01*
X135019883Y-67949489D01*
X135310000Y-67949489D01*
X135310000Y-68130510D01*
X135338316Y-68309289D01*
X135394250Y-68481440D01*
X135476430Y-68642728D01*
X135517667Y-68699488D01*
X135991980Y-68225174D01*
X135994075Y-68232993D01*
X136059901Y-68347007D01*
X136152993Y-68440099D01*
X136267007Y-68505925D01*
X136274821Y-68508019D01*
X135800511Y-68982330D01*
X135857275Y-69023571D01*
X136018559Y-69105749D01*
X136190710Y-69161683D01*
X136369490Y-69190000D01*
X136550510Y-69190000D01*
X136729289Y-69161683D01*
X136901440Y-69105749D01*
X137062728Y-69023569D01*
X137119487Y-68982330D01*
X136645176Y-68508019D01*
X136652993Y-68505925D01*
X136767007Y-68440099D01*
X136860099Y-68347007D01*
X136925925Y-68232993D01*
X136928019Y-68225176D01*
X137402330Y-68699487D01*
X137443569Y-68642728D01*
X137525749Y-68481440D01*
X137581683Y-68309289D01*
X137610000Y-68130510D01*
X137610000Y-67949489D01*
X137850000Y-67949489D01*
X137850000Y-68130510D01*
X137878316Y-68309289D01*
X137934250Y-68481440D01*
X138016430Y-68642728D01*
X138057667Y-68699488D01*
X138531980Y-68225174D01*
X138534075Y-68232993D01*
X138599901Y-68347007D01*
X138692993Y-68440099D01*
X138807007Y-68505925D01*
X138814821Y-68508019D01*
X138340511Y-68982330D01*
X138397275Y-69023571D01*
X138558559Y-69105749D01*
X138730710Y-69161683D01*
X138909490Y-69190000D01*
X139090510Y-69190000D01*
X139269289Y-69161683D01*
X139441440Y-69105749D01*
X139602728Y-69023569D01*
X139659487Y-68982330D01*
X139185176Y-68508019D01*
X139192993Y-68505925D01*
X139307007Y-68440099D01*
X139400099Y-68347007D01*
X139465925Y-68232993D01*
X139468019Y-68225176D01*
X139942330Y-68699487D01*
X139983569Y-68642728D01*
X140065749Y-68481440D01*
X140121683Y-68309289D01*
X140150000Y-68130510D01*
X140150000Y-67949489D01*
X140390000Y-67949489D01*
X140390000Y-68130510D01*
X140418316Y-68309289D01*
X140474250Y-68481440D01*
X140556430Y-68642728D01*
X140597667Y-68699488D01*
X141071980Y-68225174D01*
X141074075Y-68232993D01*
X141139901Y-68347007D01*
X141232993Y-68440099D01*
X141347007Y-68505925D01*
X141354821Y-68508019D01*
X140880511Y-68982330D01*
X140937275Y-69023571D01*
X141098559Y-69105749D01*
X141270710Y-69161683D01*
X141449490Y-69190000D01*
X141630510Y-69190000D01*
X141809289Y-69161683D01*
X141981440Y-69105749D01*
X142142728Y-69023569D01*
X142199487Y-68982330D01*
X141725176Y-68508019D01*
X141732993Y-68505925D01*
X141847007Y-68440099D01*
X141940099Y-68347007D01*
X142005925Y-68232993D01*
X142008019Y-68225176D01*
X142482330Y-68699487D01*
X142523569Y-68642728D01*
X142605749Y-68481440D01*
X142661683Y-68309289D01*
X142690000Y-68130510D01*
X142690000Y-67949489D01*
X142661683Y-67770710D01*
X142605749Y-67598559D01*
X142523571Y-67437275D01*
X142490771Y-67392129D01*
X142979500Y-67392129D01*
X142979500Y-68687866D01*
X142979501Y-68687870D01*
X142985908Y-68747480D01*
X142985909Y-68747485D01*
X143036202Y-68882329D01*
X143110241Y-68981232D01*
X143122454Y-68997546D01*
X143122457Y-68997548D01*
X143122458Y-68997549D01*
X143237670Y-69083797D01*
X143372511Y-69134089D01*
X143372512Y-69134089D01*
X143372517Y-69134091D01*
X143432127Y-69140500D01*
X144727872Y-69140499D01*
X144787483Y-69134091D01*
X144863472Y-69105749D01*
X144922329Y-69083797D01*
X144922329Y-69083796D01*
X144922331Y-69083796D01*
X145037546Y-68997546D01*
X145123796Y-68882331D01*
X145174091Y-68747483D01*
X145180500Y-68687873D01*
X145180499Y-67392128D01*
X145174091Y-67332517D01*
X145162757Y-67302128D01*
X145123797Y-67197670D01*
X145037549Y-67082458D01*
X145037548Y-67082457D01*
X145037546Y-67082454D01*
X145037541Y-67082450D01*
X144922329Y-66996202D01*
X144787488Y-66945910D01*
X144787483Y-66945909D01*
X144787481Y-66945908D01*
X144787477Y-66945908D01*
X144756249Y-66942550D01*
X144727873Y-66939500D01*
X144727870Y-66939500D01*
X143432133Y-66939500D01*
X143432129Y-66939500D01*
X143432128Y-66939501D01*
X143424949Y-66940272D01*
X143372519Y-66945908D01*
X143372514Y-66945909D01*
X143237670Y-66996202D01*
X143122458Y-67082450D01*
X143122450Y-67082458D01*
X143036202Y-67197670D01*
X142985910Y-67332511D01*
X142985908Y-67332522D01*
X142979500Y-67392129D01*
X142490771Y-67392129D01*
X142482330Y-67380511D01*
X142008019Y-67854821D01*
X142005925Y-67847007D01*
X141940099Y-67732993D01*
X141847007Y-67639901D01*
X141732993Y-67574075D01*
X141725174Y-67571980D01*
X142199488Y-67097667D01*
X142142728Y-67056430D01*
X141981440Y-66974250D01*
X141809289Y-66918316D01*
X141630510Y-66890000D01*
X141449490Y-66890000D01*
X141270710Y-66918316D01*
X141098559Y-66974250D01*
X140937267Y-67056432D01*
X140880510Y-67097667D01*
X141354823Y-67571980D01*
X141347007Y-67574075D01*
X141232993Y-67639901D01*
X141139901Y-67732993D01*
X141074075Y-67847007D01*
X141071980Y-67854823D01*
X140597667Y-67380510D01*
X140556432Y-67437267D01*
X140474250Y-67598559D01*
X140418316Y-67770710D01*
X140390000Y-67949489D01*
X140150000Y-67949489D01*
X140121683Y-67770710D01*
X140065749Y-67598559D01*
X139983571Y-67437275D01*
X139942330Y-67380511D01*
X139468019Y-67854821D01*
X139465925Y-67847007D01*
X139400099Y-67732993D01*
X139307007Y-67639901D01*
X139192993Y-67574075D01*
X139185174Y-67571980D01*
X139659488Y-67097667D01*
X139602728Y-67056430D01*
X139441440Y-66974250D01*
X139269289Y-66918316D01*
X139090510Y-66890000D01*
X138909490Y-66890000D01*
X138730710Y-66918316D01*
X138558559Y-66974250D01*
X138397267Y-67056432D01*
X138340510Y-67097667D01*
X138814823Y-67571980D01*
X138807007Y-67574075D01*
X138692993Y-67639901D01*
X138599901Y-67732993D01*
X138534075Y-67847007D01*
X138531980Y-67854823D01*
X138057667Y-67380510D01*
X138016432Y-67437267D01*
X137934250Y-67598559D01*
X137878316Y-67770710D01*
X137850000Y-67949489D01*
X137610000Y-67949489D01*
X137581683Y-67770710D01*
X137525749Y-67598559D01*
X137443571Y-67437275D01*
X137402330Y-67380511D01*
X136928019Y-67854821D01*
X136925925Y-67847007D01*
X136860099Y-67732993D01*
X136767007Y-67639901D01*
X136652993Y-67574075D01*
X136645174Y-67571980D01*
X137119488Y-67097667D01*
X137062728Y-67056430D01*
X136901440Y-66974250D01*
X136729289Y-66918316D01*
X136550510Y-66890000D01*
X136369490Y-66890000D01*
X136190710Y-66918316D01*
X136018559Y-66974250D01*
X135857267Y-67056432D01*
X135800510Y-67097667D01*
X136274823Y-67571980D01*
X136267007Y-67574075D01*
X136152993Y-67639901D01*
X136059901Y-67732993D01*
X135994075Y-67847007D01*
X135991980Y-67854823D01*
X135517667Y-67380510D01*
X135476432Y-67437267D01*
X135394250Y-67598559D01*
X135338316Y-67770710D01*
X135310000Y-67949489D01*
X135019883Y-67949489D01*
X134993402Y-67782297D01*
X134993401Y-67782293D01*
X134939876Y-67617561D01*
X134939874Y-67617558D01*
X134939873Y-67617557D01*
X134939873Y-67617555D01*
X134861232Y-67463212D01*
X134759414Y-67323072D01*
X134636928Y-67200586D01*
X134496788Y-67098768D01*
X134496787Y-67098767D01*
X134496785Y-67098766D01*
X134342441Y-67020125D01*
X134342438Y-67020123D01*
X134177706Y-66966598D01*
X134177702Y-66966597D01*
X134006614Y-66939500D01*
X134006611Y-66939500D01*
X133833389Y-66939500D01*
X133833386Y-66939500D01*
X133662297Y-66966597D01*
X133662293Y-66966598D01*
X133497561Y-67020123D01*
X133497558Y-67020125D01*
X133343214Y-67098766D01*
X133203073Y-67200585D01*
X133080585Y-67323073D01*
X132978766Y-67463214D01*
X132900125Y-67617558D01*
X132900123Y-67617561D01*
X132846598Y-67782293D01*
X132846597Y-67782297D01*
X132819501Y-67953378D01*
X132819500Y-67953384D01*
X132819500Y-68126614D01*
X132846596Y-68297696D01*
X132849893Y-68307844D01*
X132854308Y-68321429D01*
X132854309Y-68382613D01*
X132830158Y-68422025D01*
X132331682Y-68920503D01*
X132277165Y-68948281D01*
X132261678Y-68949500D01*
X124703738Y-68949500D01*
X124645547Y-68930593D01*
X124609583Y-68881093D01*
X124609583Y-68819907D01*
X124624811Y-68792075D01*
X124624437Y-68791825D01*
X124627137Y-68787783D01*
X124627139Y-68787782D01*
X124736632Y-68623914D01*
X124812051Y-68441835D01*
X124850500Y-68248541D01*
X124850500Y-68051459D01*
X124812051Y-67858165D01*
X124736632Y-67676086D01*
X124627139Y-67512218D01*
X124487782Y-67372861D01*
X124323914Y-67263368D01*
X124323915Y-67263368D01*
X124323913Y-67263367D01*
X124141835Y-67187949D01*
X123948543Y-67149500D01*
X123948541Y-67149500D01*
X122051459Y-67149500D01*
X122051456Y-67149500D01*
X121858165Y-67187949D01*
X121858163Y-67187949D01*
X121676086Y-67263367D01*
X121512218Y-67372861D01*
X121512214Y-67372864D01*
X121372864Y-67512214D01*
X121372861Y-67512218D01*
X121263367Y-67676086D01*
X121187949Y-67858163D01*
X121187949Y-67858165D01*
X121149500Y-68051456D01*
X121149500Y-68248543D01*
X121187949Y-68441834D01*
X121187949Y-68441836D01*
X121263367Y-68623913D01*
X121263368Y-68623914D01*
X121372861Y-68787782D01*
X121372862Y-68787783D01*
X121375563Y-68791825D01*
X121374647Y-68792436D01*
X121395091Y-68844677D01*
X121379638Y-68903879D01*
X121332339Y-68942692D01*
X121296262Y-68949500D01*
X117220822Y-68949500D01*
X117213224Y-68947031D01*
X117205335Y-68948281D01*
X117184679Y-68937756D01*
X117162631Y-68930593D01*
X117150818Y-68920504D01*
X117047288Y-68816974D01*
X117019511Y-68762457D01*
X117018859Y-68736388D01*
X117023000Y-68697873D01*
X117022999Y-67302128D01*
X117016591Y-67242517D01*
X117000952Y-67200586D01*
X116966297Y-67107670D01*
X116900762Y-67020127D01*
X116892303Y-67008828D01*
X116872567Y-66950915D01*
X116890641Y-66892460D01*
X116939622Y-66855792D01*
X116971557Y-66850500D01*
X128602725Y-66850500D01*
X128602727Y-66850500D01*
X128704588Y-66823207D01*
X128704590Y-66823205D01*
X128704592Y-66823205D01*
X128795908Y-66770483D01*
X128795908Y-66770482D01*
X128795913Y-66770480D01*
X130153009Y-65413384D01*
X132819500Y-65413384D01*
X132819500Y-65586614D01*
X132846597Y-65757702D01*
X132846598Y-65757706D01*
X132900123Y-65922438D01*
X132900125Y-65922441D01*
X132968314Y-66056272D01*
X132978768Y-66076788D01*
X133080586Y-66216928D01*
X133203072Y-66339414D01*
X133343212Y-66441232D01*
X133497555Y-66519873D01*
X133497557Y-66519873D01*
X133497558Y-66519874D01*
X133497561Y-66519876D01*
X133662293Y-66573401D01*
X133662297Y-66573402D01*
X133833386Y-66600500D01*
X133833389Y-66600500D01*
X134006614Y-66600500D01*
X134177702Y-66573402D01*
X134177706Y-66573401D01*
X134342438Y-66519876D01*
X134342440Y-66519874D01*
X134342445Y-66519873D01*
X134496788Y-66441232D01*
X134636928Y-66339414D01*
X134759414Y-66216928D01*
X134861232Y-66076788D01*
X134939873Y-65922445D01*
X134939874Y-65922440D01*
X134939876Y-65922438D01*
X134993401Y-65757706D01*
X134993402Y-65757702D01*
X135020500Y-65586614D01*
X135020500Y-65413385D01*
X135019883Y-65409489D01*
X135310000Y-65409489D01*
X135310000Y-65590510D01*
X135338316Y-65769289D01*
X135394250Y-65941440D01*
X135476430Y-66102728D01*
X135517667Y-66159488D01*
X135991980Y-65685174D01*
X135994075Y-65692993D01*
X136059901Y-65807007D01*
X136152993Y-65900099D01*
X136267007Y-65965925D01*
X136274821Y-65968019D01*
X135800511Y-66442330D01*
X135857275Y-66483571D01*
X136018559Y-66565749D01*
X136190710Y-66621683D01*
X136369490Y-66650000D01*
X136550510Y-66650000D01*
X136729289Y-66621683D01*
X136901440Y-66565749D01*
X137062728Y-66483569D01*
X137119487Y-66442330D01*
X136645176Y-65968019D01*
X136652993Y-65965925D01*
X136767007Y-65900099D01*
X136860099Y-65807007D01*
X136925925Y-65692993D01*
X136928019Y-65685176D01*
X137402330Y-66159487D01*
X137443569Y-66102728D01*
X137525749Y-65941440D01*
X137581683Y-65769289D01*
X137610000Y-65590510D01*
X137610000Y-65409489D01*
X137850000Y-65409489D01*
X137850000Y-65590510D01*
X137878316Y-65769289D01*
X137934250Y-65941440D01*
X138016430Y-66102728D01*
X138057667Y-66159488D01*
X138531980Y-65685174D01*
X138534075Y-65692993D01*
X138599901Y-65807007D01*
X138692993Y-65900099D01*
X138807007Y-65965925D01*
X138814821Y-65968019D01*
X138340511Y-66442330D01*
X138397275Y-66483571D01*
X138558559Y-66565749D01*
X138730710Y-66621683D01*
X138909490Y-66650000D01*
X139090510Y-66650000D01*
X139269289Y-66621683D01*
X139441440Y-66565749D01*
X139602728Y-66483569D01*
X139659487Y-66442330D01*
X139185176Y-65968019D01*
X139192993Y-65965925D01*
X139307007Y-65900099D01*
X139400099Y-65807007D01*
X139465925Y-65692993D01*
X139468019Y-65685176D01*
X139942330Y-66159487D01*
X139983569Y-66102728D01*
X140065749Y-65941440D01*
X140121683Y-65769289D01*
X140150000Y-65590510D01*
X140150000Y-65409489D01*
X140390000Y-65409489D01*
X140390000Y-65590510D01*
X140418316Y-65769289D01*
X140474250Y-65941440D01*
X140556430Y-66102728D01*
X140597667Y-66159488D01*
X141071980Y-65685174D01*
X141074075Y-65692993D01*
X141139901Y-65807007D01*
X141232993Y-65900099D01*
X141347007Y-65965925D01*
X141354821Y-65968019D01*
X140880511Y-66442330D01*
X140937275Y-66483571D01*
X141098559Y-66565749D01*
X141270710Y-66621683D01*
X141449490Y-66650000D01*
X141630510Y-66650000D01*
X141809289Y-66621683D01*
X141981440Y-66565749D01*
X142142728Y-66483569D01*
X142199487Y-66442330D01*
X141725176Y-65968019D01*
X141732993Y-65965925D01*
X141847007Y-65900099D01*
X141940099Y-65807007D01*
X142005925Y-65692993D01*
X142008019Y-65685176D01*
X142482330Y-66159487D01*
X142523569Y-66102728D01*
X142605749Y-65941440D01*
X142661683Y-65769289D01*
X142690000Y-65590510D01*
X142690000Y-65413384D01*
X142979500Y-65413384D01*
X142979500Y-65586614D01*
X143006597Y-65757702D01*
X143006598Y-65757706D01*
X143060123Y-65922438D01*
X143060125Y-65922441D01*
X143128314Y-66056272D01*
X143138768Y-66076788D01*
X143240586Y-66216928D01*
X143363072Y-66339414D01*
X143503212Y-66441232D01*
X143657555Y-66519873D01*
X143657557Y-66519873D01*
X143657558Y-66519874D01*
X143657561Y-66519876D01*
X143822293Y-66573401D01*
X143822297Y-66573402D01*
X143993386Y-66600500D01*
X143993389Y-66600500D01*
X144166614Y-66600500D01*
X144337702Y-66573402D01*
X144337706Y-66573401D01*
X144502438Y-66519876D01*
X144502440Y-66519874D01*
X144502445Y-66519873D01*
X144656788Y-66441232D01*
X144796928Y-66339414D01*
X144919414Y-66216928D01*
X145021232Y-66076788D01*
X145099873Y-65922445D01*
X145099874Y-65922440D01*
X145099876Y-65922438D01*
X145153401Y-65757706D01*
X145153402Y-65757702D01*
X145180500Y-65586614D01*
X145180500Y-65413384D01*
X145180499Y-65413378D01*
X145153402Y-65242297D01*
X145153401Y-65242293D01*
X145099876Y-65077561D01*
X145099874Y-65077558D01*
X145099873Y-65077557D01*
X145099873Y-65077555D01*
X145021232Y-64923212D01*
X144919414Y-64783072D01*
X144796928Y-64660586D01*
X144656788Y-64558768D01*
X144656787Y-64558767D01*
X144656785Y-64558766D01*
X144502441Y-64480125D01*
X144502438Y-64480123D01*
X144337706Y-64426598D01*
X144337702Y-64426597D01*
X144166614Y-64399500D01*
X144166611Y-64399500D01*
X143993389Y-64399500D01*
X143993386Y-64399500D01*
X143822297Y-64426597D01*
X143822293Y-64426598D01*
X143657561Y-64480123D01*
X143657558Y-64480125D01*
X143503214Y-64558766D01*
X143363073Y-64660585D01*
X143240585Y-64783073D01*
X143138766Y-64923214D01*
X143060125Y-65077558D01*
X143060123Y-65077561D01*
X143006598Y-65242293D01*
X143006597Y-65242297D01*
X142979501Y-65413378D01*
X142979500Y-65413384D01*
X142690000Y-65413384D01*
X142690000Y-65409489D01*
X142661683Y-65230710D01*
X142605749Y-65058559D01*
X142523571Y-64897275D01*
X142482330Y-64840511D01*
X142008019Y-65314821D01*
X142005925Y-65307007D01*
X141940099Y-65192993D01*
X141847007Y-65099901D01*
X141732993Y-65034075D01*
X141725174Y-65031980D01*
X142199488Y-64557667D01*
X142142728Y-64516430D01*
X141981440Y-64434250D01*
X141809289Y-64378316D01*
X141630510Y-64350000D01*
X141449490Y-64350000D01*
X141270710Y-64378316D01*
X141098559Y-64434250D01*
X140937267Y-64516432D01*
X140880510Y-64557667D01*
X141354823Y-65031980D01*
X141347007Y-65034075D01*
X141232993Y-65099901D01*
X141139901Y-65192993D01*
X141074075Y-65307007D01*
X141071980Y-65314823D01*
X140597667Y-64840510D01*
X140556432Y-64897267D01*
X140474250Y-65058559D01*
X140418316Y-65230710D01*
X140390000Y-65409489D01*
X140150000Y-65409489D01*
X140121683Y-65230710D01*
X140065749Y-65058559D01*
X139983571Y-64897275D01*
X139942330Y-64840511D01*
X139468019Y-65314821D01*
X139465925Y-65307007D01*
X139400099Y-65192993D01*
X139307007Y-65099901D01*
X139192993Y-65034075D01*
X139185174Y-65031980D01*
X139659488Y-64557667D01*
X139602728Y-64516430D01*
X139441440Y-64434250D01*
X139269289Y-64378316D01*
X139090510Y-64350000D01*
X138909490Y-64350000D01*
X138730710Y-64378316D01*
X138558559Y-64434250D01*
X138397267Y-64516432D01*
X138340510Y-64557667D01*
X138814823Y-65031980D01*
X138807007Y-65034075D01*
X138692993Y-65099901D01*
X138599901Y-65192993D01*
X138534075Y-65307007D01*
X138531980Y-65314823D01*
X138057667Y-64840510D01*
X138016432Y-64897267D01*
X137934250Y-65058559D01*
X137878316Y-65230710D01*
X137850000Y-65409489D01*
X137610000Y-65409489D01*
X137581683Y-65230710D01*
X137525749Y-65058559D01*
X137443571Y-64897275D01*
X137402330Y-64840511D01*
X136928019Y-65314821D01*
X136925925Y-65307007D01*
X136860099Y-65192993D01*
X136767007Y-65099901D01*
X136652993Y-65034075D01*
X136645174Y-65031980D01*
X137119488Y-64557667D01*
X137062728Y-64516430D01*
X136901440Y-64434250D01*
X136729289Y-64378316D01*
X136550510Y-64350000D01*
X136369490Y-64350000D01*
X136190710Y-64378316D01*
X136018559Y-64434250D01*
X135857267Y-64516432D01*
X135800510Y-64557667D01*
X136274823Y-65031980D01*
X136267007Y-65034075D01*
X136152993Y-65099901D01*
X136059901Y-65192993D01*
X135994075Y-65307007D01*
X135991980Y-65314823D01*
X135517667Y-64840510D01*
X135476432Y-64897267D01*
X135394250Y-65058559D01*
X135338316Y-65230710D01*
X135310000Y-65409489D01*
X135019883Y-65409489D01*
X134993402Y-65242297D01*
X134993401Y-65242293D01*
X134939876Y-65077561D01*
X134939874Y-65077558D01*
X134939873Y-65077557D01*
X134939873Y-65077555D01*
X134861232Y-64923212D01*
X134759414Y-64783072D01*
X134636928Y-64660586D01*
X134496788Y-64558768D01*
X134496787Y-64558767D01*
X134496785Y-64558766D01*
X134342441Y-64480125D01*
X134342438Y-64480123D01*
X134177706Y-64426598D01*
X134177702Y-64426597D01*
X134006614Y-64399500D01*
X134006611Y-64399500D01*
X133833389Y-64399500D01*
X133833386Y-64399500D01*
X133662297Y-64426597D01*
X133662293Y-64426598D01*
X133497561Y-64480123D01*
X133497558Y-64480125D01*
X133343214Y-64558766D01*
X133203073Y-64660585D01*
X133080585Y-64783073D01*
X132978766Y-64923214D01*
X132900125Y-65077558D01*
X132900123Y-65077561D01*
X132846598Y-65242293D01*
X132846597Y-65242297D01*
X132819501Y-65413378D01*
X132819500Y-65413384D01*
X130153009Y-65413384D01*
X131786897Y-63779496D01*
X131841414Y-63751719D01*
X131856901Y-63750500D01*
X145159636Y-63750500D01*
X145159638Y-63750500D01*
X145261499Y-63723207D01*
X145261501Y-63723205D01*
X145261503Y-63723205D01*
X145352819Y-63670483D01*
X145352819Y-63670482D01*
X145352824Y-63670480D01*
X147518351Y-61504953D01*
X147572868Y-61477176D01*
X147588355Y-61475957D01*
X148956127Y-61475957D01*
X148956128Y-61475957D01*
X149029194Y-61461423D01*
X149112055Y-61406058D01*
X149167420Y-61323197D01*
X149181954Y-61250131D01*
X149181954Y-59500783D01*
X149167420Y-59427717D01*
X149119222Y-59355582D01*
X149112056Y-59344857D01*
X149112053Y-59344854D01*
X149029196Y-59289492D01*
X149029194Y-59289491D01*
X149029191Y-59289490D01*
X149029190Y-59289490D01*
X148956138Y-59274958D01*
X148956128Y-59274957D01*
X147206780Y-59274957D01*
X147206779Y-59274957D01*
X147206769Y-59274958D01*
X147133717Y-59289490D01*
X147133711Y-59289492D01*
X147050854Y-59344854D01*
X147050851Y-59344857D01*
X146995489Y-59427714D01*
X146995487Y-59427720D01*
X146980955Y-59500772D01*
X146980954Y-59500784D01*
X146980954Y-60868556D01*
X146962047Y-60926747D01*
X146951958Y-60938560D01*
X144970014Y-62920504D01*
X144915497Y-62948281D01*
X144900010Y-62949500D01*
X131702727Y-62949500D01*
X131597273Y-62949500D01*
X131534929Y-62966204D01*
X131495407Y-62976794D01*
X131404091Y-63029516D01*
X128413103Y-66020504D01*
X128358586Y-66048281D01*
X128343099Y-66049500D01*
X124385190Y-66049500D01*
X124326999Y-66030593D01*
X124291035Y-65981093D01*
X124291035Y-65919907D01*
X124315186Y-65880497D01*
X124588575Y-65607107D01*
X124643092Y-65579329D01*
X124703524Y-65588900D01*
X124728579Y-65607103D01*
X124761985Y-65640509D01*
X124761987Y-65640510D01*
X124761989Y-65640512D01*
X124887511Y-65712982D01*
X124887512Y-65712982D01*
X124887515Y-65712984D01*
X125027525Y-65750500D01*
X125027526Y-65750500D01*
X125172474Y-65750500D01*
X125172475Y-65750500D01*
X125312485Y-65712984D01*
X125312487Y-65712982D01*
X125312489Y-65712982D01*
X125438010Y-65640512D01*
X125438010Y-65640511D01*
X125438015Y-65640509D01*
X125540509Y-65538015D01*
X125596811Y-65440497D01*
X125612982Y-65412489D01*
X125612982Y-65412487D01*
X125612984Y-65412485D01*
X125650500Y-65272475D01*
X125650500Y-65127525D01*
X125612984Y-64987515D01*
X125612982Y-64987512D01*
X125612982Y-64987510D01*
X125540512Y-64861989D01*
X125540510Y-64861987D01*
X125540509Y-64861985D01*
X125438015Y-64759491D01*
X125438012Y-64759489D01*
X125438010Y-64759487D01*
X125312488Y-64687017D01*
X125312489Y-64687017D01*
X125275609Y-64677135D01*
X125172475Y-64649500D01*
X125027525Y-64649500D01*
X124986156Y-64660585D01*
X124887510Y-64687017D01*
X124761989Y-64759487D01*
X124761984Y-64759491D01*
X124700971Y-64820504D01*
X124646454Y-64848281D01*
X124630968Y-64849500D01*
X124546144Y-64849500D01*
X124453856Y-64849500D01*
X124364712Y-64873386D01*
X124284788Y-64919530D01*
X123733814Y-65470504D01*
X123679297Y-65498281D01*
X123663810Y-65499500D01*
X117388917Y-65499500D01*
X117330726Y-65480593D01*
X117294762Y-65431093D01*
X117294762Y-65369907D01*
X117306601Y-65345499D01*
X117315292Y-65332491D01*
X117335966Y-65301550D01*
X117350500Y-65228484D01*
X117350500Y-63479136D01*
X117335966Y-63406070D01*
X117287769Y-63333937D01*
X117280602Y-63323210D01*
X117280599Y-63323207D01*
X117197742Y-63267845D01*
X117197740Y-63267844D01*
X117197737Y-63267843D01*
X117197736Y-63267843D01*
X117124684Y-63253311D01*
X117124674Y-63253310D01*
X115375326Y-63253310D01*
X115375325Y-63253310D01*
X115375315Y-63253311D01*
X115302263Y-63267843D01*
X115302257Y-63267845D01*
X115219400Y-63323207D01*
X115219397Y-63323210D01*
X115164035Y-63406067D01*
X115164033Y-63406073D01*
X115149501Y-63479125D01*
X115149500Y-63479137D01*
X115149500Y-65228482D01*
X115149501Y-65228494D01*
X115164033Y-65301546D01*
X115164035Y-65301552D01*
X115193399Y-65345499D01*
X115210007Y-65404388D01*
X115188829Y-65461791D01*
X115137955Y-65495783D01*
X115111083Y-65499500D01*
X114297882Y-65499500D01*
X114239691Y-65480593D01*
X114203727Y-65431093D01*
X114203727Y-65369907D01*
X114239691Y-65320407D01*
X114252937Y-65312290D01*
X114274023Y-65301546D01*
X114286788Y-65295042D01*
X114426928Y-65193224D01*
X114549414Y-65070738D01*
X114651232Y-64930598D01*
X114729873Y-64776255D01*
X114729874Y-64776250D01*
X114729876Y-64776248D01*
X114783401Y-64611516D01*
X114783402Y-64611512D01*
X114810500Y-64440424D01*
X114810500Y-64267194D01*
X114810499Y-64267188D01*
X114783402Y-64096107D01*
X114783401Y-64096103D01*
X114729876Y-63931371D01*
X114729874Y-63931368D01*
X114729873Y-63931367D01*
X114729873Y-63931365D01*
X114651232Y-63777022D01*
X114549414Y-63636882D01*
X114426928Y-63514396D01*
X114286788Y-63412578D01*
X114286787Y-63412577D01*
X114286785Y-63412576D01*
X114132441Y-63333935D01*
X114132438Y-63333933D01*
X113967706Y-63280408D01*
X113967702Y-63280407D01*
X113796614Y-63253310D01*
X113796611Y-63253310D01*
X113623389Y-63253310D01*
X113623386Y-63253310D01*
X113452297Y-63280407D01*
X113452293Y-63280408D01*
X113287561Y-63333933D01*
X113287558Y-63333935D01*
X113133214Y-63412576D01*
X112993073Y-63514395D01*
X112870585Y-63636883D01*
X112768766Y-63777024D01*
X112690125Y-63931368D01*
X112690123Y-63931371D01*
X112636598Y-64096103D01*
X112636597Y-64096107D01*
X112609501Y-64267188D01*
X112609500Y-64267194D01*
X112609500Y-64440424D01*
X112636597Y-64611512D01*
X112636598Y-64611516D01*
X112690123Y-64776248D01*
X112690125Y-64776251D01*
X112765005Y-64923214D01*
X112768768Y-64930598D01*
X112870586Y-65070738D01*
X112993072Y-65193224D01*
X113133212Y-65295042D01*
X113133214Y-65295043D01*
X113167063Y-65312290D01*
X113210328Y-65355555D01*
X113219899Y-65415987D01*
X113192122Y-65470504D01*
X113137605Y-65498281D01*
X113122118Y-65499500D01*
X111757882Y-65499500D01*
X111699691Y-65480593D01*
X111663727Y-65431093D01*
X111663727Y-65369907D01*
X111699691Y-65320407D01*
X111712937Y-65312290D01*
X111734023Y-65301546D01*
X111746788Y-65295042D01*
X111886928Y-65193224D01*
X112009414Y-65070738D01*
X112111232Y-64930598D01*
X112189873Y-64776255D01*
X112189874Y-64776250D01*
X112189876Y-64776248D01*
X112243401Y-64611516D01*
X112243402Y-64611512D01*
X112270500Y-64440424D01*
X112270500Y-64267194D01*
X112270499Y-64267188D01*
X112243402Y-64096107D01*
X112243401Y-64096103D01*
X112189876Y-63931371D01*
X112189874Y-63931368D01*
X112189873Y-63931367D01*
X112189873Y-63931365D01*
X112111232Y-63777022D01*
X112009414Y-63636882D01*
X111886928Y-63514396D01*
X111746788Y-63412578D01*
X111746787Y-63412577D01*
X111746785Y-63412576D01*
X111592441Y-63333935D01*
X111592438Y-63333933D01*
X111427706Y-63280408D01*
X111427702Y-63280407D01*
X111256614Y-63253310D01*
X111256611Y-63253310D01*
X111083389Y-63253310D01*
X111083386Y-63253310D01*
X110912297Y-63280407D01*
X110912293Y-63280408D01*
X110747561Y-63333933D01*
X110747558Y-63333935D01*
X110593214Y-63412576D01*
X110453073Y-63514395D01*
X110330585Y-63636883D01*
X110228766Y-63777024D01*
X110150125Y-63931368D01*
X110150123Y-63931371D01*
X110096598Y-64096103D01*
X110096597Y-64096107D01*
X110069501Y-64267188D01*
X110069500Y-64267194D01*
X110069500Y-64440424D01*
X110096597Y-64611512D01*
X110096598Y-64611516D01*
X110150123Y-64776248D01*
X110150125Y-64776251D01*
X110225005Y-64923214D01*
X110228768Y-64930598D01*
X110330586Y-65070738D01*
X110453072Y-65193224D01*
X110593212Y-65295042D01*
X110593214Y-65295043D01*
X110627063Y-65312290D01*
X110670328Y-65355555D01*
X110679899Y-65415987D01*
X110652122Y-65470504D01*
X110597605Y-65498281D01*
X110582118Y-65499500D01*
X109217882Y-65499500D01*
X109159691Y-65480593D01*
X109123727Y-65431093D01*
X109123727Y-65369907D01*
X109159691Y-65320407D01*
X109172937Y-65312290D01*
X109194023Y-65301546D01*
X109206788Y-65295042D01*
X109346928Y-65193224D01*
X109469414Y-65070738D01*
X109571232Y-64930598D01*
X109649873Y-64776255D01*
X109649874Y-64776250D01*
X109649876Y-64776248D01*
X109703401Y-64611516D01*
X109703402Y-64611512D01*
X109730500Y-64440424D01*
X109730500Y-64267194D01*
X109730499Y-64267188D01*
X109703402Y-64096107D01*
X109703401Y-64096103D01*
X109649876Y-63931371D01*
X109649874Y-63931368D01*
X109649873Y-63931367D01*
X109649873Y-63931365D01*
X109571232Y-63777022D01*
X109469414Y-63636882D01*
X109346928Y-63514396D01*
X109206788Y-63412578D01*
X109206787Y-63412577D01*
X109206785Y-63412576D01*
X109052441Y-63333935D01*
X109052438Y-63333933D01*
X108887706Y-63280408D01*
X108887702Y-63280407D01*
X108716614Y-63253310D01*
X108716611Y-63253310D01*
X108543389Y-63253310D01*
X108543386Y-63253310D01*
X108372297Y-63280407D01*
X108372293Y-63280408D01*
X108207561Y-63333933D01*
X108207558Y-63333935D01*
X108053214Y-63412576D01*
X107913073Y-63514395D01*
X107790585Y-63636883D01*
X107688766Y-63777024D01*
X107610125Y-63931368D01*
X107610123Y-63931371D01*
X107556598Y-64096103D01*
X107556597Y-64096107D01*
X107529501Y-64267188D01*
X107529500Y-64267194D01*
X107529500Y-64440424D01*
X107556597Y-64611512D01*
X107556598Y-64611516D01*
X107610123Y-64776248D01*
X107610125Y-64776251D01*
X107685005Y-64923214D01*
X107688768Y-64930598D01*
X107790586Y-65070738D01*
X107913072Y-65193224D01*
X108053212Y-65295042D01*
X108053214Y-65295043D01*
X108087063Y-65312290D01*
X108130328Y-65355555D01*
X108139899Y-65415987D01*
X108112122Y-65470504D01*
X108057605Y-65498281D01*
X108042118Y-65499500D01*
X106774280Y-65499500D01*
X106716089Y-65480593D01*
X106680125Y-65431093D01*
X106680125Y-65369907D01*
X106716089Y-65320408D01*
X106749488Y-65296141D01*
X106275176Y-64821829D01*
X106282993Y-64819735D01*
X106397007Y-64753909D01*
X106490099Y-64660817D01*
X106555925Y-64546803D01*
X106558019Y-64538986D01*
X107032330Y-65013297D01*
X107073569Y-64956538D01*
X107155749Y-64795250D01*
X107211683Y-64623099D01*
X107240000Y-64444320D01*
X107240000Y-64263299D01*
X107211683Y-64084520D01*
X107155749Y-63912369D01*
X107073571Y-63751085D01*
X107032330Y-63694321D01*
X106558019Y-64168631D01*
X106555925Y-64160817D01*
X106490099Y-64046803D01*
X106397007Y-63953711D01*
X106282993Y-63887885D01*
X106275174Y-63885790D01*
X106749488Y-63411477D01*
X106692728Y-63370240D01*
X106531440Y-63288060D01*
X106359289Y-63232126D01*
X106180510Y-63203810D01*
X105999490Y-63203810D01*
X105820710Y-63232126D01*
X105648559Y-63288060D01*
X105487267Y-63370242D01*
X105430510Y-63411477D01*
X105904823Y-63885790D01*
X105897007Y-63887885D01*
X105782993Y-63953711D01*
X105689901Y-64046803D01*
X105624075Y-64160817D01*
X105621980Y-64168633D01*
X105147667Y-63694320D01*
X105106432Y-63751077D01*
X105024250Y-63912369D01*
X104968316Y-64084520D01*
X104940000Y-64263299D01*
X104940000Y-64444320D01*
X104968316Y-64623099D01*
X105024250Y-64795250D01*
X105106430Y-64956538D01*
X105147667Y-65013298D01*
X105621980Y-64538984D01*
X105624075Y-64546803D01*
X105689901Y-64660817D01*
X105782993Y-64753909D01*
X105897007Y-64819735D01*
X105904821Y-64821829D01*
X105430510Y-65296141D01*
X105463910Y-65320407D01*
X105499874Y-65369906D01*
X105499875Y-65431091D01*
X105463912Y-65480592D01*
X105405721Y-65499500D01*
X104137882Y-65499500D01*
X104079691Y-65480593D01*
X104043727Y-65431093D01*
X104043727Y-65369907D01*
X104079691Y-65320407D01*
X104092937Y-65312290D01*
X104114023Y-65301546D01*
X104126788Y-65295042D01*
X104266928Y-65193224D01*
X104389414Y-65070738D01*
X104491232Y-64930598D01*
X104569873Y-64776255D01*
X104569874Y-64776250D01*
X104569876Y-64776248D01*
X104623401Y-64611516D01*
X104623402Y-64611512D01*
X104650500Y-64440424D01*
X104650500Y-64267195D01*
X104623402Y-64096107D01*
X104623401Y-64096103D01*
X104569876Y-63931371D01*
X104569874Y-63931368D01*
X104569873Y-63931367D01*
X104569873Y-63931365D01*
X104491232Y-63777022D01*
X104389414Y-63636882D01*
X104266928Y-63514396D01*
X104126788Y-63412578D01*
X104126787Y-63412577D01*
X104126785Y-63412576D01*
X103972441Y-63333935D01*
X103972438Y-63333933D01*
X103807706Y-63280408D01*
X103807702Y-63280407D01*
X103636614Y-63253310D01*
X103636611Y-63253310D01*
X103463389Y-63253310D01*
X103463386Y-63253310D01*
X103292297Y-63280407D01*
X103292293Y-63280408D01*
X103127561Y-63333933D01*
X103127558Y-63333935D01*
X102973214Y-63412576D01*
X102833073Y-63514395D01*
X102710585Y-63636883D01*
X102608766Y-63777024D01*
X102530125Y-63931368D01*
X102530123Y-63931371D01*
X102476598Y-64096103D01*
X102476597Y-64096107D01*
X102449501Y-64267188D01*
X102449500Y-64267194D01*
X102449500Y-64440424D01*
X102476597Y-64611512D01*
X102476598Y-64611516D01*
X102530123Y-64776248D01*
X102530125Y-64776251D01*
X102605005Y-64923214D01*
X102608768Y-64930598D01*
X102710586Y-65070738D01*
X102833072Y-65193224D01*
X102973212Y-65295042D01*
X102973214Y-65295043D01*
X103007063Y-65312290D01*
X103050328Y-65355555D01*
X103059899Y-65415987D01*
X103032122Y-65470504D01*
X102977605Y-65498281D01*
X102962118Y-65499500D01*
X101597882Y-65499500D01*
X101539691Y-65480593D01*
X101503727Y-65431093D01*
X101503727Y-65369907D01*
X101539691Y-65320407D01*
X101552937Y-65312290D01*
X101574023Y-65301546D01*
X101586788Y-65295042D01*
X101726928Y-65193224D01*
X101849414Y-65070738D01*
X101951232Y-64930598D01*
X102029873Y-64776255D01*
X102029874Y-64776250D01*
X102029876Y-64776248D01*
X102083401Y-64611516D01*
X102083402Y-64611512D01*
X102110500Y-64440424D01*
X102110500Y-64267194D01*
X102110499Y-64267188D01*
X102083402Y-64096107D01*
X102083401Y-64096103D01*
X102029876Y-63931371D01*
X102029875Y-63931370D01*
X102029873Y-63931367D01*
X102029873Y-63931365D01*
X102028184Y-63928051D01*
X102018611Y-63867622D01*
X102046386Y-63813104D01*
X102046390Y-63813100D01*
X102979996Y-62879496D01*
X103034512Y-62851719D01*
X103049999Y-62850500D01*
X117346142Y-62850500D01*
X117346144Y-62850500D01*
X117435288Y-62826614D01*
X117515212Y-62780470D01*
X118344530Y-61951150D01*
X118399046Y-61923373D01*
X118459478Y-61932944D01*
X118502743Y-61976209D01*
X118512314Y-62036641D01*
X118511631Y-62040467D01*
X118499500Y-62101453D01*
X118499500Y-63998543D01*
X118537949Y-64191834D01*
X118537949Y-64191836D01*
X118613367Y-64373913D01*
X118613368Y-64373914D01*
X118722861Y-64537782D01*
X118862218Y-64677139D01*
X119026086Y-64786632D01*
X119208165Y-64862051D01*
X119401459Y-64900500D01*
X119401460Y-64900500D01*
X119598540Y-64900500D01*
X119598541Y-64900500D01*
X119791835Y-64862051D01*
X119973914Y-64786632D01*
X120137782Y-64677139D01*
X120277139Y-64537782D01*
X120386632Y-64373914D01*
X120462051Y-64191835D01*
X120500500Y-63998541D01*
X120500500Y-62101459D01*
X120462051Y-61908165D01*
X120386632Y-61726086D01*
X120277139Y-61562218D01*
X120234425Y-61519504D01*
X120206648Y-61464987D01*
X120216219Y-61404555D01*
X120259484Y-61361290D01*
X120304429Y-61350500D01*
X125695571Y-61350500D01*
X125753762Y-61369407D01*
X125789726Y-61418907D01*
X125789726Y-61480093D01*
X125765575Y-61519504D01*
X125722864Y-61562214D01*
X125722861Y-61562218D01*
X125613367Y-61726086D01*
X125537949Y-61908163D01*
X125537949Y-61908165D01*
X125499500Y-62101456D01*
X125499500Y-63998543D01*
X125537949Y-64191834D01*
X125537949Y-64191836D01*
X125613367Y-64373913D01*
X125613368Y-64373914D01*
X125722861Y-64537782D01*
X125862218Y-64677139D01*
X126026086Y-64786632D01*
X126208165Y-64862051D01*
X126401459Y-64900500D01*
X126401460Y-64900500D01*
X126598540Y-64900500D01*
X126598541Y-64900500D01*
X126791835Y-64862051D01*
X126973914Y-64786632D01*
X127137782Y-64677139D01*
X127277139Y-64537782D01*
X127386632Y-64373914D01*
X127462051Y-64191835D01*
X127500500Y-63998541D01*
X127500500Y-62101459D01*
X127462051Y-61908165D01*
X127386632Y-61726086D01*
X127277139Y-61562218D01*
X127137782Y-61422861D01*
X127027989Y-61349500D01*
X126973913Y-61313367D01*
X126791835Y-61237949D01*
X126611412Y-61202060D01*
X126558028Y-61172163D01*
X126532412Y-61116598D01*
X126544349Y-61056588D01*
X126560718Y-61034962D01*
X128776186Y-58819496D01*
X128783303Y-58815869D01*
X128787999Y-58809407D01*
X128810047Y-58802243D01*
X128830703Y-58791719D01*
X128846190Y-58790500D01*
X129005923Y-58790500D01*
X129064114Y-58809407D01*
X129100078Y-58858907D01*
X129101132Y-58902423D01*
X129103768Y-58902729D01*
X129100000Y-58935202D01*
X129100000Y-59629999D01*
X129100001Y-59630000D01*
X129788120Y-59630000D01*
X129784075Y-59637007D01*
X129750000Y-59764174D01*
X129750000Y-59895826D01*
X129784075Y-60022993D01*
X129788120Y-60030000D01*
X129100002Y-60030000D01*
X129100001Y-60030001D01*
X129100001Y-60724791D01*
X129102909Y-60749874D01*
X129148213Y-60852477D01*
X129227522Y-60931786D01*
X129330127Y-60977090D01*
X129355203Y-60979999D01*
X130049998Y-60979999D01*
X130050000Y-60979998D01*
X130050000Y-60291879D01*
X130057007Y-60295925D01*
X130184174Y-60330000D01*
X130315826Y-60330000D01*
X130442993Y-60295925D01*
X130450000Y-60291879D01*
X130450000Y-60979998D01*
X130450001Y-60979999D01*
X131144790Y-60979999D01*
X131144791Y-60979998D01*
X131169874Y-60977090D01*
X131272477Y-60931786D01*
X131351786Y-60852477D01*
X131397090Y-60749872D01*
X131399999Y-60724797D01*
X131400000Y-60724795D01*
X131400000Y-60288841D01*
X131740954Y-60288841D01*
X131740954Y-60462071D01*
X131768051Y-60633159D01*
X131768052Y-60633163D01*
X131821577Y-60797895D01*
X131821579Y-60797898D01*
X131890980Y-60934108D01*
X131900222Y-60952245D01*
X132002040Y-61092385D01*
X132124526Y-61214871D01*
X132264666Y-61316689D01*
X132419009Y-61395330D01*
X132419011Y-61395330D01*
X132419012Y-61395331D01*
X132419015Y-61395333D01*
X132583747Y-61448858D01*
X132583751Y-61448859D01*
X132754840Y-61475957D01*
X132754843Y-61475957D01*
X132928068Y-61475957D01*
X133099156Y-61448859D01*
X133099160Y-61448858D01*
X133263892Y-61395333D01*
X133263894Y-61395331D01*
X133263899Y-61395330D01*
X133418242Y-61316689D01*
X133558382Y-61214871D01*
X133680868Y-61092385D01*
X133782686Y-60952245D01*
X133861327Y-60797902D01*
X133861328Y-60797897D01*
X133861330Y-60797895D01*
X133914855Y-60633163D01*
X133914856Y-60633159D01*
X133941954Y-60462071D01*
X133941954Y-60288841D01*
X134280954Y-60288841D01*
X134280954Y-60462071D01*
X134308051Y-60633159D01*
X134308052Y-60633163D01*
X134361577Y-60797895D01*
X134361579Y-60797898D01*
X134430980Y-60934108D01*
X134440222Y-60952245D01*
X134542040Y-61092385D01*
X134664526Y-61214871D01*
X134804666Y-61316689D01*
X134959009Y-61395330D01*
X134959011Y-61395330D01*
X134959012Y-61395331D01*
X134959015Y-61395333D01*
X135123747Y-61448858D01*
X135123751Y-61448859D01*
X135294840Y-61475957D01*
X135294843Y-61475957D01*
X135468068Y-61475957D01*
X135639156Y-61448859D01*
X135639160Y-61448858D01*
X135803892Y-61395333D01*
X135803894Y-61395331D01*
X135803899Y-61395330D01*
X135958242Y-61316689D01*
X136098382Y-61214871D01*
X136220868Y-61092385D01*
X136322686Y-60952245D01*
X136401327Y-60797902D01*
X136401328Y-60797897D01*
X136401330Y-60797895D01*
X136454855Y-60633163D01*
X136454856Y-60633159D01*
X136481954Y-60462071D01*
X136481954Y-60288841D01*
X136820954Y-60288841D01*
X136820954Y-60462071D01*
X136848051Y-60633159D01*
X136848052Y-60633163D01*
X136901577Y-60797895D01*
X136901579Y-60797898D01*
X136970980Y-60934108D01*
X136980222Y-60952245D01*
X137082040Y-61092385D01*
X137204526Y-61214871D01*
X137344666Y-61316689D01*
X137499009Y-61395330D01*
X137499011Y-61395330D01*
X137499012Y-61395331D01*
X137499015Y-61395333D01*
X137663747Y-61448858D01*
X137663751Y-61448859D01*
X137834840Y-61475957D01*
X137834843Y-61475957D01*
X138008068Y-61475957D01*
X138179156Y-61448859D01*
X138179160Y-61448858D01*
X138343892Y-61395333D01*
X138343894Y-61395331D01*
X138343899Y-61395330D01*
X138498242Y-61316689D01*
X138638382Y-61214871D01*
X138760868Y-61092385D01*
X138862686Y-60952245D01*
X138941327Y-60797902D01*
X138941328Y-60797897D01*
X138941330Y-60797895D01*
X138994855Y-60633163D01*
X138994856Y-60633159D01*
X139021954Y-60462071D01*
X139021954Y-60288841D01*
X139360954Y-60288841D01*
X139360954Y-60462071D01*
X139388051Y-60633159D01*
X139388052Y-60633163D01*
X139441577Y-60797895D01*
X139441579Y-60797898D01*
X139510980Y-60934108D01*
X139520222Y-60952245D01*
X139622040Y-61092385D01*
X139744526Y-61214871D01*
X139884666Y-61316689D01*
X140039009Y-61395330D01*
X140039011Y-61395330D01*
X140039012Y-61395331D01*
X140039015Y-61395333D01*
X140203747Y-61448858D01*
X140203751Y-61448859D01*
X140374840Y-61475957D01*
X140374843Y-61475957D01*
X140548068Y-61475957D01*
X140719156Y-61448859D01*
X140719160Y-61448858D01*
X140883892Y-61395333D01*
X140883894Y-61395331D01*
X140883899Y-61395330D01*
X141038242Y-61316689D01*
X141178382Y-61214871D01*
X141300868Y-61092385D01*
X141402686Y-60952245D01*
X141481327Y-60797902D01*
X141481328Y-60797897D01*
X141481330Y-60797895D01*
X141534855Y-60633163D01*
X141534856Y-60633159D01*
X141561954Y-60462071D01*
X141561954Y-60288842D01*
X141561337Y-60284946D01*
X141851454Y-60284946D01*
X141851454Y-60465967D01*
X141879770Y-60644746D01*
X141935704Y-60816897D01*
X142017884Y-60978185D01*
X142059121Y-61034945D01*
X142533434Y-60560631D01*
X142535529Y-60568450D01*
X142601355Y-60682464D01*
X142694447Y-60775556D01*
X142808461Y-60841382D01*
X142816275Y-60843476D01*
X142341965Y-61317787D01*
X142398729Y-61359028D01*
X142560013Y-61441206D01*
X142732164Y-61497140D01*
X142910944Y-61525457D01*
X143091964Y-61525457D01*
X143270743Y-61497140D01*
X143442894Y-61441206D01*
X143604182Y-61359026D01*
X143660941Y-61317787D01*
X143186630Y-60843476D01*
X143194447Y-60841382D01*
X143308461Y-60775556D01*
X143401553Y-60682464D01*
X143467379Y-60568450D01*
X143469473Y-60560633D01*
X143943784Y-61034944D01*
X143985023Y-60978185D01*
X144067203Y-60816897D01*
X144123137Y-60644746D01*
X144151454Y-60465967D01*
X144151454Y-60288841D01*
X144440954Y-60288841D01*
X144440954Y-60462071D01*
X144468051Y-60633159D01*
X144468052Y-60633163D01*
X144521577Y-60797895D01*
X144521579Y-60797898D01*
X144590980Y-60934108D01*
X144600222Y-60952245D01*
X144702040Y-61092385D01*
X144824526Y-61214871D01*
X144964666Y-61316689D01*
X145119009Y-61395330D01*
X145119011Y-61395330D01*
X145119012Y-61395331D01*
X145119015Y-61395333D01*
X145283747Y-61448858D01*
X145283751Y-61448859D01*
X145454840Y-61475957D01*
X145454843Y-61475957D01*
X145628068Y-61475957D01*
X145799156Y-61448859D01*
X145799160Y-61448858D01*
X145963892Y-61395333D01*
X145963894Y-61395331D01*
X145963899Y-61395330D01*
X146118242Y-61316689D01*
X146258382Y-61214871D01*
X146380868Y-61092385D01*
X146482686Y-60952245D01*
X146561327Y-60797902D01*
X146561328Y-60797897D01*
X146561330Y-60797895D01*
X146614855Y-60633163D01*
X146614856Y-60633159D01*
X146641954Y-60462071D01*
X146641954Y-60288841D01*
X146641953Y-60288835D01*
X146614856Y-60117754D01*
X146614855Y-60117750D01*
X146561330Y-59953018D01*
X146561328Y-59953015D01*
X146561327Y-59953014D01*
X146561327Y-59953012D01*
X146482686Y-59798669D01*
X146380868Y-59658529D01*
X146258382Y-59536043D01*
X146118242Y-59434225D01*
X146118241Y-59434224D01*
X146118239Y-59434223D01*
X145963895Y-59355582D01*
X145963892Y-59355580D01*
X145799160Y-59302055D01*
X145799156Y-59302054D01*
X145628068Y-59274957D01*
X145628065Y-59274957D01*
X145454843Y-59274957D01*
X145454840Y-59274957D01*
X145283751Y-59302054D01*
X145283747Y-59302055D01*
X145119015Y-59355580D01*
X145119012Y-59355582D01*
X144964668Y-59434223D01*
X144824527Y-59536042D01*
X144702039Y-59658530D01*
X144600220Y-59798671D01*
X144521579Y-59953015D01*
X144521577Y-59953018D01*
X144468052Y-60117750D01*
X144468051Y-60117754D01*
X144440955Y-60288835D01*
X144440954Y-60288841D01*
X144151454Y-60288841D01*
X144151454Y-60284946D01*
X144123137Y-60106167D01*
X144067203Y-59934016D01*
X143985025Y-59772732D01*
X143943784Y-59715968D01*
X143469473Y-60190278D01*
X143467379Y-60182464D01*
X143401553Y-60068450D01*
X143308461Y-59975358D01*
X143194447Y-59909532D01*
X143186628Y-59907437D01*
X143660942Y-59433124D01*
X143604182Y-59391887D01*
X143442894Y-59309707D01*
X143270743Y-59253773D01*
X143091964Y-59225457D01*
X142910944Y-59225457D01*
X142732164Y-59253773D01*
X142560013Y-59309707D01*
X142398721Y-59391889D01*
X142341964Y-59433124D01*
X142816277Y-59907437D01*
X142808461Y-59909532D01*
X142694447Y-59975358D01*
X142601355Y-60068450D01*
X142535529Y-60182464D01*
X142533434Y-60190280D01*
X142059121Y-59715967D01*
X142017886Y-59772724D01*
X141935704Y-59934016D01*
X141879770Y-60106167D01*
X141851454Y-60284946D01*
X141561337Y-60284946D01*
X141534856Y-60117754D01*
X141534855Y-60117750D01*
X141481330Y-59953018D01*
X141481328Y-59953015D01*
X141481327Y-59953014D01*
X141481327Y-59953012D01*
X141402686Y-59798669D01*
X141300868Y-59658529D01*
X141178382Y-59536043D01*
X141038242Y-59434225D01*
X141038241Y-59434224D01*
X141038239Y-59434223D01*
X140883895Y-59355582D01*
X140883892Y-59355580D01*
X140719160Y-59302055D01*
X140719156Y-59302054D01*
X140548068Y-59274957D01*
X140548065Y-59274957D01*
X140374843Y-59274957D01*
X140374840Y-59274957D01*
X140203751Y-59302054D01*
X140203747Y-59302055D01*
X140039015Y-59355580D01*
X140039012Y-59355582D01*
X139884668Y-59434223D01*
X139744527Y-59536042D01*
X139622039Y-59658530D01*
X139520220Y-59798671D01*
X139441579Y-59953015D01*
X139441577Y-59953018D01*
X139388052Y-60117750D01*
X139388051Y-60117754D01*
X139360955Y-60288835D01*
X139360954Y-60288841D01*
X139021954Y-60288841D01*
X139021953Y-60288835D01*
X138994856Y-60117754D01*
X138994855Y-60117750D01*
X138941330Y-59953018D01*
X138941328Y-59953015D01*
X138941327Y-59953014D01*
X138941327Y-59953012D01*
X138862686Y-59798669D01*
X138760868Y-59658529D01*
X138638382Y-59536043D01*
X138498242Y-59434225D01*
X138498241Y-59434224D01*
X138498239Y-59434223D01*
X138343895Y-59355582D01*
X138343892Y-59355580D01*
X138179160Y-59302055D01*
X138179156Y-59302054D01*
X138008068Y-59274957D01*
X138008065Y-59274957D01*
X137834843Y-59274957D01*
X137834840Y-59274957D01*
X137663751Y-59302054D01*
X137663747Y-59302055D01*
X137499015Y-59355580D01*
X137499012Y-59355582D01*
X137344668Y-59434223D01*
X137204527Y-59536042D01*
X137082039Y-59658530D01*
X136980220Y-59798671D01*
X136901579Y-59953015D01*
X136901577Y-59953018D01*
X136848052Y-60117750D01*
X136848051Y-60117754D01*
X136820955Y-60288835D01*
X136820954Y-60288841D01*
X136481954Y-60288841D01*
X136481953Y-60288835D01*
X136454856Y-60117754D01*
X136454855Y-60117750D01*
X136401330Y-59953018D01*
X136401328Y-59953015D01*
X136401327Y-59953014D01*
X136401327Y-59953012D01*
X136322686Y-59798669D01*
X136220868Y-59658529D01*
X136098382Y-59536043D01*
X135958242Y-59434225D01*
X135958241Y-59434224D01*
X135958239Y-59434223D01*
X135803895Y-59355582D01*
X135803892Y-59355580D01*
X135639160Y-59302055D01*
X135639156Y-59302054D01*
X135468068Y-59274957D01*
X135468065Y-59274957D01*
X135294843Y-59274957D01*
X135294840Y-59274957D01*
X135123751Y-59302054D01*
X135123747Y-59302055D01*
X134959015Y-59355580D01*
X134959012Y-59355582D01*
X134804668Y-59434223D01*
X134664527Y-59536042D01*
X134542039Y-59658530D01*
X134440220Y-59798671D01*
X134361579Y-59953015D01*
X134361577Y-59953018D01*
X134308052Y-60117750D01*
X134308051Y-60117754D01*
X134280955Y-60288835D01*
X134280954Y-60288841D01*
X133941954Y-60288841D01*
X133941953Y-60288835D01*
X133914856Y-60117754D01*
X133914855Y-60117750D01*
X133861330Y-59953018D01*
X133861328Y-59953015D01*
X133861327Y-59953014D01*
X133861327Y-59953012D01*
X133782686Y-59798669D01*
X133680868Y-59658529D01*
X133558382Y-59536043D01*
X133418242Y-59434225D01*
X133418241Y-59434224D01*
X133418239Y-59434223D01*
X133263895Y-59355582D01*
X133263892Y-59355580D01*
X133099160Y-59302055D01*
X133099156Y-59302054D01*
X132928068Y-59274957D01*
X132928065Y-59274957D01*
X132754843Y-59274957D01*
X132754840Y-59274957D01*
X132583751Y-59302054D01*
X132583747Y-59302055D01*
X132419015Y-59355580D01*
X132419012Y-59355582D01*
X132264668Y-59434223D01*
X132124527Y-59536042D01*
X132002039Y-59658530D01*
X131900220Y-59798671D01*
X131821579Y-59953015D01*
X131821577Y-59953018D01*
X131768052Y-60117750D01*
X131768051Y-60117754D01*
X131740955Y-60288835D01*
X131740954Y-60288841D01*
X131400000Y-60288841D01*
X131400000Y-60030001D01*
X131399999Y-60030000D01*
X130711880Y-60030000D01*
X130715925Y-60022993D01*
X130750000Y-59895826D01*
X130750000Y-59764174D01*
X130715925Y-59637007D01*
X130711880Y-59630000D01*
X131399998Y-59630000D01*
X131399999Y-59629999D01*
X131399999Y-58935210D01*
X131399998Y-58935208D01*
X131396232Y-58902726D01*
X131399188Y-58902383D01*
X131401512Y-58854390D01*
X131439827Y-58806687D01*
X131494077Y-58790500D01*
X146356142Y-58790500D01*
X146356144Y-58790500D01*
X146445288Y-58766614D01*
X146525212Y-58720470D01*
X146916184Y-58329496D01*
X146970701Y-58301719D01*
X146986188Y-58300500D01*
X147072474Y-58300500D01*
X147072475Y-58300500D01*
X147212485Y-58262984D01*
X147212487Y-58262982D01*
X147212489Y-58262982D01*
X147338010Y-58190512D01*
X147338010Y-58190511D01*
X147338015Y-58190509D01*
X147440509Y-58088015D01*
X147485845Y-58009491D01*
X147512982Y-57962489D01*
X147512982Y-57962487D01*
X147512984Y-57962485D01*
X147550500Y-57822475D01*
X147550500Y-57677525D01*
X147512984Y-57537515D01*
X147512982Y-57537512D01*
X147512982Y-57537510D01*
X147440512Y-57411989D01*
X147440510Y-57411987D01*
X147440509Y-57411985D01*
X147338015Y-57309491D01*
X147338012Y-57309489D01*
X147338010Y-57309487D01*
X147212488Y-57237017D01*
X147212489Y-57237017D01*
X147139744Y-57217525D01*
X147072475Y-57199500D01*
X146927525Y-57199500D01*
X146865790Y-57216041D01*
X146787510Y-57237017D01*
X146661989Y-57309487D01*
X146559487Y-57411989D01*
X146487017Y-57537510D01*
X146449500Y-57677525D01*
X146449500Y-57763810D01*
X146430593Y-57822001D01*
X146420504Y-57833814D01*
X146193814Y-58060504D01*
X146139297Y-58088281D01*
X146123810Y-58089500D01*
X131223721Y-58089500D01*
X131165530Y-58070593D01*
X131129566Y-58021093D01*
X131129566Y-57959907D01*
X131143628Y-57932309D01*
X131167465Y-57899500D01*
X131191232Y-57866788D01*
X131269873Y-57712445D01*
X131271023Y-57708904D01*
X131306989Y-57659406D01*
X131365177Y-57640500D01*
X135320968Y-57640500D01*
X135379159Y-57659407D01*
X135390971Y-57669496D01*
X135451984Y-57730508D01*
X135451989Y-57730512D01*
X135577511Y-57802982D01*
X135577512Y-57802982D01*
X135577515Y-57802984D01*
X135717525Y-57840500D01*
X135717526Y-57840500D01*
X135862474Y-57840500D01*
X135862475Y-57840500D01*
X136002485Y-57802984D01*
X136002487Y-57802982D01*
X136002489Y-57802982D01*
X136128010Y-57730512D01*
X136128010Y-57730511D01*
X136128015Y-57730509D01*
X136230509Y-57628015D01*
X136247830Y-57598015D01*
X136302982Y-57502489D01*
X136302982Y-57502487D01*
X136302984Y-57502485D01*
X136340500Y-57362475D01*
X136340500Y-57217525D01*
X136302984Y-57077515D01*
X136302982Y-57077512D01*
X136302982Y-57077510D01*
X136230512Y-56951989D01*
X136230510Y-56951987D01*
X136230509Y-56951985D01*
X136128015Y-56849491D01*
X136128012Y-56849489D01*
X136128010Y-56849487D01*
X136002488Y-56777017D01*
X136002489Y-56777017D01*
X135972896Y-56769087D01*
X135862475Y-56739500D01*
X135717525Y-56739500D01*
X135655790Y-56756041D01*
X135577510Y-56777017D01*
X135451989Y-56849487D01*
X135451984Y-56849491D01*
X135390971Y-56910504D01*
X135336454Y-56938281D01*
X135320968Y-56939500D01*
X131365177Y-56939500D01*
X131306986Y-56920593D01*
X131271023Y-56871095D01*
X131269872Y-56867553D01*
X131239266Y-56807485D01*
X131191232Y-56713212D01*
X131143627Y-56647690D01*
X131124721Y-56589500D01*
X131143628Y-56531309D01*
X131193129Y-56495345D01*
X131223721Y-56490500D01*
X144706142Y-56490500D01*
X144706144Y-56490500D01*
X144795288Y-56466614D01*
X144875212Y-56420470D01*
X145466186Y-55829496D01*
X145520703Y-55801719D01*
X145536190Y-55800500D01*
X145622474Y-55800500D01*
X145622475Y-55800500D01*
X145762485Y-55762984D01*
X145762487Y-55762982D01*
X145762489Y-55762982D01*
X145888010Y-55690512D01*
X145888010Y-55690511D01*
X145888015Y-55690509D01*
X145990509Y-55588015D01*
X146012746Y-55549500D01*
X146062982Y-55462489D01*
X146062982Y-55462487D01*
X146062984Y-55462485D01*
X146100500Y-55322475D01*
X146100500Y-55177525D01*
X146062984Y-55037515D01*
X146062982Y-55037512D01*
X146062982Y-55037510D01*
X145990512Y-54911989D01*
X145990510Y-54911987D01*
X145990509Y-54911985D01*
X145888015Y-54809491D01*
X145888012Y-54809489D01*
X145888010Y-54809487D01*
X145762488Y-54737017D01*
X145762489Y-54737017D01*
X145732896Y-54729087D01*
X145622475Y-54699500D01*
X145477525Y-54699500D01*
X145415790Y-54716041D01*
X145337510Y-54737017D01*
X145211989Y-54809487D01*
X145109487Y-54911989D01*
X145037017Y-55037510D01*
X144999500Y-55177525D01*
X144999500Y-55263810D01*
X144980593Y-55322001D01*
X144970504Y-55333814D01*
X144543814Y-55760504D01*
X144489297Y-55788281D01*
X144473810Y-55789500D01*
X134182258Y-55789500D01*
X134124067Y-55770593D01*
X134088103Y-55721093D01*
X134088103Y-55659907D01*
X134096521Y-55641001D01*
X134112982Y-55612488D01*
X134112981Y-55612488D01*
X134112984Y-55612485D01*
X134150500Y-55472475D01*
X134150500Y-55327525D01*
X134112984Y-55187515D01*
X134112982Y-55187512D01*
X134112982Y-55187510D01*
X134040512Y-55061989D01*
X134040510Y-55061987D01*
X134040509Y-55061985D01*
X133938015Y-54959491D01*
X133938012Y-54959489D01*
X133938010Y-54959487D01*
X133812488Y-54887017D01*
X133812489Y-54887017D01*
X133773661Y-54876613D01*
X133672475Y-54849500D01*
X133527525Y-54849500D01*
X133465790Y-54866041D01*
X133387510Y-54887017D01*
X133261989Y-54959487D01*
X133261984Y-54959491D01*
X133200971Y-55020504D01*
X133146454Y-55048281D01*
X133130968Y-55049500D01*
X131432696Y-55049500D01*
X131374505Y-55030593D01*
X131338541Y-54981093D01*
X131334915Y-54935013D01*
X131350500Y-54836614D01*
X131350500Y-54663385D01*
X131323402Y-54492297D01*
X131323401Y-54492293D01*
X131269876Y-54327561D01*
X131269874Y-54327558D01*
X131269873Y-54327557D01*
X131269873Y-54327555D01*
X131191232Y-54173212D01*
X131107301Y-54057691D01*
X131088393Y-53999500D01*
X131107300Y-53941310D01*
X131156800Y-53905346D01*
X131187393Y-53900500D01*
X135296142Y-53900500D01*
X135296144Y-53900500D01*
X135385288Y-53876614D01*
X135465212Y-53830470D01*
X135565700Y-53729981D01*
X135666187Y-53629496D01*
X135720703Y-53601719D01*
X135736190Y-53600500D01*
X135822474Y-53600500D01*
X135822475Y-53600500D01*
X135962485Y-53562984D01*
X135962487Y-53562982D01*
X135962489Y-53562982D01*
X136088010Y-53490512D01*
X136088010Y-53490511D01*
X136088015Y-53490509D01*
X136190509Y-53388015D01*
X136248379Y-53287782D01*
X136262982Y-53262489D01*
X136262982Y-53262487D01*
X136262984Y-53262485D01*
X136300500Y-53122475D01*
X136300500Y-52977525D01*
X136262984Y-52837515D01*
X136262982Y-52837512D01*
X136262982Y-52837510D01*
X136190512Y-52711989D01*
X136190510Y-52711987D01*
X136190509Y-52711985D01*
X136088015Y-52609491D01*
X136088012Y-52609489D01*
X136088010Y-52609487D01*
X135962488Y-52537017D01*
X135962489Y-52537017D01*
X135932896Y-52529087D01*
X135822475Y-52499500D01*
X135677525Y-52499500D01*
X135615790Y-52516041D01*
X135537510Y-52537017D01*
X135411989Y-52609487D01*
X135309487Y-52711989D01*
X135237017Y-52837510D01*
X135199500Y-52977525D01*
X135199500Y-53063810D01*
X135197031Y-53071407D01*
X135198281Y-53079297D01*
X135187756Y-53099952D01*
X135180593Y-53122001D01*
X135170504Y-53133814D01*
X135133814Y-53170504D01*
X135079297Y-53198281D01*
X135063810Y-53199500D01*
X131055849Y-53199500D01*
X130997658Y-53180593D01*
X130961694Y-53131093D01*
X130961694Y-53069907D01*
X130985843Y-53030498D01*
X131089414Y-52926928D01*
X131191232Y-52786788D01*
X131269873Y-52632445D01*
X131269874Y-52632440D01*
X131269876Y-52632438D01*
X131323401Y-52467706D01*
X131323402Y-52467702D01*
X131350500Y-52296614D01*
X131350500Y-52123385D01*
X131323402Y-51952297D01*
X131323401Y-51952293D01*
X131269876Y-51787561D01*
X131269874Y-51787558D01*
X131269873Y-51787557D01*
X131269873Y-51787555D01*
X131191232Y-51633212D01*
X131089414Y-51493072D01*
X130966928Y-51370586D01*
X130966924Y-51370583D01*
X130966922Y-51370581D01*
X130841687Y-51279592D01*
X130805723Y-51230092D01*
X130805724Y-51168907D01*
X130841688Y-51119407D01*
X130899878Y-51100500D01*
X131396142Y-51100500D01*
X131396144Y-51100500D01*
X131485288Y-51076614D01*
X131565212Y-51030470D01*
X132480470Y-50115212D01*
X132503126Y-50075968D01*
X132533635Y-50045461D01*
X132532866Y-50044459D01*
X132538005Y-50040514D01*
X132538015Y-50040509D01*
X132640509Y-49938015D01*
X132640512Y-49938010D01*
X132712982Y-49812489D01*
X132712983Y-49812486D01*
X132712984Y-49812485D01*
X132750500Y-49672475D01*
X132750500Y-49527525D01*
X132712984Y-49387515D01*
X132712982Y-49387512D01*
X132712982Y-49387510D01*
X132640512Y-49261989D01*
X132640510Y-49261987D01*
X132640509Y-49261985D01*
X132538015Y-49159491D01*
X132538012Y-49159489D01*
X132538010Y-49159487D01*
X132412488Y-49087017D01*
X132412489Y-49087017D01*
X132312922Y-49060338D01*
X132272475Y-49049500D01*
X132127525Y-49049500D01*
X132099655Y-49056967D01*
X132075123Y-49063541D01*
X132014021Y-49060338D01*
X131966471Y-49021833D01*
X131950500Y-48967914D01*
X131950500Y-48837525D01*
X131937902Y-48790509D01*
X131912984Y-48697515D01*
X131912982Y-48697512D01*
X131912982Y-48697510D01*
X131840512Y-48571989D01*
X131840510Y-48571987D01*
X131840509Y-48571985D01*
X131738015Y-48469491D01*
X131738012Y-48469489D01*
X131738010Y-48469487D01*
X131612488Y-48397017D01*
X131612489Y-48397017D01*
X131511265Y-48369894D01*
X131472475Y-48359500D01*
X131327525Y-48359500D01*
X131288735Y-48369894D01*
X131187503Y-48397019D01*
X131187377Y-48397072D01*
X131187278Y-48397079D01*
X131181247Y-48398696D01*
X131180947Y-48397577D01*
X131126380Y-48401868D01*
X131074214Y-48369894D01*
X131050804Y-48313364D01*
X131050500Y-48305605D01*
X131050500Y-48277525D01*
X131012984Y-48137515D01*
X131012982Y-48137512D01*
X131012982Y-48137510D01*
X130940512Y-48011989D01*
X130940510Y-48011987D01*
X130940509Y-48011985D01*
X130838015Y-47909491D01*
X130838012Y-47909489D01*
X130838010Y-47909487D01*
X130712488Y-47837017D01*
X130712489Y-47837017D01*
X130682896Y-47829087D01*
X130572475Y-47799500D01*
X130427525Y-47799500D01*
X130365790Y-47816041D01*
X130287510Y-47837017D01*
X130161989Y-47909487D01*
X130059487Y-48011989D01*
X129987017Y-48137510D01*
X129949500Y-48277525D01*
X129949500Y-48363810D01*
X129930593Y-48422001D01*
X129920504Y-48433814D01*
X127601546Y-50752771D01*
X127547029Y-50780548D01*
X127486597Y-50770977D01*
X127443332Y-50727712D01*
X127433761Y-50667280D01*
X127440076Y-50644887D01*
X127462051Y-50591835D01*
X127463647Y-50583814D01*
X127477571Y-50513810D01*
X127500500Y-50398541D01*
X127500500Y-48501459D01*
X127462051Y-48308165D01*
X127386632Y-48126086D01*
X127277139Y-47962218D01*
X127137782Y-47822861D01*
X127001522Y-47731815D01*
X126963643Y-47683765D01*
X126961241Y-47622627D01*
X126995234Y-47571753D01*
X127052638Y-47550576D01*
X127056524Y-47550500D01*
X127763810Y-47550500D01*
X127822001Y-47569407D01*
X127833814Y-47579496D01*
X128120504Y-47866186D01*
X128148281Y-47920703D01*
X128149500Y-47936190D01*
X128149500Y-48022475D01*
X128162897Y-48072474D01*
X128187017Y-48162489D01*
X128259487Y-48288010D01*
X128259489Y-48288012D01*
X128259491Y-48288015D01*
X128361985Y-48390509D01*
X128361987Y-48390510D01*
X128361989Y-48390512D01*
X128487511Y-48462982D01*
X128487512Y-48462982D01*
X128487515Y-48462984D01*
X128627525Y-48500500D01*
X128627526Y-48500500D01*
X128772474Y-48500500D01*
X128772475Y-48500500D01*
X128912485Y-48462984D01*
X128912487Y-48462982D01*
X128912489Y-48462982D01*
X129038010Y-48390512D01*
X129038010Y-48390511D01*
X129038015Y-48390509D01*
X129140509Y-48288015D01*
X129140512Y-48288010D01*
X129212982Y-48162489D01*
X129212982Y-48162487D01*
X129212984Y-48162485D01*
X129250500Y-48022475D01*
X129250500Y-47877525D01*
X129212984Y-47737515D01*
X129212982Y-47737512D01*
X129212982Y-47737510D01*
X129140512Y-47611989D01*
X129140510Y-47611987D01*
X129140509Y-47611985D01*
X129038015Y-47509491D01*
X129038012Y-47509489D01*
X129038010Y-47509487D01*
X128912488Y-47437017D01*
X128912489Y-47437017D01*
X128850862Y-47420504D01*
X128772475Y-47399500D01*
X128772474Y-47399500D01*
X128686190Y-47399500D01*
X128627999Y-47380593D01*
X128616187Y-47370504D01*
X128165211Y-46919529D01*
X128085291Y-46873387D01*
X128085289Y-46873386D01*
X128084627Y-46873209D01*
X128084628Y-46873209D01*
X128084620Y-46873207D01*
X127996144Y-46849500D01*
X127996142Y-46849500D01*
X125064395Y-46849500D01*
X125006204Y-46830593D01*
X124970240Y-46781093D01*
X124970240Y-46719907D01*
X124972928Y-46712623D01*
X124972980Y-46712496D01*
X124972982Y-46712488D01*
X124972984Y-46712485D01*
X125010500Y-46572475D01*
X125010500Y-46427525D01*
X124972984Y-46287515D01*
X124972982Y-46287512D01*
X124972982Y-46287510D01*
X124900512Y-46161989D01*
X124900510Y-46161987D01*
X124900509Y-46161985D01*
X124798015Y-46059491D01*
X124798012Y-46059489D01*
X124798010Y-46059487D01*
X124672488Y-45987017D01*
X124672489Y-45987017D01*
X124642896Y-45979087D01*
X124532475Y-45949500D01*
X124387525Y-45949500D01*
X124325790Y-45966041D01*
X124247510Y-45987017D01*
X124121989Y-46059487D01*
X124121984Y-46059491D01*
X124060971Y-46120504D01*
X124006454Y-46148281D01*
X123990968Y-46149500D01*
X117489500Y-46149500D01*
X117431309Y-46130593D01*
X117395345Y-46081093D01*
X117390500Y-46050500D01*
X117390500Y-45625327D01*
X117390498Y-45625315D01*
X117387015Y-45607808D01*
X117375966Y-45552260D01*
X117327768Y-45480125D01*
X117320602Y-45469400D01*
X117320599Y-45469397D01*
X117237742Y-45414035D01*
X117237740Y-45414034D01*
X117237737Y-45414033D01*
X117237736Y-45414033D01*
X117164684Y-45399501D01*
X117164674Y-45399500D01*
X115415326Y-45399500D01*
X115415325Y-45399500D01*
X115415315Y-45399501D01*
X115342263Y-45414033D01*
X115342257Y-45414035D01*
X115259400Y-45469397D01*
X115259397Y-45469400D01*
X115204035Y-45552257D01*
X115204033Y-45552263D01*
X115189501Y-45625315D01*
X115189500Y-45625327D01*
X115189500Y-47204810D01*
X115170593Y-47263001D01*
X115121093Y-47298965D01*
X115059907Y-47298965D01*
X115020496Y-47274814D01*
X114786389Y-47040707D01*
X114758612Y-46986190D01*
X114768182Y-46925763D01*
X114769873Y-46922445D01*
X114815233Y-46782842D01*
X114823402Y-46757702D01*
X114850500Y-46586614D01*
X114850500Y-46413384D01*
X114850499Y-46413378D01*
X114823402Y-46242297D01*
X114823401Y-46242293D01*
X114769876Y-46077561D01*
X114769874Y-46077558D01*
X114769873Y-46077557D01*
X114769873Y-46077555D01*
X114691232Y-45923212D01*
X114589414Y-45783072D01*
X114466928Y-45660586D01*
X114326788Y-45558768D01*
X114326787Y-45558767D01*
X114326785Y-45558766D01*
X114172441Y-45480125D01*
X114172438Y-45480123D01*
X114007706Y-45426598D01*
X114007702Y-45426597D01*
X113836614Y-45399500D01*
X113836611Y-45399500D01*
X113663389Y-45399500D01*
X113663386Y-45399500D01*
X113492297Y-45426597D01*
X113492293Y-45426598D01*
X113327561Y-45480123D01*
X113327558Y-45480125D01*
X113173214Y-45558766D01*
X113033073Y-45660585D01*
X112910585Y-45783073D01*
X112808766Y-45923214D01*
X112730125Y-46077558D01*
X112730123Y-46077561D01*
X112676598Y-46242293D01*
X112676597Y-46242297D01*
X112649501Y-46413378D01*
X112649500Y-46413384D01*
X112649500Y-46586614D01*
X112676597Y-46757702D01*
X112676598Y-46757706D01*
X112730123Y-46922438D01*
X112730125Y-46922441D01*
X112779580Y-47019504D01*
X112808768Y-47076788D01*
X112910586Y-47216928D01*
X113033072Y-47339414D01*
X113173212Y-47441232D01*
X113327555Y-47519873D01*
X113327557Y-47519873D01*
X113327558Y-47519874D01*
X113327561Y-47519876D01*
X113492293Y-47573401D01*
X113492297Y-47573402D01*
X113663386Y-47600500D01*
X113663389Y-47600500D01*
X113836614Y-47600500D01*
X114007702Y-47573402D01*
X114074434Y-47551719D01*
X114172445Y-47519873D01*
X114175747Y-47518190D01*
X114236174Y-47508609D01*
X114290695Y-47536378D01*
X114290707Y-47536389D01*
X114934788Y-48180470D01*
X115014712Y-48226614D01*
X115103856Y-48250500D01*
X115103858Y-48250500D01*
X117496142Y-48250500D01*
X117496144Y-48250500D01*
X117585288Y-48226614D01*
X117665212Y-48180470D01*
X118266186Y-47579496D01*
X118320703Y-47551719D01*
X118336190Y-47550500D01*
X118943476Y-47550500D01*
X119001667Y-47569407D01*
X119037631Y-47618907D01*
X119037631Y-47680093D01*
X119001667Y-47729593D01*
X118998478Y-47731815D01*
X118862218Y-47822861D01*
X118862214Y-47822864D01*
X118722864Y-47962214D01*
X118722861Y-47962218D01*
X118613367Y-48126086D01*
X118537949Y-48308163D01*
X118537949Y-48308165D01*
X118499500Y-48501456D01*
X118499500Y-50398543D01*
X118537948Y-50591831D01*
X118537949Y-50591836D01*
X118613367Y-50773913D01*
X118649699Y-50828288D01*
X118722861Y-50937782D01*
X118862218Y-51077139D01*
X119026086Y-51186632D01*
X119208165Y-51262051D01*
X119401459Y-51300500D01*
X119401460Y-51300500D01*
X119598540Y-51300500D01*
X119598541Y-51300500D01*
X119791835Y-51262051D01*
X119973914Y-51186632D01*
X120137782Y-51077139D01*
X120277139Y-50937782D01*
X120386632Y-50773914D01*
X120462051Y-50591835D01*
X120463647Y-50583814D01*
X120477571Y-50513810D01*
X120500500Y-50398541D01*
X120500500Y-48501459D01*
X120462051Y-48308165D01*
X120386632Y-48126086D01*
X120277139Y-47962218D01*
X120137782Y-47822861D01*
X120001522Y-47731815D01*
X119963643Y-47683765D01*
X119961241Y-47622627D01*
X119995234Y-47571753D01*
X120052638Y-47550576D01*
X120056524Y-47550500D01*
X125943476Y-47550500D01*
X126001667Y-47569407D01*
X126037631Y-47618907D01*
X126037631Y-47680093D01*
X126001667Y-47729593D01*
X125998478Y-47731815D01*
X125862218Y-47822861D01*
X125862214Y-47822864D01*
X125722864Y-47962214D01*
X125722861Y-47962218D01*
X125613367Y-48126086D01*
X125537949Y-48308163D01*
X125537949Y-48308165D01*
X125499500Y-48501456D01*
X125499500Y-50398543D01*
X125537948Y-50591831D01*
X125537949Y-50591836D01*
X125613367Y-50773913D01*
X125649699Y-50828288D01*
X125722861Y-50937782D01*
X125862218Y-51077139D01*
X126026086Y-51186632D01*
X126208165Y-51262051D01*
X126401459Y-51300500D01*
X126401460Y-51300500D01*
X126598540Y-51300500D01*
X126598541Y-51300500D01*
X126791835Y-51262051D01*
X126844883Y-51240077D01*
X126905878Y-51235277D01*
X126958047Y-51267246D01*
X126981462Y-51323774D01*
X126967178Y-51383269D01*
X126952771Y-51401546D01*
X123433814Y-54920504D01*
X123379297Y-54948281D01*
X123363810Y-54949500D01*
X123278260Y-54949500D01*
X123240974Y-54959491D01*
X123138245Y-54987017D01*
X123012724Y-55059487D01*
X122910222Y-55161989D01*
X122837752Y-55287510D01*
X122800235Y-55427525D01*
X122800235Y-55572477D01*
X122814276Y-55624876D01*
X122811075Y-55685977D01*
X122772570Y-55733528D01*
X122718650Y-55749500D01*
X121609032Y-55749500D01*
X121550841Y-55730593D01*
X121539029Y-55720504D01*
X121478015Y-55659491D01*
X121478010Y-55659487D01*
X121352488Y-55587017D01*
X121352489Y-55587017D01*
X121298218Y-55572475D01*
X121212475Y-55549500D01*
X121067525Y-55549500D01*
X121005790Y-55566041D01*
X120927510Y-55587017D01*
X120801989Y-55659487D01*
X120699487Y-55761989D01*
X120627017Y-55887510D01*
X120589500Y-56027525D01*
X120589500Y-56172477D01*
X120603541Y-56224876D01*
X120600340Y-56285977D01*
X120561835Y-56333528D01*
X120507915Y-56349500D01*
X119259032Y-56349500D01*
X119200841Y-56330593D01*
X119189029Y-56320504D01*
X119128015Y-56259491D01*
X119128010Y-56259487D01*
X119002488Y-56187017D01*
X119002489Y-56187017D01*
X118881101Y-56154491D01*
X118862475Y-56149500D01*
X118717525Y-56149500D01*
X118698899Y-56154491D01*
X118577510Y-56187017D01*
X118451989Y-56259487D01*
X118349487Y-56361989D01*
X118277017Y-56487510D01*
X118239500Y-56627525D01*
X118239500Y-56772477D01*
X118253541Y-56824876D01*
X118250340Y-56885977D01*
X118211835Y-56933528D01*
X118157915Y-56949500D01*
X117199031Y-56949500D01*
X117140840Y-56930593D01*
X117129033Y-56920509D01*
X117028015Y-56819491D01*
X117028012Y-56819489D01*
X117028010Y-56819487D01*
X116902488Y-56747017D01*
X116902489Y-56747017D01*
X116872896Y-56739087D01*
X116762475Y-56709500D01*
X116617525Y-56709500D01*
X116555790Y-56726041D01*
X116477510Y-56747017D01*
X116351989Y-56819487D01*
X116249487Y-56921989D01*
X116177017Y-57047510D01*
X116177016Y-57047515D01*
X116139500Y-57187525D01*
X116139500Y-57332475D01*
X116151327Y-57376614D01*
X116177017Y-57472489D01*
X116249487Y-57598010D01*
X116249489Y-57598012D01*
X116249491Y-57598015D01*
X116351985Y-57700509D01*
X116351987Y-57700510D01*
X116351989Y-57700512D01*
X116477511Y-57772982D01*
X116477512Y-57772982D01*
X116477515Y-57772984D01*
X116617525Y-57810500D01*
X116617526Y-57810500D01*
X116762474Y-57810500D01*
X116762475Y-57810500D01*
X116902485Y-57772984D01*
X116902487Y-57772982D01*
X116902489Y-57772982D01*
X117028010Y-57700512D01*
X117028010Y-57700511D01*
X117028015Y-57700509D01*
X117049029Y-57679494D01*
X117103544Y-57651719D01*
X117119031Y-57650500D01*
X117964811Y-57650500D01*
X118023002Y-57669407D01*
X118058966Y-57718907D01*
X118058966Y-57780093D01*
X118034815Y-57819504D01*
X118034790Y-57819528D01*
X118034788Y-57819530D01*
X116195789Y-59658529D01*
X114383814Y-61470504D01*
X114329297Y-61498281D01*
X114313810Y-61499500D01*
X104869031Y-61499500D01*
X104810840Y-61480593D01*
X104799033Y-61470509D01*
X104788015Y-61459491D01*
X104788012Y-61459489D01*
X104788010Y-61459487D01*
X104662488Y-61387017D01*
X104662489Y-61387017D01*
X104566475Y-61361290D01*
X104522475Y-61349500D01*
X104377525Y-61349500D01*
X104333525Y-61361290D01*
X104237510Y-61387017D01*
X104111989Y-61459487D01*
X104009487Y-61561989D01*
X103937017Y-61687510D01*
X103899500Y-61827525D01*
X103899500Y-61972477D01*
X103913541Y-62024876D01*
X103910340Y-62085977D01*
X103871835Y-62133528D01*
X103817915Y-62149500D01*
X102817666Y-62149500D01*
X102728522Y-62173386D01*
X102728521Y-62173386D01*
X102728519Y-62173387D01*
X102648599Y-62219529D01*
X102648597Y-62219531D01*
X101550707Y-63317419D01*
X101496191Y-63345196D01*
X101435765Y-63335628D01*
X101432445Y-63333936D01*
X101432438Y-63333933D01*
X101267706Y-63280408D01*
X101267702Y-63280407D01*
X101096614Y-63253310D01*
X101096611Y-63253310D01*
X100923389Y-63253310D01*
X100923385Y-63253310D01*
X100890425Y-63258530D01*
X100829993Y-63248958D01*
X100786729Y-63205693D01*
X100777158Y-63145261D01*
X100804933Y-63090747D01*
X105066186Y-58829496D01*
X105120703Y-58801719D01*
X105136190Y-58800500D01*
X108030968Y-58800500D01*
X108089159Y-58819407D01*
X108100971Y-58829496D01*
X108161984Y-58890508D01*
X108161989Y-58890512D01*
X108287511Y-58962982D01*
X108287512Y-58962982D01*
X108287515Y-58962984D01*
X108427525Y-59000500D01*
X108427526Y-59000500D01*
X108572474Y-59000500D01*
X108572475Y-59000500D01*
X108712485Y-58962984D01*
X108712487Y-58962982D01*
X108712489Y-58962982D01*
X108838010Y-58890512D01*
X108838010Y-58890511D01*
X108838015Y-58890509D01*
X108940509Y-58788015D01*
X108952865Y-58766614D01*
X109012982Y-58662489D01*
X109012982Y-58662487D01*
X109012984Y-58662485D01*
X109050500Y-58522475D01*
X109050500Y-58377525D01*
X109012984Y-58237515D01*
X109012982Y-58237512D01*
X109012982Y-58237510D01*
X108940512Y-58111989D01*
X108940510Y-58111987D01*
X108940509Y-58111985D01*
X108838015Y-58009491D01*
X108838012Y-58009489D01*
X108838010Y-58009487D01*
X108712488Y-57937017D01*
X108712489Y-57937017D01*
X108682896Y-57929087D01*
X108572475Y-57899500D01*
X108427525Y-57899500D01*
X108365790Y-57916041D01*
X108287510Y-57937017D01*
X108161989Y-58009487D01*
X108161984Y-58009491D01*
X108100971Y-58070504D01*
X108046454Y-58098281D01*
X108030968Y-58099500D01*
X104903856Y-58099500D01*
X104815380Y-58123207D01*
X104815373Y-58123209D01*
X104814710Y-58123386D01*
X104814708Y-58123387D01*
X104734790Y-58169528D01*
X104734788Y-58169530D01*
X99369530Y-63534788D01*
X99334240Y-63595913D01*
X99323386Y-63614712D01*
X99308443Y-63670483D01*
X99299500Y-63703857D01*
X99299500Y-64571969D01*
X99280593Y-64630160D01*
X99231093Y-64666124D01*
X99169907Y-64666124D01*
X99130498Y-64641974D01*
X99068015Y-64579491D01*
X99068012Y-64579489D01*
X99068010Y-64579487D01*
X98942488Y-64507017D01*
X98942489Y-64507017D01*
X98912896Y-64499087D01*
X98802475Y-64469500D01*
X98657525Y-64469500D01*
X98617865Y-64480127D01*
X98517510Y-64507017D01*
X98391989Y-64579487D01*
X98289487Y-64681989D01*
X98217017Y-64807510D01*
X98179500Y-64947525D01*
X95580500Y-64947525D01*
X95580500Y-64651459D01*
X95542051Y-64458165D01*
X95466632Y-64276086D01*
X95357139Y-64112218D01*
X95217782Y-63972861D01*
X95060281Y-63867622D01*
X95053913Y-63863367D01*
X94871835Y-63787949D01*
X94678543Y-63749500D01*
X94678541Y-63749500D01*
X94481459Y-63749500D01*
X94481456Y-63749500D01*
X94288165Y-63787949D01*
X94288163Y-63787949D01*
X94106086Y-63863367D01*
X93942218Y-63972861D01*
X93942214Y-63972864D01*
X93802864Y-64112214D01*
X93802861Y-64112218D01*
X93693367Y-64276086D01*
X93617949Y-64458163D01*
X93617949Y-64458165D01*
X93579500Y-64651456D01*
X93090000Y-64651456D01*
X93090000Y-64646586D01*
X93089999Y-64646581D01*
X93049650Y-64443727D01*
X92970498Y-64252639D01*
X92970491Y-64252625D01*
X92855594Y-64080670D01*
X92709329Y-63934405D01*
X92537374Y-63819508D01*
X92537360Y-63819501D01*
X92346277Y-63740351D01*
X92346269Y-63740349D01*
X92240000Y-63719211D01*
X92240000Y-64788120D01*
X92232993Y-64784075D01*
X92105826Y-64750000D01*
X91974174Y-64750000D01*
X91847007Y-64784075D01*
X91840000Y-64788120D01*
X91840000Y-63719211D01*
X91839999Y-63719211D01*
X91733730Y-63740349D01*
X91733722Y-63740351D01*
X91542639Y-63819501D01*
X91542625Y-63819508D01*
X91370670Y-63934405D01*
X91224405Y-64080670D01*
X91109508Y-64252625D01*
X91109501Y-64252639D01*
X91030349Y-64443727D01*
X90990000Y-64646581D01*
X90500500Y-64646581D01*
X90500500Y-63975326D01*
X90485966Y-63902260D01*
X90430601Y-63819399D01*
X90430599Y-63819397D01*
X90347742Y-63764035D01*
X90347740Y-63764034D01*
X90347737Y-63764033D01*
X90347736Y-63764033D01*
X90274684Y-63749501D01*
X90274674Y-63749500D01*
X88725326Y-63749500D01*
X88725325Y-63749500D01*
X88725315Y-63749501D01*
X88652263Y-63764033D01*
X88652257Y-63764035D01*
X88569400Y-63819397D01*
X88569397Y-63819400D01*
X88514035Y-63902257D01*
X88514033Y-63902263D01*
X88499501Y-63975315D01*
X88499500Y-63975327D01*
X84482426Y-63975327D01*
X84480228Y-63051024D01*
X84498997Y-62992791D01*
X84548412Y-62956709D01*
X84578993Y-62951791D01*
X98020268Y-62920350D01*
X98078503Y-62939121D01*
X98114583Y-62988537D01*
X98119500Y-63019350D01*
X98119500Y-63022474D01*
X98157017Y-63162489D01*
X98229487Y-63288010D01*
X98229489Y-63288012D01*
X98229491Y-63288015D01*
X98331985Y-63390509D01*
X98331987Y-63390510D01*
X98331989Y-63390512D01*
X98457511Y-63462982D01*
X98457512Y-63462982D01*
X98457515Y-63462984D01*
X98597525Y-63500500D01*
X98597526Y-63500500D01*
X98742474Y-63500500D01*
X98742475Y-63500500D01*
X98882485Y-63462984D01*
X98882487Y-63462982D01*
X98882489Y-63462982D01*
X99008010Y-63390512D01*
X99008010Y-63390511D01*
X99008015Y-63390509D01*
X99110509Y-63288015D01*
X99114901Y-63280408D01*
X99182982Y-63162489D01*
X99182982Y-63162487D01*
X99182984Y-63162485D01*
X99220500Y-63022475D01*
X99220500Y-62986899D01*
X99239407Y-62928708D01*
X99249490Y-62916901D01*
X100145910Y-62020481D01*
X100145913Y-62020480D01*
X100220480Y-61945913D01*
X100273207Y-61854587D01*
X100280458Y-61827525D01*
X100300501Y-61752727D01*
X100300501Y-61647273D01*
X100300501Y-61641211D01*
X100300500Y-61641193D01*
X100300500Y-56770076D01*
X100319407Y-56711885D01*
X100368907Y-56675921D01*
X100430093Y-56675921D01*
X100479593Y-56711885D01*
X100495125Y-56744450D01*
X100501992Y-56770076D01*
X100512017Y-56807489D01*
X100584487Y-56933010D01*
X100584489Y-56933012D01*
X100584491Y-56933015D01*
X100686985Y-57035509D01*
X100686987Y-57035510D01*
X100686989Y-57035512D01*
X100812511Y-57107982D01*
X100812512Y-57107982D01*
X100812515Y-57107984D01*
X100952525Y-57145500D01*
X100952526Y-57145500D01*
X101097474Y-57145500D01*
X101097475Y-57145500D01*
X101237485Y-57107984D01*
X101237487Y-57107982D01*
X101237489Y-57107982D01*
X101363010Y-57035512D01*
X101363010Y-57035511D01*
X101363015Y-57035509D01*
X101465509Y-56933015D01*
X101478506Y-56910504D01*
X101537982Y-56807489D01*
X101537982Y-56807487D01*
X101537984Y-56807485D01*
X101575500Y-56667475D01*
X101575500Y-56581190D01*
X101594407Y-56522999D01*
X101604496Y-56511186D01*
X103186186Y-54929496D01*
X103240703Y-54901719D01*
X103256190Y-54900500D01*
X112996142Y-54900500D01*
X112996144Y-54900500D01*
X113085288Y-54876614D01*
X113165212Y-54830470D01*
X115444226Y-52551456D01*
X121149500Y-52551456D01*
X121149500Y-52551459D01*
X121149500Y-52748541D01*
X121184983Y-52926926D01*
X121187949Y-52941834D01*
X121187949Y-52941836D01*
X121263367Y-53123913D01*
X121281621Y-53151232D01*
X121372861Y-53287782D01*
X121512218Y-53427139D01*
X121676086Y-53536632D01*
X121858165Y-53612051D01*
X122051459Y-53650500D01*
X122051460Y-53650500D01*
X123948540Y-53650500D01*
X123948541Y-53650500D01*
X124141835Y-53612051D01*
X124323914Y-53536632D01*
X124487782Y-53427139D01*
X124627139Y-53287782D01*
X124736632Y-53123914D01*
X124812051Y-52941835D01*
X124850500Y-52748541D01*
X124850500Y-52551459D01*
X124812051Y-52358165D01*
X124736632Y-52176086D01*
X124627139Y-52012218D01*
X124487782Y-51872861D01*
X124378288Y-51799699D01*
X124323913Y-51763367D01*
X124141835Y-51687949D01*
X123948543Y-51649500D01*
X123948541Y-51649500D01*
X122051459Y-51649500D01*
X122051456Y-51649500D01*
X121858165Y-51687949D01*
X121858163Y-51687949D01*
X121676086Y-51763367D01*
X121512218Y-51872861D01*
X121512214Y-51872864D01*
X121372864Y-52012214D01*
X121372861Y-52012218D01*
X121263367Y-52176086D01*
X121187949Y-52358163D01*
X121187949Y-52358165D01*
X121149500Y-52551456D01*
X115444226Y-52551456D01*
X116916186Y-51079496D01*
X116970703Y-51051719D01*
X116986190Y-51050500D01*
X117072474Y-51050500D01*
X117072475Y-51050500D01*
X117212485Y-51012984D01*
X117212487Y-51012982D01*
X117212489Y-51012982D01*
X117338010Y-50940512D01*
X117338010Y-50940511D01*
X117338015Y-50940509D01*
X117440509Y-50838015D01*
X117477518Y-50773914D01*
X117512982Y-50712489D01*
X117512982Y-50712487D01*
X117512984Y-50712485D01*
X117550500Y-50572475D01*
X117550500Y-50427525D01*
X117512984Y-50287515D01*
X117512982Y-50287512D01*
X117512982Y-50287510D01*
X117440512Y-50161989D01*
X117440510Y-50161987D01*
X117440509Y-50161985D01*
X117338015Y-50059491D01*
X117338012Y-50059489D01*
X117338010Y-50059487D01*
X117212488Y-49987017D01*
X117212489Y-49987017D01*
X117182896Y-49979087D01*
X117072475Y-49949500D01*
X116927525Y-49949500D01*
X116865790Y-49966041D01*
X116787510Y-49987017D01*
X116661989Y-50059487D01*
X116559487Y-50161989D01*
X116487017Y-50287510D01*
X116449500Y-50427525D01*
X116449500Y-50513810D01*
X116430593Y-50572001D01*
X116420504Y-50583814D01*
X112833814Y-54170504D01*
X112779297Y-54198281D01*
X112763810Y-54199500D01*
X103023856Y-54199500D01*
X102934712Y-54223386D01*
X102854788Y-54269530D01*
X101108814Y-56015504D01*
X101054297Y-56043281D01*
X101038810Y-56044500D01*
X100952525Y-56044500D01*
X100890790Y-56061041D01*
X100812510Y-56082017D01*
X100686989Y-56154487D01*
X100584487Y-56256989D01*
X100512018Y-56382509D01*
X100512016Y-56382513D01*
X100512016Y-56382515D01*
X100495126Y-56445548D01*
X100461802Y-56496861D01*
X100404681Y-56518787D01*
X100345580Y-56502951D01*
X100307075Y-56455401D01*
X100300500Y-56419923D01*
X100300500Y-48077274D01*
X100300500Y-48077273D01*
X100285817Y-48022475D01*
X100273207Y-47975412D01*
X100273204Y-47975408D01*
X100273204Y-47975405D01*
X100223764Y-47889773D01*
X100210500Y-47840273D01*
X100210500Y-47817525D01*
X100189061Y-47737515D01*
X100172984Y-47677515D01*
X100172982Y-47677512D01*
X100172982Y-47677510D01*
X100100512Y-47551989D01*
X100100510Y-47551987D01*
X100100509Y-47551985D01*
X99998015Y-47449491D01*
X99998012Y-47449489D01*
X99998010Y-47449487D01*
X99872488Y-47377017D01*
X99872489Y-47377017D01*
X99842896Y-47369087D01*
X99732475Y-47339500D01*
X99587525Y-47339500D01*
X99525790Y-47356041D01*
X99447510Y-47377017D01*
X99321989Y-47449487D01*
X99219487Y-47551989D01*
X99147017Y-47677510D01*
X99132466Y-47731815D01*
X99109500Y-47817525D01*
X99109500Y-47962475D01*
X99138974Y-48072474D01*
X99147017Y-48102489D01*
X99219487Y-48228010D01*
X99219489Y-48228012D01*
X99219491Y-48228015D01*
X99321985Y-48330509D01*
X99447515Y-48402984D01*
X99447517Y-48402984D01*
X99450000Y-48404418D01*
X99490941Y-48449888D01*
X99499500Y-48490155D01*
X99499500Y-61493099D01*
X99480593Y-61551290D01*
X99470504Y-61563103D01*
X98663103Y-62370504D01*
X98608586Y-62398281D01*
X98603956Y-62398645D01*
X98603958Y-62398653D01*
X98597527Y-62399499D01*
X98457510Y-62437017D01*
X98331980Y-62509493D01*
X98328165Y-62512420D01*
X98270488Y-62532839D01*
X98211824Y-62515457D01*
X98174581Y-62466912D01*
X98168906Y-62434102D01*
X98132840Y-46413384D01*
X99949500Y-46413384D01*
X99949500Y-46586614D01*
X99976597Y-46757702D01*
X99976598Y-46757706D01*
X100030123Y-46922438D01*
X100030125Y-46922441D01*
X100079580Y-47019504D01*
X100108768Y-47076788D01*
X100210586Y-47216928D01*
X100333072Y-47339414D01*
X100473212Y-47441232D01*
X100627555Y-47519873D01*
X100627557Y-47519873D01*
X100627558Y-47519874D01*
X100627561Y-47519876D01*
X100792293Y-47573401D01*
X100792297Y-47573402D01*
X100963386Y-47600500D01*
X100963389Y-47600500D01*
X101136614Y-47600500D01*
X101307702Y-47573402D01*
X101307706Y-47573401D01*
X101472438Y-47519876D01*
X101472440Y-47519874D01*
X101472445Y-47519873D01*
X101626788Y-47441232D01*
X101766928Y-47339414D01*
X101889414Y-47216928D01*
X101991232Y-47076788D01*
X102069873Y-46922445D01*
X102069874Y-46922440D01*
X102069876Y-46922438D01*
X102123401Y-46757706D01*
X102123402Y-46757702D01*
X102150500Y-46586614D01*
X102150500Y-46413384D01*
X102489500Y-46413384D01*
X102489500Y-46586614D01*
X102516597Y-46757702D01*
X102516598Y-46757706D01*
X102570123Y-46922438D01*
X102570125Y-46922441D01*
X102619580Y-47019504D01*
X102648768Y-47076788D01*
X102750586Y-47216928D01*
X102873072Y-47339414D01*
X103013212Y-47441232D01*
X103167555Y-47519873D01*
X103167557Y-47519873D01*
X103167558Y-47519874D01*
X103167561Y-47519876D01*
X103332293Y-47573401D01*
X103332297Y-47573402D01*
X103503386Y-47600500D01*
X103503389Y-47600500D01*
X103676614Y-47600500D01*
X103847702Y-47573402D01*
X103847706Y-47573401D01*
X104012438Y-47519876D01*
X104012440Y-47519874D01*
X104012445Y-47519873D01*
X104166788Y-47441232D01*
X104306928Y-47339414D01*
X104429414Y-47216928D01*
X104531232Y-47076788D01*
X104609873Y-46922445D01*
X104609874Y-46922440D01*
X104609876Y-46922438D01*
X104663401Y-46757706D01*
X104663402Y-46757702D01*
X104690500Y-46586614D01*
X104690500Y-46413385D01*
X104689883Y-46409489D01*
X104980000Y-46409489D01*
X104980000Y-46590510D01*
X105008316Y-46769289D01*
X105064250Y-46941440D01*
X105146430Y-47102728D01*
X105187667Y-47159488D01*
X105661980Y-46685174D01*
X105664075Y-46692993D01*
X105729901Y-46807007D01*
X105822993Y-46900099D01*
X105937007Y-46965925D01*
X105944821Y-46968019D01*
X105470511Y-47442330D01*
X105527275Y-47483571D01*
X105688559Y-47565749D01*
X105860710Y-47621683D01*
X106039490Y-47650000D01*
X106220510Y-47650000D01*
X106399289Y-47621683D01*
X106571440Y-47565749D01*
X106732728Y-47483569D01*
X106789487Y-47442330D01*
X106315176Y-46968019D01*
X106322993Y-46965925D01*
X106437007Y-46900099D01*
X106530099Y-46807007D01*
X106595925Y-46692993D01*
X106598019Y-46685176D01*
X107072330Y-47159487D01*
X107113569Y-47102728D01*
X107195749Y-46941440D01*
X107251683Y-46769289D01*
X107280000Y-46590510D01*
X107280000Y-46413384D01*
X107569500Y-46413384D01*
X107569500Y-46586614D01*
X107596597Y-46757702D01*
X107596598Y-46757706D01*
X107650123Y-46922438D01*
X107650125Y-46922441D01*
X107699580Y-47019504D01*
X107728768Y-47076788D01*
X107830586Y-47216928D01*
X107953072Y-47339414D01*
X108093212Y-47441232D01*
X108247555Y-47519873D01*
X108247557Y-47519873D01*
X108247558Y-47519874D01*
X108247561Y-47519876D01*
X108412293Y-47573401D01*
X108412297Y-47573402D01*
X108583386Y-47600500D01*
X108583389Y-47600500D01*
X108756614Y-47600500D01*
X108927702Y-47573402D01*
X108927706Y-47573401D01*
X109092438Y-47519876D01*
X109092440Y-47519874D01*
X109092445Y-47519873D01*
X109246788Y-47441232D01*
X109386928Y-47339414D01*
X109509414Y-47216928D01*
X109611232Y-47076788D01*
X109689873Y-46922445D01*
X109689874Y-46922440D01*
X109689876Y-46922438D01*
X109743401Y-46757706D01*
X109743402Y-46757702D01*
X109770500Y-46586614D01*
X109770500Y-46413384D01*
X110109500Y-46413384D01*
X110109500Y-46586614D01*
X110136597Y-46757702D01*
X110136598Y-46757706D01*
X110190123Y-46922438D01*
X110190125Y-46922441D01*
X110239580Y-47019504D01*
X110268768Y-47076788D01*
X110370586Y-47216928D01*
X110493072Y-47339414D01*
X110633212Y-47441232D01*
X110787555Y-47519873D01*
X110787557Y-47519873D01*
X110787558Y-47519874D01*
X110787561Y-47519876D01*
X110952293Y-47573401D01*
X110952297Y-47573402D01*
X111123386Y-47600500D01*
X111123389Y-47600500D01*
X111296614Y-47600500D01*
X111467702Y-47573402D01*
X111467706Y-47573401D01*
X111632438Y-47519876D01*
X111632440Y-47519874D01*
X111632445Y-47519873D01*
X111786788Y-47441232D01*
X111926928Y-47339414D01*
X112049414Y-47216928D01*
X112151232Y-47076788D01*
X112229873Y-46922445D01*
X112229874Y-46922440D01*
X112229876Y-46922438D01*
X112283401Y-46757706D01*
X112283402Y-46757702D01*
X112310500Y-46586614D01*
X112310500Y-46413384D01*
X112310499Y-46413378D01*
X112283402Y-46242297D01*
X112283401Y-46242293D01*
X112229876Y-46077561D01*
X112229874Y-46077558D01*
X112229873Y-46077557D01*
X112229873Y-46077555D01*
X112151232Y-45923212D01*
X112049414Y-45783072D01*
X111926928Y-45660586D01*
X111786788Y-45558768D01*
X111786787Y-45558767D01*
X111786785Y-45558766D01*
X111632441Y-45480125D01*
X111632438Y-45480123D01*
X111467706Y-45426598D01*
X111467702Y-45426597D01*
X111296614Y-45399500D01*
X111296611Y-45399500D01*
X111123389Y-45399500D01*
X111123386Y-45399500D01*
X110952297Y-45426597D01*
X110952293Y-45426598D01*
X110787561Y-45480123D01*
X110787558Y-45480125D01*
X110633214Y-45558766D01*
X110493073Y-45660585D01*
X110370585Y-45783073D01*
X110268766Y-45923214D01*
X110190125Y-46077558D01*
X110190123Y-46077561D01*
X110136598Y-46242293D01*
X110136597Y-46242297D01*
X110109501Y-46413378D01*
X110109500Y-46413384D01*
X109770500Y-46413384D01*
X109770499Y-46413378D01*
X109743402Y-46242297D01*
X109743401Y-46242293D01*
X109689876Y-46077561D01*
X109689874Y-46077558D01*
X109689873Y-46077557D01*
X109689873Y-46077555D01*
X109611232Y-45923212D01*
X109509414Y-45783072D01*
X109386928Y-45660586D01*
X109246788Y-45558768D01*
X109246787Y-45558767D01*
X109246785Y-45558766D01*
X109092441Y-45480125D01*
X109092438Y-45480123D01*
X108927706Y-45426598D01*
X108927702Y-45426597D01*
X108756614Y-45399500D01*
X108756611Y-45399500D01*
X108583389Y-45399500D01*
X108583386Y-45399500D01*
X108412297Y-45426597D01*
X108412293Y-45426598D01*
X108247561Y-45480123D01*
X108247558Y-45480125D01*
X108093214Y-45558766D01*
X107953073Y-45660585D01*
X107830585Y-45783073D01*
X107728766Y-45923214D01*
X107650125Y-46077558D01*
X107650123Y-46077561D01*
X107596598Y-46242293D01*
X107596597Y-46242297D01*
X107569501Y-46413378D01*
X107569500Y-46413384D01*
X107280000Y-46413384D01*
X107280000Y-46409489D01*
X107251683Y-46230710D01*
X107195749Y-46058559D01*
X107113571Y-45897275D01*
X107072330Y-45840511D01*
X106598019Y-46314821D01*
X106595925Y-46307007D01*
X106530099Y-46192993D01*
X106437007Y-46099901D01*
X106322993Y-46034075D01*
X106315174Y-46031980D01*
X106789488Y-45557667D01*
X106732728Y-45516430D01*
X106571440Y-45434250D01*
X106399289Y-45378316D01*
X106220510Y-45350000D01*
X106039490Y-45350000D01*
X105860710Y-45378316D01*
X105688559Y-45434250D01*
X105527267Y-45516432D01*
X105470510Y-45557667D01*
X105944823Y-46031980D01*
X105937007Y-46034075D01*
X105822993Y-46099901D01*
X105729901Y-46192993D01*
X105664075Y-46307007D01*
X105661980Y-46314823D01*
X105187667Y-45840510D01*
X105146432Y-45897267D01*
X105064250Y-46058559D01*
X105008316Y-46230710D01*
X104980000Y-46409489D01*
X104689883Y-46409489D01*
X104663402Y-46242297D01*
X104663401Y-46242293D01*
X104609876Y-46077561D01*
X104609874Y-46077558D01*
X104609873Y-46077557D01*
X104609873Y-46077555D01*
X104531232Y-45923212D01*
X104429414Y-45783072D01*
X104306928Y-45660586D01*
X104166788Y-45558768D01*
X104166787Y-45558767D01*
X104166785Y-45558766D01*
X104012441Y-45480125D01*
X104012438Y-45480123D01*
X103847706Y-45426598D01*
X103847702Y-45426597D01*
X103676614Y-45399500D01*
X103676611Y-45399500D01*
X103503389Y-45399500D01*
X103503386Y-45399500D01*
X103332297Y-45426597D01*
X103332293Y-45426598D01*
X103167561Y-45480123D01*
X103167558Y-45480125D01*
X103013214Y-45558766D01*
X102873073Y-45660585D01*
X102750585Y-45783073D01*
X102648766Y-45923214D01*
X102570125Y-46077558D01*
X102570123Y-46077561D01*
X102516598Y-46242293D01*
X102516597Y-46242297D01*
X102489501Y-46413378D01*
X102489500Y-46413384D01*
X102150500Y-46413384D01*
X102150499Y-46413378D01*
X102123402Y-46242297D01*
X102123401Y-46242293D01*
X102069876Y-46077561D01*
X102069874Y-46077558D01*
X102069873Y-46077557D01*
X102069873Y-46077555D01*
X101991232Y-45923212D01*
X101889414Y-45783072D01*
X101766928Y-45660586D01*
X101626788Y-45558768D01*
X101626787Y-45558767D01*
X101626785Y-45558766D01*
X101472441Y-45480125D01*
X101472438Y-45480123D01*
X101307706Y-45426598D01*
X101307702Y-45426597D01*
X101136614Y-45399500D01*
X101136611Y-45399500D01*
X100963389Y-45399500D01*
X100963386Y-45399500D01*
X100792297Y-45426597D01*
X100792293Y-45426598D01*
X100627561Y-45480123D01*
X100627558Y-45480125D01*
X100473214Y-45558766D01*
X100333073Y-45660585D01*
X100210585Y-45783073D01*
X100108766Y-45923214D01*
X100030125Y-46077558D01*
X100030123Y-46077561D01*
X99976598Y-46242293D01*
X99976597Y-46242297D01*
X99949501Y-46413378D01*
X99949500Y-46413384D01*
X98132840Y-46413384D01*
X98127973Y-44251456D01*
X121149500Y-44251456D01*
X121149500Y-44448543D01*
X121187949Y-44641834D01*
X121187949Y-44641836D01*
X121263367Y-44823913D01*
X121263368Y-44823914D01*
X121372861Y-44987782D01*
X121512218Y-45127139D01*
X121676086Y-45236632D01*
X121858165Y-45312051D01*
X122051459Y-45350500D01*
X122051460Y-45350500D01*
X123948540Y-45350500D01*
X123948541Y-45350500D01*
X124141835Y-45312051D01*
X124323914Y-45236632D01*
X124487782Y-45127139D01*
X124627139Y-44987782D01*
X124736632Y-44823914D01*
X124812051Y-44641835D01*
X124850500Y-44448541D01*
X124850500Y-44251459D01*
X124812051Y-44058165D01*
X124736632Y-43876086D01*
X124627139Y-43712218D01*
X124487782Y-43572861D01*
X124323914Y-43463368D01*
X124323915Y-43463368D01*
X124323913Y-43463367D01*
X124141835Y-43387949D01*
X123948543Y-43349500D01*
X123948541Y-43349500D01*
X122051459Y-43349500D01*
X122051456Y-43349500D01*
X121858165Y-43387949D01*
X121858163Y-43387949D01*
X121676086Y-43463367D01*
X121512218Y-43572861D01*
X121512214Y-43572864D01*
X121372864Y-43712214D01*
X121372861Y-43712218D01*
X121263367Y-43876086D01*
X121187949Y-44058163D01*
X121187949Y-44058165D01*
X121149500Y-44251456D01*
X98127973Y-44251456D01*
X98125217Y-43027525D01*
X113149500Y-43027525D01*
X113149500Y-43172474D01*
X113187017Y-43312489D01*
X113259487Y-43438010D01*
X113259489Y-43438012D01*
X113259491Y-43438015D01*
X113361985Y-43540509D01*
X113361987Y-43540510D01*
X113361989Y-43540512D01*
X113487511Y-43612982D01*
X113487512Y-43612982D01*
X113487515Y-43612984D01*
X113627525Y-43650500D01*
X113627526Y-43650500D01*
X113772474Y-43650500D01*
X113772475Y-43650500D01*
X113912485Y-43612984D01*
X113912487Y-43612982D01*
X113912489Y-43612982D01*
X114038010Y-43540512D01*
X114038010Y-43540511D01*
X114038015Y-43540509D01*
X114140509Y-43438015D01*
X114177080Y-43374672D01*
X114212982Y-43312489D01*
X114212982Y-43312487D01*
X114212984Y-43312485D01*
X114250500Y-43172475D01*
X114250500Y-43086190D01*
X114252968Y-43078592D01*
X114251719Y-43070703D01*
X114262243Y-43050047D01*
X114269407Y-43027999D01*
X114279496Y-43016186D01*
X114316186Y-42979496D01*
X114370703Y-42951719D01*
X114386190Y-42950500D01*
X128163810Y-42950500D01*
X128222001Y-42969407D01*
X128233814Y-42979496D01*
X133170504Y-47916185D01*
X133198281Y-47970702D01*
X133199500Y-47986189D01*
X133199500Y-48072475D01*
X133228437Y-48180469D01*
X133237017Y-48212489D01*
X133309487Y-48338010D01*
X133309489Y-48338012D01*
X133309491Y-48338015D01*
X133411985Y-48440509D01*
X133411987Y-48440510D01*
X133411989Y-48440512D01*
X133537511Y-48512982D01*
X133537512Y-48512982D01*
X133537515Y-48512984D01*
X133677525Y-48550500D01*
X133677526Y-48550500D01*
X133822474Y-48550500D01*
X133822475Y-48550500D01*
X133962485Y-48512984D01*
X133962487Y-48512982D01*
X133962489Y-48512982D01*
X134088010Y-48440512D01*
X134088010Y-48440511D01*
X134088015Y-48440509D01*
X134190509Y-48338015D01*
X134219377Y-48288015D01*
X134262982Y-48212489D01*
X134262982Y-48212487D01*
X134262984Y-48212485D01*
X134300500Y-48072475D01*
X134300500Y-47927525D01*
X134262984Y-47787515D01*
X134262982Y-47787512D01*
X134262982Y-47787510D01*
X134190512Y-47661989D01*
X134190510Y-47661987D01*
X134190509Y-47661985D01*
X134088015Y-47559491D01*
X134088012Y-47559489D01*
X134088010Y-47559487D01*
X133962488Y-47487017D01*
X133962489Y-47487017D01*
X133932896Y-47479087D01*
X133822475Y-47449500D01*
X133822474Y-47449500D01*
X133736189Y-47449500D01*
X133677998Y-47430593D01*
X133666185Y-47420504D01*
X131233462Y-44987781D01*
X128565212Y-42319530D01*
X128485288Y-42273386D01*
X128396144Y-42249500D01*
X114246144Y-42249500D01*
X114153856Y-42249500D01*
X114064712Y-42273386D01*
X113984785Y-42319532D01*
X113783813Y-42520504D01*
X113729297Y-42548281D01*
X113713810Y-42549500D01*
X113627525Y-42549500D01*
X113566596Y-42565826D01*
X113487510Y-42587017D01*
X113361989Y-42659487D01*
X113259487Y-42761989D01*
X113187017Y-42887510D01*
X113149500Y-43027525D01*
X98125217Y-43027525D01*
X98122003Y-41599722D01*
X98140780Y-41541490D01*
X98190198Y-41505415D01*
X98221003Y-41500500D01*
X132042879Y-41500500D01*
X132064926Y-41507663D01*
G37*
G04 #@! TD.AperFunction*
G04 #@! TD*
M02*
