G04 #@! TF.GenerationSoftware,KiCad,Pcbnew,10.0.4*
G04 #@! TF.CreationDate,2026-08-01T02:29:15-07:00*
G04 #@! TF.ProjectId,eurorack,6575726f-7261-4636-9b2e-6b696361645f,rev?*
G04 #@! TF.SameCoordinates,Original*
G04 #@! TF.FileFunction,Soldermask,Bot*
G04 #@! TF.FilePolarity,Negative*
%FSLAX46Y46*%
G04 Gerber Fmt 4.6, Leading zero omitted, Abs format (unit mm)*
G04 Created by KiCad (PCBNEW 10.0.4) date 2026-08-01 02:29:15*
%MOMM*%
%LPD*%
G01*
G04 APERTURE LIST*
G04 Aperture macros list*
%AMRoundRect*
0 Rectangle with rounded corners*
0 $1 Rounding radius*
0 $2 $3 $4 $5 $6 $7 $8 $9 X,Y pos of 4 corners*
0 Add a 4 corners polygon primitive as box body*
4,1,4,$2,$3,$4,$5,$6,$7,$8,$9,$2,$3,0*
0 Add four circle primitives for the rounded corners*
1,1,$1+$1,$2,$3*
1,1,$1+$1,$4,$5*
1,1,$1+$1,$6,$7*
1,1,$1+$1,$8,$9*
0 Add four rect primitives between the rounded corners*
20,1,$1+$1,$2,$3,$4,$5,0*
20,1,$1+$1,$4,$5,$6,$7,0*
20,1,$1+$1,$6,$7,$8,$9,0*
20,1,$1+$1,$8,$9,$2,$3,0*%
G04 Aperture macros list end*
%ADD10R,1.700000X1.700000*%
%ADD11C,1.700000*%
%ADD12O,3.200000X1.500000*%
%ADD13O,1.500000X3.200000*%
%ADD14R,1.500000X2.500000*%
%ADD15O,1.500000X2.500000*%
%ADD16RoundRect,0.250000X0.600000X-0.600000X0.600000X0.600000X-0.600000X0.600000X-0.600000X-0.600000X0*%
%ADD17RoundRect,0.250000X-1.000000X-0.650000X1.000000X-0.650000X1.000000X0.650000X-1.000000X0.650000X0*%
G04 APERTURE END LIST*
D10*
G04 #@! TO.C,J8*
X67880000Y-64337322D03*
D11*
X70420000Y-64337322D03*
X72960000Y-64337322D03*
X75500000Y-64337322D03*
G04 #@! TD*
D12*
G04 #@! TO.C,J7 (output)*
X123000000Y-44350000D03*
D13*
X126500000Y-49450000D03*
X119500000Y-49450000D03*
D12*
X123000000Y-52650000D03*
G04 #@! TD*
D10*
G04 #@! TO.C,J10*
X130250000Y-59830000D03*
D11*
X130250000Y-57290000D03*
X130250000Y-54750000D03*
X130250000Y-52210000D03*
G04 #@! TD*
D10*
G04 #@! TO.C,J4*
X116290000Y-46500000D03*
D11*
X113750000Y-46500000D03*
X111210000Y-46500000D03*
X108670000Y-46500000D03*
X106130000Y-46500000D03*
X103590000Y-46500000D03*
X101050000Y-46500000D03*
G04 #@! TD*
D12*
G04 #@! TO.C,J6 (input)*
X123000000Y-68150000D03*
D13*
X119500000Y-63050000D03*
X126500000Y-63050000D03*
D12*
X123000000Y-59850000D03*
G04 #@! TD*
D10*
G04 #@! TO.C,J5*
X116250000Y-64353810D03*
D11*
X113710000Y-64353810D03*
X111170000Y-64353810D03*
X108630000Y-64353810D03*
X106090000Y-64353810D03*
X103550000Y-64353810D03*
X101010000Y-64353810D03*
G04 #@! TD*
D14*
G04 #@! TO.C,U1*
X89500000Y-65250000D03*
D15*
X92040000Y-65250000D03*
X94580000Y-65250000D03*
G04 #@! TD*
D10*
G04 #@! TO.C,J3*
X148081454Y-60375457D03*
D11*
X145541454Y-60375457D03*
X143001454Y-60375457D03*
X140461454Y-60375457D03*
X137921454Y-60375457D03*
X135381454Y-60375457D03*
X132841454Y-60375457D03*
G04 #@! TD*
D16*
G04 #@! TO.C,J1*
X144080000Y-68040000D03*
D11*
X144080000Y-65500000D03*
X141540000Y-68040000D03*
X141540000Y-65500000D03*
X139000000Y-68040000D03*
X139000000Y-65500000D03*
X136460000Y-68040000D03*
X136460000Y-65500000D03*
X133920000Y-68040000D03*
X133920000Y-65500000D03*
G04 #@! TD*
D10*
G04 #@! TO.C,J2*
X148078728Y-42500000D03*
D11*
X145538728Y-42500000D03*
X142998728Y-42500000D03*
X140458728Y-42500000D03*
X137918728Y-42500000D03*
X135378728Y-42500000D03*
X132838728Y-42500000D03*
G04 #@! TD*
D17*
G04 #@! TO.C,D1*
X111522500Y-68000000D03*
X115522500Y-68000000D03*
G04 #@! TD*
M02*
