G04 #@! TF.GenerationSoftware,KiCad,Pcbnew,10.0.4*
G04 #@! TF.CreationDate,2026-08-01T21:57:26-07:00*
G04 #@! TF.ProjectId,eurorack,6575726f-7261-4636-9b2e-6b696361645f,rev?*
G04 #@! TF.SameCoordinates,Original*
G04 #@! TF.FileFunction,Paste,Top*
G04 #@! TF.FilePolarity,Positive*
%FSLAX46Y46*%
G04 Gerber Fmt 4.6, Leading zero omitted, Abs format (unit mm)*
G04 Created by KiCad (PCBNEW 10.0.4) date 2026-08-01 21:57:26*
%MOMM*%
%LPD*%
G01*
G04 APERTURE LIST*
G04 Aperture macros list*
%AMRoundRect*
0 Rectangle with rounded corners*
0 $1 Rounding radius*
0 $2 $3 $4 $5 $6 $7 $8 $9 X,Y pos of 4 corners*
0 Add a 4 corners polygon primitive as box body*
4,1,4,$2,$3,$4,$5,$6,$7,$8,$9,$2,$3,0*
0 Add four circle primitives for the rounded corners*
1,1,$1+$1,$2,$3*
1,1,$1+$1,$4,$5*
1,1,$1+$1,$6,$7*
1,1,$1+$1,$8,$9*
0 Add four rect primitives between the rounded corners*
20,1,$1+$1,$2,$3,$4,$5,0*
20,1,$1+$1,$4,$5,$6,$7,0*
20,1,$1+$1,$6,$7,$8,$9,0*
20,1,$1+$1,$8,$9,$2,$3,0*%
G04 Aperture macros list end*
%ADD10RoundRect,0.218750X0.218750X0.381250X-0.218750X0.381250X-0.218750X-0.381250X0.218750X-0.381250X0*%
%ADD11RoundRect,0.150000X-0.825000X-0.150000X0.825000X-0.150000X0.825000X0.150000X-0.825000X0.150000X0*%
%ADD12RoundRect,0.140000X0.170000X-0.140000X0.170000X0.140000X-0.170000X0.140000X-0.170000X-0.140000X0*%
%ADD13RoundRect,0.250000X-0.475000X0.250000X-0.475000X-0.250000X0.475000X-0.250000X0.475000X0.250000X0*%
%ADD14RoundRect,0.140000X-0.170000X0.140000X-0.170000X-0.140000X0.170000X-0.140000X0.170000X0.140000X0*%
%ADD15RoundRect,0.135000X-0.135000X-0.185000X0.135000X-0.185000X0.135000X0.185000X-0.135000X0.185000X0*%
%ADD16RoundRect,0.250000X0.650000X-1.000000X0.650000X1.000000X-0.650000X1.000000X-0.650000X-1.000000X0*%
%ADD17RoundRect,0.135000X0.135000X0.185000X-0.135000X0.185000X-0.135000X-0.185000X0.135000X-0.185000X0*%
%ADD18RoundRect,0.135000X0.185000X-0.135000X0.185000X0.135000X-0.185000X0.135000X-0.185000X-0.135000X0*%
%ADD19RoundRect,0.250000X0.475000X-0.250000X0.475000X0.250000X-0.475000X0.250000X-0.475000X-0.250000X0*%
%ADD20RoundRect,0.140000X-0.140000X-0.170000X0.140000X-0.170000X0.140000X0.170000X-0.140000X0.170000X0*%
G04 APERTURE END LIST*
D10*
G04 #@! TO.C,FB2*
X144812500Y-63000000D03*
X142687500Y-63000000D03*
G04 #@! TD*
D11*
G04 #@! TO.C,U2*
X101025000Y-56595000D03*
X101025000Y-57865000D03*
X101025000Y-59135000D03*
X101025000Y-60405000D03*
X105975000Y-60405000D03*
X105975000Y-59135000D03*
X105975000Y-57865000D03*
X105975000Y-56595000D03*
G04 #@! TD*
D12*
G04 #@! TO.C,C2*
X85600000Y-65980000D03*
X85600000Y-65020000D03*
G04 #@! TD*
D13*
G04 #@! TO.C,C3*
X97000000Y-64550000D03*
X97000000Y-66450000D03*
G04 #@! TD*
D14*
G04 #@! TO.C,C4*
X98400000Y-65020000D03*
X98400000Y-65980000D03*
G04 #@! TD*
D15*
G04 #@! TO.C,R3*
X68490000Y-67250000D03*
X69510000Y-67250000D03*
G04 #@! TD*
D16*
G04 #@! TO.C,D2*
X147250000Y-68500000D03*
X147250000Y-64500000D03*
G04 #@! TD*
D17*
G04 #@! TO.C,R4*
X99360000Y-57870000D03*
X98340000Y-57870000D03*
G04 #@! TD*
D18*
G04 #@! TO.C,R6*
X116990000Y-50520000D03*
X116990000Y-49500000D03*
G04 #@! TD*
D13*
G04 #@! TO.C,C7*
X108500000Y-58450000D03*
X108500000Y-60350000D03*
G04 #@! TD*
D15*
G04 #@! TO.C,R5*
X98340000Y-56590000D03*
X99360000Y-56590000D03*
G04 #@! TD*
D19*
G04 #@! TO.C,C1*
X87000000Y-66450000D03*
X87000000Y-64550000D03*
G04 #@! TD*
D10*
G04 #@! TO.C,FB1*
X107500000Y-68000000D03*
X105375000Y-68000000D03*
G04 #@! TD*
D17*
G04 #@! TO.C,R2*
X69510000Y-68500000D03*
X68490000Y-68500000D03*
G04 #@! TD*
G04 #@! TO.C,R7*
X99360000Y-59130000D03*
X98340000Y-59130000D03*
G04 #@! TD*
D20*
G04 #@! TO.C,C6*
X100620000Y-61890000D03*
X101580000Y-61890000D03*
G04 #@! TD*
D14*
G04 #@! TO.C,C5*
X107900000Y-56020000D03*
X107900000Y-56980000D03*
G04 #@! TD*
M02*
