M48
; DRILL file KiCad 10.0.4 date 2026-07-31T17:33:26
; FORMAT={-:-/ absolute / metric / decimal}
; #@! TF.CreationDate,2026-07-31T17:33:26-07:00
; #@! TF.GenerationSoftware,Kicad,Pcbnew,10.0.4
; #@! TF.FileFunction,Plated,1,2,PTH
FMAT,2
METRIC
; #@! TA.AperFunction,Plated,PTH,ViaDrill
T1C0.300
; #@! TA.AperFunction,Plated,PTH,ComponentDrill
T2C0.800
; #@! TA.AperFunction,Plated,PTH,ComponentDrill
T3C1.000
%
G90
G05
T1
X98.4Y-66.0
X104.85Y-58.95
X104.9Y-51.8
X108.5Y-59.4
X109.8Y-51.6
X111.522Y-68.0
X113.7Y-43.1
X115.8Y-55.55
X116.69Y-57.26
X118.79Y-56.7
X121.14Y-56.1
X123.351Y-55.5
X124.46Y-46.5
X128.7Y-47.95
X130.5Y-48.35
X131.4Y-48.91
X132.2Y-49.6
X133.6Y-55.4
X136.2Y-57.7
X137.85Y-46.0
X139.64Y-52.71
X143.7Y-54.05
X145.87Y-63.35
X146.25Y-56.5
T3
X67.88Y-64.337
X70.42Y-64.337
X72.96Y-64.337
X75.5Y-64.337
X101.01Y-64.354
X101.05Y-46.5
X103.55Y-64.354
X103.59Y-46.5
X106.09Y-64.354
X106.13Y-46.5
X108.63Y-64.354
X108.67Y-46.5
X111.17Y-64.354
X111.21Y-46.5
X113.212Y-52.874
X113.212Y-55.414
X113.212Y-57.954
X113.71Y-64.354
X113.75Y-46.5
X116.25Y-64.354
X116.29Y-46.5
X130.25Y-52.21
X130.25Y-54.75
X130.25Y-57.29
X130.25Y-59.83
X132.839Y-42.5
X132.84Y-60.25
X133.92Y-65.5
X133.92Y-68.04
X135.379Y-42.5
X135.38Y-60.25
X136.46Y-65.5
X136.46Y-68.04
X137.919Y-42.5
X137.92Y-60.25
X139.0Y-65.5
X139.0Y-68.04
X140.459Y-42.5
X140.46Y-60.25
X141.54Y-65.5
X141.54Y-68.04
X142.999Y-42.5
X143.0Y-60.25
X144.08Y-65.5
X144.08Y-68.04
X145.539Y-42.5
X145.54Y-60.25
X148.079Y-42.5
X148.08Y-60.25
T2
X119.5Y-50.3G85X119.5Y-48.6
G05
X119.5Y-62.2G85X119.5Y-63.9
G05
X123.85Y-44.35G85X122.15Y-44.35
G05
X123.85Y-52.65G85X122.15Y-52.65
G05
X122.15Y-59.85G85X123.85Y-59.85
G05
X122.15Y-68.15G85X123.85Y-68.15
G05
X126.5Y-50.3G85X126.5Y-48.6
G05
X126.5Y-62.2G85X126.5Y-63.9
G05
M30
