G04 #@! TF.GenerationSoftware,KiCad,Pcbnew,10.0.5*
G04 #@! TF.CreationDate,2026-08-16T18:31:37-07:00*
G04 #@! TF.ProjectId,eurorack,6575726f-7261-4636-9b2e-6b696361645f,rev?*
G04 #@! TF.SameCoordinates,Original*
G04 #@! TF.FileFunction,Copper,L2,Bot*
G04 #@! TF.FilePolarity,Positive*
%FSLAX46Y46*%
G04 Gerber Fmt 4.6, Leading zero omitted, Abs format (unit mm)*
G04 Created by KiCad (PCBNEW 10.0.5) date 2026-08-16 18:31:37*
%MOMM*%
%LPD*%
G01*
G04 APERTURE LIST*
G04 Aperture macros list*
%AMRoundRect*
0 Rectangle with rounded corners*
0 $1 Rounding radius*
0 $2 $3 $4 $5 $6 $7 $8 $9 X,Y pos of 4 corners*
0 Add a 4 corners polygon primitive as box body*
4,1,4,$2,$3,$4,$5,$6,$7,$8,$9,$2,$3,0*
0 Add four circle primitives for the rounded corners*
1,1,$1+$1,$2,$3*
1,1,$1+$1,$4,$5*
1,1,$1+$1,$6,$7*
1,1,$1+$1,$8,$9*
0 Add four rect primitives between the rounded corners*
20,1,$1+$1,$2,$3,$4,$5,0*
20,1,$1+$1,$4,$5,$6,$7,0*
20,1,$1+$1,$6,$7,$8,$9,0*
20,1,$1+$1,$8,$9,$2,$3,0*%
G04 Aperture macros list end*
G04 #@! TA.AperFunction,ComponentPad*
%ADD10R,1.700000X1.700000*%
G04 #@! TD*
G04 #@! TA.AperFunction,ComponentPad*
%ADD11C,1.700000*%
G04 #@! TD*
G04 #@! TA.AperFunction,ComponentPad*
%ADD12O,3.200000X1.500000*%
G04 #@! TD*
G04 #@! TA.AperFunction,ComponentPad*
%ADD13O,1.500000X3.200000*%
G04 #@! TD*
G04 #@! TA.AperFunction,ComponentPad*
%ADD14R,1.500000X2.500000*%
G04 #@! TD*
G04 #@! TA.AperFunction,ComponentPad*
%ADD15O,1.500000X2.500000*%
G04 #@! TD*
G04 #@! TA.AperFunction,ComponentPad*
%ADD16RoundRect,0.250000X0.600000X-0.600000X0.600000X0.600000X-0.600000X0.600000X-0.600000X-0.600000X0*%
G04 #@! TD*
G04 #@! TA.AperFunction,SMDPad,CuDef*
%ADD17RoundRect,0.250000X-1.000000X-0.650000X1.000000X-0.650000X1.000000X0.650000X-1.000000X0.650000X0*%
G04 #@! TD*
G04 #@! TA.AperFunction,ViaPad*
%ADD18C,0.600000*%
G04 #@! TD*
G04 #@! TA.AperFunction,Conductor*
%ADD19C,0.200000*%
G04 #@! TD*
G04 #@! TA.AperFunction,Conductor*
%ADD20C,0.300000*%
G04 #@! TD*
G04 #@! TA.AperFunction,Conductor*
%ADD21C,0.500000*%
G04 #@! TD*
G04 APERTURE END LIST*
D10*
G04 #@! TO.P,J8,1,Pin_1_1*
G04 #@! TO.N,AIN_T*
X67880000Y-64337322D03*
D11*
G04 #@! TO.P,J8,2,Pin_2_2*
G04 #@! TO.N,AIN_S*
X70420000Y-64337322D03*
G04 #@! TO.P,J8,3,Pin_3_3*
G04 #@! TO.N,AOUT_S*
X72960000Y-64337322D03*
G04 #@! TO.P,J8,4,Pin_4_4*
G04 #@! TO.N,AOUT_HAT*
X75500000Y-64337322D03*
G04 #@! TD*
D12*
G04 #@! TO.P,J7,3*
G04 #@! TO.N,N/C*
X123000000Y-44350000D03*
D13*
G04 #@! TO.P,J7,S*
G04 #@! TO.N,AOUT_S*
X126500000Y-49450000D03*
G04 #@! TO.P,J7,T*
G04 #@! TO.N,AOUT_T*
X119500000Y-49450000D03*
D12*
G04 #@! TO.P,J7,TN*
G04 #@! TO.N,unconnected-(J7-PadTN)*
X123000000Y-52650000D03*
G04 #@! TD*
D10*
G04 #@! TO.P,J10,1,Pin_1_1*
G04 #@! TO.N,GND*
X130250000Y-59830000D03*
D11*
G04 #@! TO.P,J10,2,Pin_2_2*
G04 #@! TO.N,+3V3*
X130250000Y-57290000D03*
G04 #@! TO.P,J10,3,Pin_3_3*
G04 #@! TO.N,SCL*
X130250000Y-54750000D03*
G04 #@! TO.P,J10,4,Pin_4_4*
G04 #@! TO.N,SDA*
X130250000Y-52210000D03*
G04 #@! TD*
D10*
G04 #@! TO.P,J4,1,Pin_1_1*
G04 #@! TO.N,DET*
X116290000Y-46500000D03*
D11*
G04 #@! TO.P,J4,2,Pin_2_2*
G04 #@! TO.N,MCLK*
X113750000Y-46500000D03*
G04 #@! TO.P,J4,3,Pin_3_3*
G04 #@! TO.N,+3V3*
X111210000Y-46500000D03*
G04 #@! TO.P,J4,4,Pin_4_4*
G04 #@! TO.N,PASS_B4*
X108670000Y-46500000D03*
G04 #@! TO.P,J4,5,Pin_5_5*
G04 #@! TO.N,GND*
X106130000Y-46500000D03*
G04 #@! TO.P,J4,6,Pin_6_6*
G04 #@! TO.N,PASS_B2*
X103590000Y-46500000D03*
G04 #@! TO.P,J4,7,Pin_7_7*
G04 #@! TO.N,+5V*
X101050000Y-46500000D03*
G04 #@! TD*
D12*
G04 #@! TO.P,J6,3*
G04 #@! TO.N,N/C*
X123000000Y-68150000D03*
D13*
G04 #@! TO.P,J6,S*
G04 #@! TO.N,AIN_S*
X119500000Y-63050000D03*
G04 #@! TO.P,J6,T*
G04 #@! TO.N,AIN_JACK*
X126500000Y-63050000D03*
D12*
G04 #@! TO.P,J6,TN*
G04 #@! TO.N,unconnected-(J6-PadTN)*
X123000000Y-59850000D03*
G04 #@! TD*
D10*
G04 #@! TO.P,J5,1,Pin_1_1*
G04 #@! TO.N,ASDOUT*
X116250000Y-64353810D03*
D11*
G04 #@! TO.P,J5,2,Pin_2_2*
G04 #@! TO.N,LRCK*
X113710000Y-64353810D03*
G04 #@! TO.P,J5,3,Pin_3_3*
G04 #@! TO.N,BCLK*
X111170000Y-64353810D03*
G04 #@! TO.P,J5,4,Pin_4_4*
G04 #@! TO.N,DSDIN*
X108630000Y-64353810D03*
G04 #@! TO.P,J5,5,Pin_5_5*
G04 #@! TO.N,GND*
X106090000Y-64353810D03*
G04 #@! TO.P,J5,6,Pin_6_6*
G04 #@! TO.N,SCL*
X103550000Y-64353810D03*
G04 #@! TO.P,J5,7,Pin_7_7*
G04 #@! TO.N,SDA*
X101010000Y-64353810D03*
G04 #@! TD*
D14*
G04 #@! TO.P,U1,1,IN_1*
G04 #@! TO.N,+12V_F*
X89500000Y-65250000D03*
D15*
G04 #@! TO.P,U1,2,GND_2*
G04 #@! TO.N,GND*
X92040000Y-65250000D03*
G04 #@! TO.P,U1,3,OUT_3*
G04 #@! TO.N,+5V*
X94580000Y-65250000D03*
G04 #@! TD*
D10*
G04 #@! TO.P,J3,1,Pin_1_1*
G04 #@! TO.N,+5V*
X148081454Y-60375457D03*
D11*
G04 #@! TO.P,J3,2,Pin_2_2*
G04 #@! TO.N,PASS_B2*
X145541454Y-60375457D03*
G04 #@! TO.P,J3,3,Pin_3_3*
G04 #@! TO.N,GND*
X143001454Y-60375457D03*
G04 #@! TO.P,J3,4,Pin_4_4*
G04 #@! TO.N,PASS_B4*
X140461454Y-60375457D03*
G04 #@! TO.P,J3,5,Pin_5_5*
G04 #@! TO.N,+3V3*
X137921454Y-60375457D03*
G04 #@! TO.P,J3,6,Pin_6_6*
G04 #@! TO.N,MCLK*
X135381454Y-60375457D03*
G04 #@! TO.P,J3,7,Pin_7_7*
G04 #@! TO.N,DET*
X132841454Y-60375457D03*
G04 #@! TD*
D16*
G04 #@! TO.P,J1,1,Pin_1_1*
G04 #@! TO.N,-12V*
X144080000Y-68040000D03*
D11*
G04 #@! TO.P,J1,2,Pin_2_2*
X144080000Y-65500000D03*
G04 #@! TO.P,J1,3,Pin_3_3*
G04 #@! TO.N,GND*
X141540000Y-68040000D03*
G04 #@! TO.P,J1,4,Pin_4_4*
X141540000Y-65500000D03*
G04 #@! TO.P,J1,5,Pin_5_5*
X139000000Y-68040000D03*
G04 #@! TO.P,J1,6,Pin_6_6*
X139000000Y-65500000D03*
G04 #@! TO.P,J1,7,Pin_7_7*
X136460000Y-68040000D03*
G04 #@! TO.P,J1,8,Pin_8_8*
X136460000Y-65500000D03*
G04 #@! TO.P,J1,9,Pin_9_9*
G04 #@! TO.N,+12V_RAW*
X133920000Y-68040000D03*
G04 #@! TO.P,J1,10,Pin_10_10*
X133920000Y-65500000D03*
G04 #@! TD*
D10*
G04 #@! TO.P,J2,1,Pin_1_1*
G04 #@! TO.N,SDA*
X148078728Y-42500000D03*
D11*
G04 #@! TO.P,J2,2,Pin_2_2*
G04 #@! TO.N,SCL*
X145538728Y-42500000D03*
G04 #@! TO.P,J2,3,Pin_3_3*
G04 #@! TO.N,GND*
X142998728Y-42500000D03*
G04 #@! TO.P,J2,4,Pin_4_4*
G04 #@! TO.N,DSDIN*
X140458728Y-42500000D03*
G04 #@! TO.P,J2,5,Pin_5_5*
G04 #@! TO.N,BCLK*
X137918728Y-42500000D03*
G04 #@! TO.P,J2,6,Pin_6_6*
G04 #@! TO.N,LRCK*
X135378728Y-42500000D03*
G04 #@! TO.P,J2,7,Pin_7_7*
G04 #@! TO.N,ASDOUT*
X132838728Y-42500000D03*
G04 #@! TD*
D17*
G04 #@! TO.P,D1,1,K_1*
G04 #@! TO.N,+12V_P*
X111522500Y-68000000D03*
G04 #@! TO.P,D1,2,A_2*
G04 #@! TO.N,+12V_RAW*
X115522500Y-68000000D03*
G04 #@! TD*
D18*
G04 #@! TO.N,-12V_F*
X125100000Y-65200000D03*
X108500000Y-58450000D03*
G04 #@! TO.N,AOUT_AMP*
X101025000Y-56595000D03*
X117000000Y-50500000D03*
G04 #@! TO.N,GND*
X107900000Y-57000000D03*
X87020000Y-64550000D03*
X97000000Y-66450000D03*
X98340000Y-59130000D03*
X108500000Y-60400000D03*
G04 #@! TO.N,+5V*
X98730000Y-65020000D03*
X98670000Y-62950000D03*
X99660000Y-47890000D03*
G04 #@! TO.N,+3V3*
X137850000Y-57400000D03*
X133750000Y-48000000D03*
X113700000Y-43100000D03*
G04 #@! TO.N,SCL*
X145100000Y-54350000D03*
G04 #@! TO.N,SDA*
X147700000Y-51850000D03*
G04 #@! TO.N,+12V_P*
X111522500Y-68000000D03*
G04 #@! TO.N,DET*
X128300000Y-47450000D03*
G04 #@! TO.N,MCLK*
X134250000Y-50900000D03*
G04 #@! TO.N,BCLK*
X132200000Y-49600000D03*
X119700000Y-55800000D03*
G04 #@! TO.N,DSDIN*
X116690000Y-57260000D03*
X140100000Y-53150000D03*
G04 #@! TO.N,LRCK*
X122951103Y-55051103D03*
X131400000Y-48910000D03*
G04 #@! TO.N,ASDOUT*
X130500000Y-48350000D03*
X124540000Y-54310000D03*
G04 #@! TD*
G04 #@! TO.N,-12V_F*
D19*
X124500000Y-65200000D02*
X123850000Y-65850000D01*
X99650000Y-63750000D02*
X104950000Y-58450000D01*
X125100000Y-65200000D02*
X124500000Y-65200000D01*
X123850000Y-65850000D02*
X100750000Y-65850000D01*
X100750000Y-65850000D02*
X99650000Y-64750000D01*
X99650000Y-64750000D02*
X99650000Y-63750000D01*
X104950000Y-58450000D02*
X108500000Y-58450000D01*
G04 #@! TO.N,AOUT_AMP*
X117000000Y-50500000D02*
X112950000Y-54550000D01*
X112950000Y-54550000D02*
X103070000Y-54550000D01*
X103070000Y-54550000D02*
X101025000Y-56595000D01*
G04 #@! TO.N,+5V*
D20*
X98840000Y-65140000D02*
X100150000Y-66450000D01*
X145106911Y-63350000D02*
X148081454Y-60375457D01*
X98670000Y-62930000D02*
X99900000Y-61700000D01*
X98670000Y-62950000D02*
X98670000Y-62930000D01*
X100150000Y-66450000D02*
X128550000Y-66450000D01*
X98840000Y-65000000D02*
X98840000Y-65140000D01*
X128550000Y-66450000D02*
X131650000Y-63350000D01*
X131650000Y-63350000D02*
X145106911Y-63350000D01*
X98730000Y-65020000D02*
X98820000Y-65020000D01*
X98860000Y-65150000D02*
X98730000Y-65020000D01*
X98820000Y-65020000D02*
X98840000Y-65000000D01*
X99900000Y-48130000D02*
X99660000Y-47890000D01*
X99900000Y-61700000D02*
X99900000Y-48130000D01*
G04 #@! TO.N,+3V3*
D19*
X114200000Y-42600000D02*
X113700000Y-43100000D01*
X137740000Y-57290000D02*
X130250000Y-57290000D01*
X137850000Y-57400000D02*
X137740000Y-57290000D01*
X133750000Y-48000000D02*
X128350000Y-42600000D01*
X128350000Y-42600000D02*
X114200000Y-42600000D01*
G04 #@! TO.N,SCL*
X103550000Y-64353810D02*
X105603810Y-62300000D01*
X130050000Y-54750000D02*
X130250000Y-54750000D01*
X116650000Y-58100000D02*
X126700000Y-58100000D01*
X145100000Y-54350000D02*
X145100000Y-54400000D01*
X112450000Y-62300000D02*
X116650000Y-58100000D01*
X144750000Y-54750000D02*
X130250000Y-54750000D01*
X126700000Y-58100000D02*
X130050000Y-54750000D01*
X105603810Y-62300000D02*
X112450000Y-62300000D01*
X145100000Y-54400000D02*
X144750000Y-54750000D01*
G04 #@! TO.N,SDA*
X147340000Y-52210000D02*
X130250000Y-52210000D01*
X101546190Y-64353810D02*
X101010000Y-64353810D01*
X130250000Y-52210000D02*
X129590000Y-52210000D01*
X129590000Y-52210000D02*
X125140000Y-56660000D01*
X147700000Y-51850000D02*
X147340000Y-52210000D01*
X111050000Y-61650000D02*
X104250000Y-61650000D01*
X116040000Y-56660000D02*
X111050000Y-61650000D01*
X125140000Y-56660000D02*
X116040000Y-56660000D01*
X104250000Y-61650000D02*
X101546190Y-64353810D01*
G04 #@! TO.N,DET*
X128300000Y-47450000D02*
X127350000Y-46500000D01*
X127350000Y-46500000D02*
X116290000Y-46500000D01*
G04 #@! TO.N,MCLK*
X118250000Y-45800000D02*
X130701471Y-45800000D01*
X113750000Y-46500000D02*
X115100000Y-45150000D01*
X134250000Y-49348529D02*
X134250000Y-50900000D01*
X115100000Y-45150000D02*
X117600000Y-45150000D01*
X117600000Y-45150000D02*
X118250000Y-45800000D01*
X130701471Y-45800000D02*
X134250000Y-49348529D01*
G04 #@! TO.N,BCLK*
X132200000Y-49900000D02*
X132200000Y-49600000D01*
X119700000Y-55800000D02*
X124833654Y-55800000D01*
X131350000Y-50750000D02*
X132200000Y-49900000D01*
X124833654Y-55800000D02*
X129883654Y-50750000D01*
X129883654Y-50750000D02*
X131350000Y-50750000D01*
G04 #@! TO.N,DSDIN*
X129700000Y-53450000D02*
X125850000Y-57300000D01*
X139800000Y-53450000D02*
X129700000Y-53450000D01*
X116730000Y-57300000D02*
X116690000Y-57260000D01*
X140100000Y-53150000D02*
X139800000Y-53450000D01*
X125850000Y-57300000D02*
X116730000Y-57300000D01*
G04 #@! TO.N,LRCK*
X124648897Y-55051103D02*
X130000000Y-49700000D01*
X122951103Y-55051103D02*
X124648897Y-55051103D01*
X130000000Y-49700000D02*
X130650000Y-49700000D01*
X131400000Y-48950000D02*
X131400000Y-48910000D01*
X130650000Y-49700000D02*
X131400000Y-48950000D01*
G04 #@! TO.N,ASDOUT*
X124540000Y-54310000D02*
X130500000Y-48350000D01*
G04 #@! TO.N,+12V_RAW*
D21*
X116972500Y-69450000D02*
X115522500Y-68000000D01*
X132510000Y-69450000D02*
X116972500Y-69450000D01*
X133920000Y-68040000D02*
X132510000Y-69450000D01*
G04 #@! TD*
G04 #@! TA.AperFunction,Conductor*
G04 #@! TO.N,GND*
G36*
X132101070Y-41519407D02*
G01*
X132137034Y-41568907D01*
X132137034Y-41630093D01*
X132112884Y-41669501D01*
X131999314Y-41783072D01*
X131999313Y-41783073D01*
X131897494Y-41923214D01*
X131818853Y-42077558D01*
X131818851Y-42077561D01*
X131765326Y-42242293D01*
X131765325Y-42242297D01*
X131738229Y-42413378D01*
X131738228Y-42413384D01*
X131738228Y-42586614D01*
X131765325Y-42757702D01*
X131765326Y-42757706D01*
X131818851Y-42922438D01*
X131818853Y-42922441D01*
X131818854Y-42922444D01*
X131818855Y-42922445D01*
X131897496Y-43076788D01*
X131999314Y-43216928D01*
X132121800Y-43339414D01*
X132261940Y-43441232D01*
X132416283Y-43519873D01*
X132416285Y-43519873D01*
X132416286Y-43519874D01*
X132416289Y-43519876D01*
X132581021Y-43573401D01*
X132581025Y-43573402D01*
X132752114Y-43600500D01*
X132752117Y-43600500D01*
X132925342Y-43600500D01*
X133096430Y-43573402D01*
X133096434Y-43573401D01*
X133261166Y-43519876D01*
X133261168Y-43519874D01*
X133261173Y-43519873D01*
X133415516Y-43441232D01*
X133555656Y-43339414D01*
X133678142Y-43216928D01*
X133779960Y-43076788D01*
X133858601Y-42922445D01*
X133858602Y-42922440D01*
X133858604Y-42922438D01*
X133912129Y-42757706D01*
X133912130Y-42757702D01*
X133939228Y-42586614D01*
X133939228Y-42413384D01*
X133939227Y-42413378D01*
X133912130Y-42242297D01*
X133912129Y-42242293D01*
X133858604Y-42077561D01*
X133858602Y-42077558D01*
X133858601Y-42077557D01*
X133858601Y-42077555D01*
X133779960Y-41923212D01*
X133678142Y-41783072D01*
X133564571Y-41669501D01*
X133536796Y-41614987D01*
X133546367Y-41554555D01*
X133589632Y-41511290D01*
X133634577Y-41500500D01*
X134582879Y-41500500D01*
X134641070Y-41519407D01*
X134677034Y-41568907D01*
X134677034Y-41630093D01*
X134652884Y-41669501D01*
X134539314Y-41783072D01*
X134539313Y-41783073D01*
X134437494Y-41923214D01*
X134358853Y-42077558D01*
X134358851Y-42077561D01*
X134305326Y-42242293D01*
X134305325Y-42242297D01*
X134278229Y-42413378D01*
X134278228Y-42413384D01*
X134278228Y-42586614D01*
X134305325Y-42757702D01*
X134305326Y-42757706D01*
X134358851Y-42922438D01*
X134358853Y-42922441D01*
X134358854Y-42922444D01*
X134358855Y-42922445D01*
X134437496Y-43076788D01*
X134539314Y-43216928D01*
X134661800Y-43339414D01*
X134801940Y-43441232D01*
X134956283Y-43519873D01*
X134956285Y-43519873D01*
X134956286Y-43519874D01*
X134956289Y-43519876D01*
X135121021Y-43573401D01*
X135121025Y-43573402D01*
X135292114Y-43600500D01*
X135292117Y-43600500D01*
X135465342Y-43600500D01*
X135636430Y-43573402D01*
X135636434Y-43573401D01*
X135801166Y-43519876D01*
X135801168Y-43519874D01*
X135801173Y-43519873D01*
X135955516Y-43441232D01*
X136095656Y-43339414D01*
X136218142Y-43216928D01*
X136319960Y-43076788D01*
X136398601Y-42922445D01*
X136398602Y-42922440D01*
X136398604Y-42922438D01*
X136452129Y-42757706D01*
X136452130Y-42757702D01*
X136479228Y-42586614D01*
X136479228Y-42413384D01*
X136479227Y-42413378D01*
X136452130Y-42242297D01*
X136452129Y-42242293D01*
X136398604Y-42077561D01*
X136398602Y-42077558D01*
X136398601Y-42077557D01*
X136398601Y-42077555D01*
X136319960Y-41923212D01*
X136218142Y-41783072D01*
X136104571Y-41669501D01*
X136076796Y-41614987D01*
X136086367Y-41554555D01*
X136129632Y-41511290D01*
X136174577Y-41500500D01*
X137122879Y-41500500D01*
X137181070Y-41519407D01*
X137217034Y-41568907D01*
X137217034Y-41630093D01*
X137192884Y-41669501D01*
X137079314Y-41783072D01*
X137079313Y-41783073D01*
X136977494Y-41923214D01*
X136898853Y-42077558D01*
X136898851Y-42077561D01*
X136845326Y-42242293D01*
X136845325Y-42242297D01*
X136818229Y-42413378D01*
X136818228Y-42413384D01*
X136818228Y-42586614D01*
X136845325Y-42757702D01*
X136845326Y-42757706D01*
X136898851Y-42922438D01*
X136898853Y-42922441D01*
X136898854Y-42922444D01*
X136898855Y-42922445D01*
X136977496Y-43076788D01*
X137079314Y-43216928D01*
X137201800Y-43339414D01*
X137341940Y-43441232D01*
X137496283Y-43519873D01*
X137496285Y-43519873D01*
X137496286Y-43519874D01*
X137496289Y-43519876D01*
X137661021Y-43573401D01*
X137661025Y-43573402D01*
X137832114Y-43600500D01*
X137832117Y-43600500D01*
X138005342Y-43600500D01*
X138176430Y-43573402D01*
X138176434Y-43573401D01*
X138341166Y-43519876D01*
X138341168Y-43519874D01*
X138341173Y-43519873D01*
X138495516Y-43441232D01*
X138635656Y-43339414D01*
X138758142Y-43216928D01*
X138859960Y-43076788D01*
X138938601Y-42922445D01*
X138938602Y-42922440D01*
X138938604Y-42922438D01*
X138992129Y-42757706D01*
X138992130Y-42757702D01*
X139019228Y-42586614D01*
X139019228Y-42413384D01*
X139019227Y-42413378D01*
X138992130Y-42242297D01*
X138992129Y-42242293D01*
X138938604Y-42077561D01*
X138938602Y-42077558D01*
X138938601Y-42077557D01*
X138938601Y-42077555D01*
X138859960Y-41923212D01*
X138758142Y-41783072D01*
X138644571Y-41669501D01*
X138616796Y-41614987D01*
X138626367Y-41554555D01*
X138669632Y-41511290D01*
X138714577Y-41500500D01*
X139662879Y-41500500D01*
X139721070Y-41519407D01*
X139757034Y-41568907D01*
X139757034Y-41630093D01*
X139732884Y-41669501D01*
X139619314Y-41783072D01*
X139619313Y-41783073D01*
X139517494Y-41923214D01*
X139438853Y-42077558D01*
X139438851Y-42077561D01*
X139385326Y-42242293D01*
X139385325Y-42242297D01*
X139358229Y-42413378D01*
X139358228Y-42413384D01*
X139358228Y-42586614D01*
X139385325Y-42757702D01*
X139385326Y-42757706D01*
X139438851Y-42922438D01*
X139438853Y-42922441D01*
X139438854Y-42922444D01*
X139438855Y-42922445D01*
X139517496Y-43076788D01*
X139619314Y-43216928D01*
X139741800Y-43339414D01*
X139881940Y-43441232D01*
X140036283Y-43519873D01*
X140036285Y-43519873D01*
X140036286Y-43519874D01*
X140036289Y-43519876D01*
X140201021Y-43573401D01*
X140201025Y-43573402D01*
X140372114Y-43600500D01*
X140372117Y-43600500D01*
X140545342Y-43600500D01*
X140716430Y-43573402D01*
X140716434Y-43573401D01*
X140881166Y-43519876D01*
X140881168Y-43519874D01*
X140881173Y-43519873D01*
X141035516Y-43441232D01*
X141175656Y-43339414D01*
X141298142Y-43216928D01*
X141399960Y-43076788D01*
X141478601Y-42922445D01*
X141478602Y-42922440D01*
X141478604Y-42922438D01*
X141532129Y-42757706D01*
X141532130Y-42757702D01*
X141559228Y-42586614D01*
X141559228Y-42413385D01*
X141532130Y-42242297D01*
X141532129Y-42242293D01*
X141478604Y-42077561D01*
X141478602Y-42077558D01*
X141478601Y-42077557D01*
X141478601Y-42077555D01*
X141399960Y-41923212D01*
X141298142Y-41783072D01*
X141184571Y-41669501D01*
X141156796Y-41614987D01*
X141166367Y-41554555D01*
X141209632Y-41511290D01*
X141254577Y-41500500D01*
X142241063Y-41500500D01*
X142299254Y-41519407D01*
X142311067Y-41529496D01*
X142813551Y-42031980D01*
X142805735Y-42034075D01*
X142691721Y-42099901D01*
X142598629Y-42192993D01*
X142532803Y-42307007D01*
X142530708Y-42314823D01*
X142056395Y-41840510D01*
X142015160Y-41897267D01*
X141932978Y-42058559D01*
X141877044Y-42230710D01*
X141848728Y-42409489D01*
X141848728Y-42590510D01*
X141877044Y-42769289D01*
X141932978Y-42941440D01*
X142015158Y-43102728D01*
X142056395Y-43159488D01*
X142530708Y-42685174D01*
X142532803Y-42692993D01*
X142598629Y-42807007D01*
X142691721Y-42900099D01*
X142805735Y-42965925D01*
X142813549Y-42968019D01*
X142339239Y-43442330D01*
X142396003Y-43483571D01*
X142557287Y-43565749D01*
X142729438Y-43621683D01*
X142908218Y-43650000D01*
X143089238Y-43650000D01*
X143268017Y-43621683D01*
X143440168Y-43565749D01*
X143601456Y-43483569D01*
X143658215Y-43442330D01*
X143183904Y-42968019D01*
X143191721Y-42965925D01*
X143305735Y-42900099D01*
X143398827Y-42807007D01*
X143464653Y-42692993D01*
X143466747Y-42685176D01*
X143941058Y-43159487D01*
X143982297Y-43102728D01*
X144064477Y-42941440D01*
X144120411Y-42769289D01*
X144148728Y-42590510D01*
X144148728Y-42409489D01*
X144120411Y-42230710D01*
X144064477Y-42058559D01*
X143982299Y-41897275D01*
X143941058Y-41840511D01*
X143466747Y-42314821D01*
X143464653Y-42307007D01*
X143398827Y-42192993D01*
X143305735Y-42099901D01*
X143191721Y-42034075D01*
X143183903Y-42031980D01*
X143686388Y-41529496D01*
X143740905Y-41501719D01*
X143756392Y-41500500D01*
X144742879Y-41500500D01*
X144801070Y-41519407D01*
X144837034Y-41568907D01*
X144837034Y-41630093D01*
X144812884Y-41669501D01*
X144699314Y-41783072D01*
X144699313Y-41783073D01*
X144597494Y-41923214D01*
X144518853Y-42077558D01*
X144518851Y-42077561D01*
X144465326Y-42242293D01*
X144465325Y-42242297D01*
X144438229Y-42413378D01*
X144438228Y-42413384D01*
X144438228Y-42586614D01*
X144465325Y-42757702D01*
X144465326Y-42757706D01*
X144518851Y-42922438D01*
X144518853Y-42922441D01*
X144518854Y-42922444D01*
X144518855Y-42922445D01*
X144597496Y-43076788D01*
X144699314Y-43216928D01*
X144821800Y-43339414D01*
X144961940Y-43441232D01*
X145116283Y-43519873D01*
X145116285Y-43519873D01*
X145116286Y-43519874D01*
X145116289Y-43519876D01*
X145281021Y-43573401D01*
X145281025Y-43573402D01*
X145452114Y-43600500D01*
X145452117Y-43600500D01*
X145625342Y-43600500D01*
X145796430Y-43573402D01*
X145796434Y-43573401D01*
X145961166Y-43519876D01*
X145961168Y-43519874D01*
X145961173Y-43519873D01*
X146115516Y-43441232D01*
X146255656Y-43339414D01*
X146378142Y-43216928D01*
X146479960Y-43076788D01*
X146558601Y-42922445D01*
X146558602Y-42922440D01*
X146558604Y-42922438D01*
X146612129Y-42757706D01*
X146612130Y-42757702D01*
X146639228Y-42586614D01*
X146639228Y-42413384D01*
X146639227Y-42413378D01*
X146612130Y-42242297D01*
X146612129Y-42242293D01*
X146558604Y-42077561D01*
X146558602Y-42077558D01*
X146558601Y-42077557D01*
X146558601Y-42077555D01*
X146479960Y-41923212D01*
X146378142Y-41783072D01*
X146264571Y-41669501D01*
X146236796Y-41614987D01*
X146246367Y-41554555D01*
X146289632Y-41511290D01*
X146334577Y-41500500D01*
X146882425Y-41500500D01*
X146940616Y-41519407D01*
X146976580Y-41568907D01*
X146979523Y-41618813D01*
X146978228Y-41625320D01*
X146978228Y-43374672D01*
X146978229Y-43374684D01*
X146992761Y-43447736D01*
X146992763Y-43447742D01*
X147048125Y-43530599D01*
X147048128Y-43530602D01*
X147111375Y-43572861D01*
X147130988Y-43585966D01*
X147186536Y-43597015D01*
X147204043Y-43600498D01*
X147204048Y-43600498D01*
X147204054Y-43600500D01*
X147204055Y-43600500D01*
X148953401Y-43600500D01*
X148953402Y-43600500D01*
X149026468Y-43585966D01*
X149109329Y-43530601D01*
X149164694Y-43447740D01*
X149179228Y-43374674D01*
X149179228Y-41625326D01*
X149179227Y-41625320D01*
X149177933Y-41618813D01*
X149185125Y-41558052D01*
X149226658Y-41513122D01*
X149275031Y-41500500D01*
X149400500Y-41500500D01*
X149458691Y-41519407D01*
X149494655Y-41568907D01*
X149499500Y-41599500D01*
X149499500Y-70400500D01*
X149480593Y-70458691D01*
X149431093Y-70494655D01*
X149400500Y-70499500D01*
X84596707Y-70499500D01*
X84538516Y-70480593D01*
X84502552Y-70431093D01*
X84497707Y-70400735D01*
X84493947Y-68819907D01*
X84482426Y-63975327D01*
X88499500Y-63975327D01*
X88499500Y-66524672D01*
X88499501Y-66524684D01*
X88514033Y-66597736D01*
X88514035Y-66597742D01*
X88569397Y-66680599D01*
X88569400Y-66680602D01*
X88616468Y-66712051D01*
X88652260Y-66735966D01*
X88707808Y-66747015D01*
X88725315Y-66750498D01*
X88725320Y-66750498D01*
X88725326Y-66750500D01*
X88725327Y-66750500D01*
X90274673Y-66750500D01*
X90274674Y-66750500D01*
X90347740Y-66735966D01*
X90430601Y-66680601D01*
X90485966Y-66597740D01*
X90500500Y-66524674D01*
X90500500Y-64646581D01*
X90990000Y-64646581D01*
X90990000Y-65049999D01*
X90990001Y-65050000D01*
X91578120Y-65050000D01*
X91574075Y-65057007D01*
X91540000Y-65184174D01*
X91540000Y-65315826D01*
X91574075Y-65442993D01*
X91578120Y-65450000D01*
X90990001Y-65450000D01*
X90990000Y-65450001D01*
X90990000Y-65853418D01*
X91030349Y-66056272D01*
X91109501Y-66247360D01*
X91109508Y-66247374D01*
X91224405Y-66419329D01*
X91370670Y-66565594D01*
X91542625Y-66680491D01*
X91542639Y-66680498D01*
X91733723Y-66759648D01*
X91733730Y-66759650D01*
X91840000Y-66780787D01*
X91840000Y-65711879D01*
X91847007Y-65715925D01*
X91974174Y-65750000D01*
X92105826Y-65750000D01*
X92232993Y-65715925D01*
X92240000Y-65711879D01*
X92240000Y-66780786D01*
X92346269Y-66759650D01*
X92346276Y-66759648D01*
X92537360Y-66680498D01*
X92537374Y-66680491D01*
X92709329Y-66565594D01*
X92855594Y-66419329D01*
X92970491Y-66247374D01*
X92970498Y-66247360D01*
X93049650Y-66056272D01*
X93089999Y-65853418D01*
X93090000Y-65853413D01*
X93090000Y-65450001D01*
X93089999Y-65450000D01*
X92501880Y-65450000D01*
X92505925Y-65442993D01*
X92540000Y-65315826D01*
X92540000Y-65184174D01*
X92505925Y-65057007D01*
X92501880Y-65050000D01*
X93089999Y-65050000D01*
X93090000Y-65049999D01*
X93090000Y-64651456D01*
X93579500Y-64651456D01*
X93579500Y-65848543D01*
X93617949Y-66041834D01*
X93617949Y-66041836D01*
X93693367Y-66223913D01*
X93693368Y-66223914D01*
X93802861Y-66387782D01*
X93942218Y-66527139D01*
X94106086Y-66636632D01*
X94288165Y-66712051D01*
X94481459Y-66750500D01*
X94481460Y-66750500D01*
X94678540Y-66750500D01*
X94678541Y-66750500D01*
X94871835Y-66712051D01*
X95053914Y-66636632D01*
X95217782Y-66527139D01*
X95357139Y-66387782D01*
X95466632Y-66223914D01*
X95542051Y-66041835D01*
X95580500Y-65848541D01*
X95580500Y-64947525D01*
X98179500Y-64947525D01*
X98179500Y-65092474D01*
X98217017Y-65232489D01*
X98289487Y-65358010D01*
X98289489Y-65358012D01*
X98289491Y-65358015D01*
X98391985Y-65460509D01*
X98391987Y-65460510D01*
X98391989Y-65460512D01*
X98517511Y-65532982D01*
X98517512Y-65532982D01*
X98517515Y-65532984D01*
X98657525Y-65570500D01*
X98663099Y-65570500D01*
X98721290Y-65589407D01*
X98733103Y-65599496D01*
X99829518Y-66695910D01*
X99829520Y-66695913D01*
X99904087Y-66770480D01*
X99949750Y-66796843D01*
X99995412Y-66823207D01*
X100097273Y-66850500D01*
X110073443Y-66850500D01*
X110131634Y-66869407D01*
X110167598Y-66918907D01*
X110167598Y-66980093D01*
X110152696Y-67008827D01*
X110144238Y-67020127D01*
X110078702Y-67107670D01*
X110028410Y-67242511D01*
X110028408Y-67242522D01*
X110022000Y-67302129D01*
X110022000Y-68697866D01*
X110022001Y-68697870D01*
X110028408Y-68757480D01*
X110028409Y-68757485D01*
X110078702Y-68892329D01*
X110145255Y-68981232D01*
X110164954Y-69007546D01*
X110164957Y-69007548D01*
X110164958Y-69007549D01*
X110280170Y-69093797D01*
X110415011Y-69144089D01*
X110415012Y-69144089D01*
X110415017Y-69144091D01*
X110474627Y-69150500D01*
X112570372Y-69150499D01*
X112629983Y-69144091D01*
X112712267Y-69113401D01*
X112764829Y-69093797D01*
X112764829Y-69093796D01*
X112764831Y-69093796D01*
X112880046Y-69007546D01*
X112966296Y-68892331D01*
X112970488Y-68881093D01*
X113016589Y-68757488D01*
X113016590Y-68757485D01*
X113016591Y-68757483D01*
X113023000Y-68697873D01*
X113022999Y-67302128D01*
X113016591Y-67242517D01*
X113000952Y-67200586D01*
X112966297Y-67107670D01*
X112900762Y-67020127D01*
X112892303Y-67008828D01*
X112872567Y-66950915D01*
X112890641Y-66892460D01*
X112939622Y-66855792D01*
X112971557Y-66850500D01*
X114073443Y-66850500D01*
X114131634Y-66869407D01*
X114167598Y-66918907D01*
X114167598Y-66980093D01*
X114152696Y-67008827D01*
X114144238Y-67020127D01*
X114078702Y-67107670D01*
X114028410Y-67242511D01*
X114028408Y-67242522D01*
X114022000Y-67302129D01*
X114022000Y-68697866D01*
X114022001Y-68697870D01*
X114028408Y-68757480D01*
X114028409Y-68757485D01*
X114078702Y-68892329D01*
X114145255Y-68981232D01*
X114164954Y-69007546D01*
X114164957Y-69007548D01*
X114164958Y-69007549D01*
X114280170Y-69093797D01*
X114415011Y-69144089D01*
X114415012Y-69144089D01*
X114415017Y-69144091D01*
X114474627Y-69150500D01*
X115924177Y-69150499D01*
X115982368Y-69169406D01*
X115994181Y-69179495D01*
X116572000Y-69757314D01*
X116571999Y-69757314D01*
X116665185Y-69850499D01*
X116665190Y-69850503D01*
X116779310Y-69916390D01*
X116779308Y-69916390D01*
X116779312Y-69916391D01*
X116779314Y-69916392D01*
X116906608Y-69950500D01*
X116906610Y-69950500D01*
X132575890Y-69950500D01*
X132575892Y-69950500D01*
X132703186Y-69916392D01*
X132703188Y-69916390D01*
X132703190Y-69916390D01*
X132817309Y-69850503D01*
X132817309Y-69850502D01*
X132817314Y-69850500D01*
X133537973Y-69129839D01*
X133592488Y-69102064D01*
X133638567Y-69105690D01*
X133662299Y-69113402D01*
X133662302Y-69113402D01*
X133662304Y-69113403D01*
X133662302Y-69113403D01*
X133833386Y-69140500D01*
X133833389Y-69140500D01*
X134006614Y-69140500D01*
X134177702Y-69113402D01*
X134177706Y-69113401D01*
X134342438Y-69059876D01*
X134342440Y-69059874D01*
X134342445Y-69059873D01*
X134496788Y-68981232D01*
X134636928Y-68879414D01*
X134759414Y-68756928D01*
X134861232Y-68616788D01*
X134939873Y-68462445D01*
X134939874Y-68462440D01*
X134939876Y-68462438D01*
X134993401Y-68297706D01*
X134993402Y-68297702D01*
X135020500Y-68126614D01*
X135020500Y-67953385D01*
X135019883Y-67949489D01*
X135310000Y-67949489D01*
X135310000Y-68130510D01*
X135338316Y-68309289D01*
X135394250Y-68481440D01*
X135476430Y-68642728D01*
X135517667Y-68699488D01*
X135991980Y-68225174D01*
X135994075Y-68232993D01*
X136059901Y-68347007D01*
X136152993Y-68440099D01*
X136267007Y-68505925D01*
X136274821Y-68508019D01*
X135800511Y-68982330D01*
X135857275Y-69023571D01*
X136018559Y-69105749D01*
X136190710Y-69161683D01*
X136369490Y-69190000D01*
X136550510Y-69190000D01*
X136729289Y-69161683D01*
X136901440Y-69105749D01*
X137062728Y-69023569D01*
X137119487Y-68982330D01*
X136645176Y-68508019D01*
X136652993Y-68505925D01*
X136767007Y-68440099D01*
X136860099Y-68347007D01*
X136925925Y-68232993D01*
X136928019Y-68225176D01*
X137402330Y-68699487D01*
X137443569Y-68642728D01*
X137525749Y-68481440D01*
X137581683Y-68309289D01*
X137610000Y-68130510D01*
X137610000Y-67949489D01*
X137850000Y-67949489D01*
X137850000Y-68130510D01*
X137878316Y-68309289D01*
X137934250Y-68481440D01*
X138016430Y-68642728D01*
X138057667Y-68699488D01*
X138531980Y-68225174D01*
X138534075Y-68232993D01*
X138599901Y-68347007D01*
X138692993Y-68440099D01*
X138807007Y-68505925D01*
X138814821Y-68508019D01*
X138340511Y-68982330D01*
X138397275Y-69023571D01*
X138558559Y-69105749D01*
X138730710Y-69161683D01*
X138909490Y-69190000D01*
X139090510Y-69190000D01*
X139269289Y-69161683D01*
X139441440Y-69105749D01*
X139602728Y-69023569D01*
X139659487Y-68982330D01*
X139185176Y-68508019D01*
X139192993Y-68505925D01*
X139307007Y-68440099D01*
X139400099Y-68347007D01*
X139465925Y-68232993D01*
X139468019Y-68225176D01*
X139942330Y-68699487D01*
X139983569Y-68642728D01*
X140065749Y-68481440D01*
X140121683Y-68309289D01*
X140150000Y-68130510D01*
X140150000Y-67949489D01*
X140390000Y-67949489D01*
X140390000Y-68130510D01*
X140418316Y-68309289D01*
X140474250Y-68481440D01*
X140556430Y-68642728D01*
X140597667Y-68699488D01*
X141071980Y-68225174D01*
X141074075Y-68232993D01*
X141139901Y-68347007D01*
X141232993Y-68440099D01*
X141347007Y-68505925D01*
X141354821Y-68508019D01*
X140880511Y-68982330D01*
X140937275Y-69023571D01*
X141098559Y-69105749D01*
X141270710Y-69161683D01*
X141449490Y-69190000D01*
X141630510Y-69190000D01*
X141809289Y-69161683D01*
X141981440Y-69105749D01*
X142142728Y-69023569D01*
X142199487Y-68982330D01*
X141725176Y-68508019D01*
X141732993Y-68505925D01*
X141847007Y-68440099D01*
X141940099Y-68347007D01*
X142005925Y-68232993D01*
X142008019Y-68225176D01*
X142482330Y-68699487D01*
X142523569Y-68642728D01*
X142605749Y-68481440D01*
X142661683Y-68309289D01*
X142690000Y-68130510D01*
X142690000Y-67949489D01*
X142661683Y-67770710D01*
X142605749Y-67598559D01*
X142523571Y-67437275D01*
X142490771Y-67392129D01*
X142979500Y-67392129D01*
X142979500Y-68687866D01*
X142979501Y-68687870D01*
X142985908Y-68747480D01*
X142985909Y-68747485D01*
X143036202Y-68882329D01*
X143110241Y-68981232D01*
X143122454Y-68997546D01*
X143122457Y-68997548D01*
X143122458Y-68997549D01*
X143237670Y-69083797D01*
X143372511Y-69134089D01*
X143372512Y-69134089D01*
X143372517Y-69134091D01*
X143432127Y-69140500D01*
X144727872Y-69140499D01*
X144787483Y-69134091D01*
X144863472Y-69105749D01*
X144922329Y-69083797D01*
X144922329Y-69083796D01*
X144922331Y-69083796D01*
X145037546Y-68997546D01*
X145123796Y-68882331D01*
X145174091Y-68747483D01*
X145180500Y-68687873D01*
X145180499Y-67392128D01*
X145174091Y-67332517D01*
X145162757Y-67302128D01*
X145123797Y-67197670D01*
X145037549Y-67082458D01*
X145037548Y-67082457D01*
X145037546Y-67082454D01*
X145037541Y-67082450D01*
X144922329Y-66996202D01*
X144787488Y-66945910D01*
X144787483Y-66945909D01*
X144787481Y-66945908D01*
X144787477Y-66945908D01*
X144756249Y-66942550D01*
X144727873Y-66939500D01*
X144727870Y-66939500D01*
X143432133Y-66939500D01*
X143432129Y-66939500D01*
X143432128Y-66939501D01*
X143424949Y-66940272D01*
X143372519Y-66945908D01*
X143372514Y-66945909D01*
X143237670Y-66996202D01*
X143122458Y-67082450D01*
X143122450Y-67082458D01*
X143036202Y-67197670D01*
X142985910Y-67332511D01*
X142985908Y-67332522D01*
X142979500Y-67392129D01*
X142490771Y-67392129D01*
X142482330Y-67380511D01*
X142008019Y-67854821D01*
X142005925Y-67847007D01*
X141940099Y-67732993D01*
X141847007Y-67639901D01*
X141732993Y-67574075D01*
X141725174Y-67571980D01*
X142199488Y-67097667D01*
X142142728Y-67056430D01*
X141981440Y-66974250D01*
X141809289Y-66918316D01*
X141630510Y-66890000D01*
X141449490Y-66890000D01*
X141270710Y-66918316D01*
X141098559Y-66974250D01*
X140937267Y-67056432D01*
X140880510Y-67097667D01*
X141354823Y-67571980D01*
X141347007Y-67574075D01*
X141232993Y-67639901D01*
X141139901Y-67732993D01*
X141074075Y-67847007D01*
X141071980Y-67854823D01*
X140597667Y-67380510D01*
X140556432Y-67437267D01*
X140474250Y-67598559D01*
X140418316Y-67770710D01*
X140390000Y-67949489D01*
X140150000Y-67949489D01*
X140121683Y-67770710D01*
X140065749Y-67598559D01*
X139983571Y-67437275D01*
X139942330Y-67380511D01*
X139468019Y-67854821D01*
X139465925Y-67847007D01*
X139400099Y-67732993D01*
X139307007Y-67639901D01*
X139192993Y-67574075D01*
X139185174Y-67571980D01*
X139659488Y-67097667D01*
X139602728Y-67056430D01*
X139441440Y-66974250D01*
X139269289Y-66918316D01*
X139090510Y-66890000D01*
X138909490Y-66890000D01*
X138730710Y-66918316D01*
X138558559Y-66974250D01*
X138397267Y-67056432D01*
X138340510Y-67097667D01*
X138814823Y-67571980D01*
X138807007Y-67574075D01*
X138692993Y-67639901D01*
X138599901Y-67732993D01*
X138534075Y-67847007D01*
X138531980Y-67854823D01*
X138057667Y-67380510D01*
X138016432Y-67437267D01*
X137934250Y-67598559D01*
X137878316Y-67770710D01*
X137850000Y-67949489D01*
X137610000Y-67949489D01*
X137581683Y-67770710D01*
X137525749Y-67598559D01*
X137443571Y-67437275D01*
X137402330Y-67380511D01*
X136928019Y-67854821D01*
X136925925Y-67847007D01*
X136860099Y-67732993D01*
X136767007Y-67639901D01*
X136652993Y-67574075D01*
X136645174Y-67571980D01*
X137119488Y-67097667D01*
X137062728Y-67056430D01*
X136901440Y-66974250D01*
X136729289Y-66918316D01*
X136550510Y-66890000D01*
X136369490Y-66890000D01*
X136190710Y-66918316D01*
X136018559Y-66974250D01*
X135857267Y-67056432D01*
X135800510Y-67097667D01*
X136274823Y-67571980D01*
X136267007Y-67574075D01*
X136152993Y-67639901D01*
X136059901Y-67732993D01*
X135994075Y-67847007D01*
X135991980Y-67854823D01*
X135517667Y-67380510D01*
X135476432Y-67437267D01*
X135394250Y-67598559D01*
X135338316Y-67770710D01*
X135310000Y-67949489D01*
X135019883Y-67949489D01*
X134993402Y-67782297D01*
X134993401Y-67782293D01*
X134939876Y-67617561D01*
X134939874Y-67617558D01*
X134939873Y-67617557D01*
X134939873Y-67617555D01*
X134861232Y-67463212D01*
X134759414Y-67323072D01*
X134636928Y-67200586D01*
X134496788Y-67098768D01*
X134496787Y-67098767D01*
X134496785Y-67098766D01*
X134342441Y-67020125D01*
X134342438Y-67020123D01*
X134177706Y-66966598D01*
X134177702Y-66966597D01*
X134006614Y-66939500D01*
X134006611Y-66939500D01*
X133833389Y-66939500D01*
X133833386Y-66939500D01*
X133662297Y-66966597D01*
X133662293Y-66966598D01*
X133497561Y-67020123D01*
X133497558Y-67020125D01*
X133343214Y-67098766D01*
X133203073Y-67200585D01*
X133080585Y-67323073D01*
X132978766Y-67463214D01*
X132900125Y-67617558D01*
X132900123Y-67617561D01*
X132846598Y-67782293D01*
X132846597Y-67782297D01*
X132819501Y-67953378D01*
X132819500Y-67953384D01*
X132819500Y-68126614D01*
X132846596Y-68297696D01*
X132849893Y-68307844D01*
X132854308Y-68321429D01*
X132854309Y-68382613D01*
X132830158Y-68422025D01*
X132331682Y-68920503D01*
X132277165Y-68948281D01*
X132261678Y-68949500D01*
X124703738Y-68949500D01*
X124645547Y-68930593D01*
X124609583Y-68881093D01*
X124609583Y-68819907D01*
X124624811Y-68792075D01*
X124624437Y-68791825D01*
X124627137Y-68787783D01*
X124627139Y-68787782D01*
X124736632Y-68623914D01*
X124812051Y-68441835D01*
X124850500Y-68248541D01*
X124850500Y-68051459D01*
X124812051Y-67858165D01*
X124736632Y-67676086D01*
X124627139Y-67512218D01*
X124487782Y-67372861D01*
X124323914Y-67263368D01*
X124323915Y-67263368D01*
X124323913Y-67263367D01*
X124141835Y-67187949D01*
X123948543Y-67149500D01*
X123948541Y-67149500D01*
X122051459Y-67149500D01*
X122051456Y-67149500D01*
X121858165Y-67187949D01*
X121858163Y-67187949D01*
X121676086Y-67263367D01*
X121512218Y-67372861D01*
X121512214Y-67372864D01*
X121372864Y-67512214D01*
X121372861Y-67512218D01*
X121263367Y-67676086D01*
X121187949Y-67858163D01*
X121187949Y-67858165D01*
X121149500Y-68051456D01*
X121149500Y-68248543D01*
X121187949Y-68441834D01*
X121187949Y-68441836D01*
X121263367Y-68623913D01*
X121263368Y-68623914D01*
X121372861Y-68787782D01*
X121372862Y-68787783D01*
X121375563Y-68791825D01*
X121374647Y-68792436D01*
X121395091Y-68844677D01*
X121379638Y-68903879D01*
X121332339Y-68942692D01*
X121296262Y-68949500D01*
X117220822Y-68949500D01*
X117162631Y-68930593D01*
X117150818Y-68920504D01*
X117047288Y-68816974D01*
X117019511Y-68762457D01*
X117018859Y-68736388D01*
X117023000Y-68697873D01*
X117022999Y-67302128D01*
X117016591Y-67242517D01*
X117000952Y-67200586D01*
X116966297Y-67107670D01*
X116900762Y-67020127D01*
X116892303Y-67008828D01*
X116872567Y-66950915D01*
X116890641Y-66892460D01*
X116939622Y-66855792D01*
X116971557Y-66850500D01*
X128602725Y-66850500D01*
X128602727Y-66850500D01*
X128704588Y-66823207D01*
X128704590Y-66823205D01*
X128704592Y-66823205D01*
X128795908Y-66770483D01*
X128795908Y-66770482D01*
X128795913Y-66770480D01*
X130153009Y-65413384D01*
X132819500Y-65413384D01*
X132819500Y-65586614D01*
X132846597Y-65757702D01*
X132846598Y-65757706D01*
X132900123Y-65922438D01*
X132900125Y-65922441D01*
X132968314Y-66056272D01*
X132978768Y-66076788D01*
X133080586Y-66216928D01*
X133203072Y-66339414D01*
X133343212Y-66441232D01*
X133497555Y-66519873D01*
X133497557Y-66519873D01*
X133497558Y-66519874D01*
X133497561Y-66519876D01*
X133662293Y-66573401D01*
X133662297Y-66573402D01*
X133833386Y-66600500D01*
X133833389Y-66600500D01*
X134006614Y-66600500D01*
X134177702Y-66573402D01*
X134177706Y-66573401D01*
X134342438Y-66519876D01*
X134342440Y-66519874D01*
X134342445Y-66519873D01*
X134496788Y-66441232D01*
X134636928Y-66339414D01*
X134759414Y-66216928D01*
X134861232Y-66076788D01*
X134939873Y-65922445D01*
X134939874Y-65922440D01*
X134939876Y-65922438D01*
X134993401Y-65757706D01*
X134993402Y-65757702D01*
X135020500Y-65586614D01*
X135020500Y-65413385D01*
X135019883Y-65409489D01*
X135310000Y-65409489D01*
X135310000Y-65590510D01*
X135338316Y-65769289D01*
X135394250Y-65941440D01*
X135476430Y-66102728D01*
X135517667Y-66159488D01*
X135991980Y-65685174D01*
X135994075Y-65692993D01*
X136059901Y-65807007D01*
X136152993Y-65900099D01*
X136267007Y-65965925D01*
X136274821Y-65968019D01*
X135800511Y-66442330D01*
X135857275Y-66483571D01*
X136018559Y-66565749D01*
X136190710Y-66621683D01*
X136369490Y-66650000D01*
X136550510Y-66650000D01*
X136729289Y-66621683D01*
X136901440Y-66565749D01*
X137062728Y-66483569D01*
X137119487Y-66442330D01*
X136645176Y-65968019D01*
X136652993Y-65965925D01*
X136767007Y-65900099D01*
X136860099Y-65807007D01*
X136925925Y-65692993D01*
X136928019Y-65685176D01*
X137402330Y-66159487D01*
X137443569Y-66102728D01*
X137525749Y-65941440D01*
X137581683Y-65769289D01*
X137610000Y-65590510D01*
X137610000Y-65409489D01*
X137850000Y-65409489D01*
X137850000Y-65590510D01*
X137878316Y-65769289D01*
X137934250Y-65941440D01*
X138016430Y-66102728D01*
X138057667Y-66159488D01*
X138531980Y-65685174D01*
X138534075Y-65692993D01*
X138599901Y-65807007D01*
X138692993Y-65900099D01*
X138807007Y-65965925D01*
X138814821Y-65968019D01*
X138340511Y-66442330D01*
X138397275Y-66483571D01*
X138558559Y-66565749D01*
X138730710Y-66621683D01*
X138909490Y-66650000D01*
X139090510Y-66650000D01*
X139269289Y-66621683D01*
X139441440Y-66565749D01*
X139602728Y-66483569D01*
X139659487Y-66442330D01*
X139185176Y-65968019D01*
X139192993Y-65965925D01*
X139307007Y-65900099D01*
X139400099Y-65807007D01*
X139465925Y-65692993D01*
X139468019Y-65685176D01*
X139942330Y-66159487D01*
X139983569Y-66102728D01*
X140065749Y-65941440D01*
X140121683Y-65769289D01*
X140150000Y-65590510D01*
X140150000Y-65409489D01*
X140390000Y-65409489D01*
X140390000Y-65590510D01*
X140418316Y-65769289D01*
X140474250Y-65941440D01*
X140556430Y-66102728D01*
X140597667Y-66159488D01*
X141071980Y-65685174D01*
X141074075Y-65692993D01*
X141139901Y-65807007D01*
X141232993Y-65900099D01*
X141347007Y-65965925D01*
X141354821Y-65968019D01*
X140880511Y-66442330D01*
X140937275Y-66483571D01*
X141098559Y-66565749D01*
X141270710Y-66621683D01*
X141449490Y-66650000D01*
X141630510Y-66650000D01*
X141809289Y-66621683D01*
X141981440Y-66565749D01*
X142142728Y-66483569D01*
X142199487Y-66442330D01*
X141725176Y-65968019D01*
X141732993Y-65965925D01*
X141847007Y-65900099D01*
X141940099Y-65807007D01*
X142005925Y-65692993D01*
X142008019Y-65685176D01*
X142482330Y-66159487D01*
X142523569Y-66102728D01*
X142605749Y-65941440D01*
X142661683Y-65769289D01*
X142690000Y-65590510D01*
X142690000Y-65413384D01*
X142979500Y-65413384D01*
X142979500Y-65586614D01*
X143006597Y-65757702D01*
X143006598Y-65757706D01*
X143060123Y-65922438D01*
X143060125Y-65922441D01*
X143128314Y-66056272D01*
X143138768Y-66076788D01*
X143240586Y-66216928D01*
X143363072Y-66339414D01*
X143503212Y-66441232D01*
X143657555Y-66519873D01*
X143657557Y-66519873D01*
X143657558Y-66519874D01*
X143657561Y-66519876D01*
X143822293Y-66573401D01*
X143822297Y-66573402D01*
X143993386Y-66600500D01*
X143993389Y-66600500D01*
X144166614Y-66600500D01*
X144337702Y-66573402D01*
X144337706Y-66573401D01*
X144502438Y-66519876D01*
X144502440Y-66519874D01*
X144502445Y-66519873D01*
X144656788Y-66441232D01*
X144796928Y-66339414D01*
X144919414Y-66216928D01*
X145021232Y-66076788D01*
X145099873Y-65922445D01*
X145099874Y-65922440D01*
X145099876Y-65922438D01*
X145153401Y-65757706D01*
X145153402Y-65757702D01*
X145180500Y-65586614D01*
X145180500Y-65413384D01*
X145180499Y-65413378D01*
X145153402Y-65242297D01*
X145153401Y-65242293D01*
X145099876Y-65077561D01*
X145099874Y-65077558D01*
X145099873Y-65077557D01*
X145099873Y-65077555D01*
X145021232Y-64923212D01*
X144919414Y-64783072D01*
X144796928Y-64660586D01*
X144656788Y-64558768D01*
X144656787Y-64558767D01*
X144656785Y-64558766D01*
X144502441Y-64480125D01*
X144502438Y-64480123D01*
X144337706Y-64426598D01*
X144337702Y-64426597D01*
X144166614Y-64399500D01*
X144166611Y-64399500D01*
X143993389Y-64399500D01*
X143993386Y-64399500D01*
X143822297Y-64426597D01*
X143822293Y-64426598D01*
X143657561Y-64480123D01*
X143657558Y-64480125D01*
X143503214Y-64558766D01*
X143363073Y-64660585D01*
X143240585Y-64783073D01*
X143138766Y-64923214D01*
X143060125Y-65077558D01*
X143060123Y-65077561D01*
X143006598Y-65242293D01*
X143006597Y-65242297D01*
X142979501Y-65413378D01*
X142979500Y-65413384D01*
X142690000Y-65413384D01*
X142690000Y-65409489D01*
X142661683Y-65230710D01*
X142605749Y-65058559D01*
X142523571Y-64897275D01*
X142482330Y-64840511D01*
X142008019Y-65314821D01*
X142005925Y-65307007D01*
X141940099Y-65192993D01*
X141847007Y-65099901D01*
X141732993Y-65034075D01*
X141725174Y-65031980D01*
X142199488Y-64557667D01*
X142142728Y-64516430D01*
X141981440Y-64434250D01*
X141809289Y-64378316D01*
X141630510Y-64350000D01*
X141449490Y-64350000D01*
X141270710Y-64378316D01*
X141098559Y-64434250D01*
X140937267Y-64516432D01*
X140880510Y-64557667D01*
X141354823Y-65031980D01*
X141347007Y-65034075D01*
X141232993Y-65099901D01*
X141139901Y-65192993D01*
X141074075Y-65307007D01*
X141071980Y-65314823D01*
X140597667Y-64840510D01*
X140556432Y-64897267D01*
X140474250Y-65058559D01*
X140418316Y-65230710D01*
X140390000Y-65409489D01*
X140150000Y-65409489D01*
X140121683Y-65230710D01*
X140065749Y-65058559D01*
X139983571Y-64897275D01*
X139942330Y-64840511D01*
X139468019Y-65314821D01*
X139465925Y-65307007D01*
X139400099Y-65192993D01*
X139307007Y-65099901D01*
X139192993Y-65034075D01*
X139185174Y-65031980D01*
X139659488Y-64557667D01*
X139602728Y-64516430D01*
X139441440Y-64434250D01*
X139269289Y-64378316D01*
X139090510Y-64350000D01*
X138909490Y-64350000D01*
X138730710Y-64378316D01*
X138558559Y-64434250D01*
X138397267Y-64516432D01*
X138340510Y-64557667D01*
X138814823Y-65031980D01*
X138807007Y-65034075D01*
X138692993Y-65099901D01*
X138599901Y-65192993D01*
X138534075Y-65307007D01*
X138531980Y-65314823D01*
X138057667Y-64840510D01*
X138016432Y-64897267D01*
X137934250Y-65058559D01*
X137878316Y-65230710D01*
X137850000Y-65409489D01*
X137610000Y-65409489D01*
X137581683Y-65230710D01*
X137525749Y-65058559D01*
X137443571Y-64897275D01*
X137402330Y-64840511D01*
X136928019Y-65314821D01*
X136925925Y-65307007D01*
X136860099Y-65192993D01*
X136767007Y-65099901D01*
X136652993Y-65034075D01*
X136645174Y-65031980D01*
X137119488Y-64557667D01*
X137062728Y-64516430D01*
X136901440Y-64434250D01*
X136729289Y-64378316D01*
X136550510Y-64350000D01*
X136369490Y-64350000D01*
X136190710Y-64378316D01*
X136018559Y-64434250D01*
X135857267Y-64516432D01*
X135800510Y-64557667D01*
X136274823Y-65031980D01*
X136267007Y-65034075D01*
X136152993Y-65099901D01*
X136059901Y-65192993D01*
X135994075Y-65307007D01*
X135991980Y-65314823D01*
X135517667Y-64840510D01*
X135476432Y-64897267D01*
X135394250Y-65058559D01*
X135338316Y-65230710D01*
X135310000Y-65409489D01*
X135019883Y-65409489D01*
X134993402Y-65242297D01*
X134993401Y-65242293D01*
X134939876Y-65077561D01*
X134939874Y-65077558D01*
X134939873Y-65077557D01*
X134939873Y-65077555D01*
X134861232Y-64923212D01*
X134759414Y-64783072D01*
X134636928Y-64660586D01*
X134496788Y-64558768D01*
X134496787Y-64558767D01*
X134496785Y-64558766D01*
X134342441Y-64480125D01*
X134342438Y-64480123D01*
X134177706Y-64426598D01*
X134177702Y-64426597D01*
X134006614Y-64399500D01*
X134006611Y-64399500D01*
X133833389Y-64399500D01*
X133833386Y-64399500D01*
X133662297Y-64426597D01*
X133662293Y-64426598D01*
X133497561Y-64480123D01*
X133497558Y-64480125D01*
X133343214Y-64558766D01*
X133203073Y-64660585D01*
X133080585Y-64783073D01*
X132978766Y-64923214D01*
X132900125Y-65077558D01*
X132900123Y-65077561D01*
X132846598Y-65242293D01*
X132846597Y-65242297D01*
X132819501Y-65413378D01*
X132819500Y-65413384D01*
X130153009Y-65413384D01*
X131786897Y-63779496D01*
X131841414Y-63751719D01*
X131856901Y-63750500D01*
X145159636Y-63750500D01*
X145159638Y-63750500D01*
X145261499Y-63723207D01*
X145261501Y-63723205D01*
X145261503Y-63723205D01*
X145352819Y-63670483D01*
X145352819Y-63670482D01*
X145352824Y-63670480D01*
X147518351Y-61504953D01*
X147572868Y-61477176D01*
X147588355Y-61475957D01*
X148956127Y-61475957D01*
X148956128Y-61475957D01*
X149029194Y-61461423D01*
X149112055Y-61406058D01*
X149167420Y-61323197D01*
X149181954Y-61250131D01*
X149181954Y-59500783D01*
X149167420Y-59427717D01*
X149119222Y-59355582D01*
X149112056Y-59344857D01*
X149112053Y-59344854D01*
X149029196Y-59289492D01*
X149029194Y-59289491D01*
X149029191Y-59289490D01*
X149029190Y-59289490D01*
X148956138Y-59274958D01*
X148956128Y-59274957D01*
X147206780Y-59274957D01*
X147206779Y-59274957D01*
X147206769Y-59274958D01*
X147133717Y-59289490D01*
X147133711Y-59289492D01*
X147050854Y-59344854D01*
X147050851Y-59344857D01*
X146995489Y-59427714D01*
X146995487Y-59427720D01*
X146980955Y-59500772D01*
X146980954Y-59500784D01*
X146980954Y-60868556D01*
X146962047Y-60926747D01*
X146951958Y-60938560D01*
X144970014Y-62920504D01*
X144915497Y-62948281D01*
X144900010Y-62949500D01*
X131702727Y-62949500D01*
X131597273Y-62949500D01*
X131534929Y-62966204D01*
X131495407Y-62976794D01*
X131404091Y-63029516D01*
X128413103Y-66020504D01*
X128358586Y-66048281D01*
X128343099Y-66049500D01*
X124385190Y-66049500D01*
X124326999Y-66030593D01*
X124291035Y-65981093D01*
X124291035Y-65919907D01*
X124315186Y-65880497D01*
X124588575Y-65607107D01*
X124643092Y-65579329D01*
X124703524Y-65588900D01*
X124728579Y-65607103D01*
X124761985Y-65640509D01*
X124761987Y-65640510D01*
X124761989Y-65640512D01*
X124887511Y-65712982D01*
X124887512Y-65712982D01*
X124887515Y-65712984D01*
X125027525Y-65750500D01*
X125027526Y-65750500D01*
X125172474Y-65750500D01*
X125172475Y-65750500D01*
X125312485Y-65712984D01*
X125312487Y-65712982D01*
X125312489Y-65712982D01*
X125438010Y-65640512D01*
X125438010Y-65640511D01*
X125438015Y-65640509D01*
X125540509Y-65538015D01*
X125596811Y-65440497D01*
X125612982Y-65412489D01*
X125612982Y-65412487D01*
X125612984Y-65412485D01*
X125650500Y-65272475D01*
X125650500Y-65127525D01*
X125612984Y-64987515D01*
X125612982Y-64987512D01*
X125612982Y-64987510D01*
X125540512Y-64861989D01*
X125540510Y-64861987D01*
X125540509Y-64861985D01*
X125438015Y-64759491D01*
X125438012Y-64759489D01*
X125438010Y-64759487D01*
X125312488Y-64687017D01*
X125312489Y-64687017D01*
X125275609Y-64677135D01*
X125172475Y-64649500D01*
X125027525Y-64649500D01*
X124986156Y-64660585D01*
X124887510Y-64687017D01*
X124761989Y-64759487D01*
X124761984Y-64759491D01*
X124700971Y-64820504D01*
X124646454Y-64848281D01*
X124630968Y-64849500D01*
X124546144Y-64849500D01*
X124453856Y-64849500D01*
X124364712Y-64873386D01*
X124284788Y-64919530D01*
X123733814Y-65470504D01*
X123679297Y-65498281D01*
X123663810Y-65499500D01*
X117388917Y-65499500D01*
X117330726Y-65480593D01*
X117294762Y-65431093D01*
X117294762Y-65369907D01*
X117306601Y-65345499D01*
X117315292Y-65332491D01*
X117335966Y-65301550D01*
X117350500Y-65228484D01*
X117350500Y-63479136D01*
X117335966Y-63406070D01*
X117287768Y-63333935D01*
X117280602Y-63323210D01*
X117280599Y-63323207D01*
X117197742Y-63267845D01*
X117197740Y-63267844D01*
X117197737Y-63267843D01*
X117197736Y-63267843D01*
X117124684Y-63253311D01*
X117124674Y-63253310D01*
X115375326Y-63253310D01*
X115375325Y-63253310D01*
X115375315Y-63253311D01*
X115302263Y-63267843D01*
X115302257Y-63267845D01*
X115219400Y-63323207D01*
X115219397Y-63323210D01*
X115164035Y-63406067D01*
X115164033Y-63406073D01*
X115149501Y-63479125D01*
X115149500Y-63479137D01*
X115149500Y-65228482D01*
X115149501Y-65228494D01*
X115164033Y-65301546D01*
X115164035Y-65301552D01*
X115193399Y-65345499D01*
X115210007Y-65404388D01*
X115188829Y-65461791D01*
X115137955Y-65495783D01*
X115111083Y-65499500D01*
X114297882Y-65499500D01*
X114239691Y-65480593D01*
X114203727Y-65431093D01*
X114203727Y-65369907D01*
X114239691Y-65320407D01*
X114252937Y-65312290D01*
X114274023Y-65301546D01*
X114286788Y-65295042D01*
X114426928Y-65193224D01*
X114549414Y-65070738D01*
X114651232Y-64930598D01*
X114729873Y-64776255D01*
X114729874Y-64776250D01*
X114729876Y-64776248D01*
X114783401Y-64611516D01*
X114783402Y-64611512D01*
X114810500Y-64440424D01*
X114810500Y-64267194D01*
X114810499Y-64267188D01*
X114783402Y-64096107D01*
X114783401Y-64096103D01*
X114729876Y-63931371D01*
X114729874Y-63931368D01*
X114729873Y-63931367D01*
X114729873Y-63931365D01*
X114651232Y-63777022D01*
X114549414Y-63636882D01*
X114426928Y-63514396D01*
X114286788Y-63412578D01*
X114286787Y-63412577D01*
X114286785Y-63412576D01*
X114132441Y-63333935D01*
X114132438Y-63333933D01*
X113967706Y-63280408D01*
X113967702Y-63280407D01*
X113796614Y-63253310D01*
X113796611Y-63253310D01*
X113623389Y-63253310D01*
X113623386Y-63253310D01*
X113452297Y-63280407D01*
X113452293Y-63280408D01*
X113287561Y-63333933D01*
X113287558Y-63333935D01*
X113133214Y-63412576D01*
X112993073Y-63514395D01*
X112870585Y-63636883D01*
X112768766Y-63777024D01*
X112690125Y-63931368D01*
X112690123Y-63931371D01*
X112636598Y-64096103D01*
X112636597Y-64096107D01*
X112609501Y-64267188D01*
X112609500Y-64267194D01*
X112609500Y-64440424D01*
X112636597Y-64611512D01*
X112636598Y-64611516D01*
X112690123Y-64776248D01*
X112690125Y-64776251D01*
X112765005Y-64923214D01*
X112768768Y-64930598D01*
X112870586Y-65070738D01*
X112993072Y-65193224D01*
X113133212Y-65295042D01*
X113133214Y-65295043D01*
X113167063Y-65312290D01*
X113210328Y-65355555D01*
X113219899Y-65415987D01*
X113192122Y-65470504D01*
X113137605Y-65498281D01*
X113122118Y-65499500D01*
X111757882Y-65499500D01*
X111699691Y-65480593D01*
X111663727Y-65431093D01*
X111663727Y-65369907D01*
X111699691Y-65320407D01*
X111712937Y-65312290D01*
X111734023Y-65301546D01*
X111746788Y-65295042D01*
X111886928Y-65193224D01*
X112009414Y-65070738D01*
X112111232Y-64930598D01*
X112189873Y-64776255D01*
X112189874Y-64776250D01*
X112189876Y-64776248D01*
X112243401Y-64611516D01*
X112243402Y-64611512D01*
X112270500Y-64440424D01*
X112270500Y-64267194D01*
X112270499Y-64267188D01*
X112243402Y-64096107D01*
X112243401Y-64096103D01*
X112189876Y-63931371D01*
X112189874Y-63931368D01*
X112189873Y-63931367D01*
X112189873Y-63931365D01*
X112111232Y-63777022D01*
X112009414Y-63636882D01*
X111886928Y-63514396D01*
X111746788Y-63412578D01*
X111746787Y-63412577D01*
X111746785Y-63412576D01*
X111592441Y-63333935D01*
X111592438Y-63333933D01*
X111427706Y-63280408D01*
X111427702Y-63280407D01*
X111256614Y-63253310D01*
X111256611Y-63253310D01*
X111083389Y-63253310D01*
X111083386Y-63253310D01*
X110912297Y-63280407D01*
X110912293Y-63280408D01*
X110747561Y-63333933D01*
X110747558Y-63333935D01*
X110593214Y-63412576D01*
X110453073Y-63514395D01*
X110330585Y-63636883D01*
X110228766Y-63777024D01*
X110150125Y-63931368D01*
X110150123Y-63931371D01*
X110096598Y-64096103D01*
X110096597Y-64096107D01*
X110069501Y-64267188D01*
X110069500Y-64267194D01*
X110069500Y-64440424D01*
X110096597Y-64611512D01*
X110096598Y-64611516D01*
X110150123Y-64776248D01*
X110150125Y-64776251D01*
X110225005Y-64923214D01*
X110228768Y-64930598D01*
X110330586Y-65070738D01*
X110453072Y-65193224D01*
X110593212Y-65295042D01*
X110593214Y-65295043D01*
X110627063Y-65312290D01*
X110670328Y-65355555D01*
X110679899Y-65415987D01*
X110652122Y-65470504D01*
X110597605Y-65498281D01*
X110582118Y-65499500D01*
X109217882Y-65499500D01*
X109159691Y-65480593D01*
X109123727Y-65431093D01*
X109123727Y-65369907D01*
X109159691Y-65320407D01*
X109172937Y-65312290D01*
X109194023Y-65301546D01*
X109206788Y-65295042D01*
X109346928Y-65193224D01*
X109469414Y-65070738D01*
X109571232Y-64930598D01*
X109649873Y-64776255D01*
X109649874Y-64776250D01*
X109649876Y-64776248D01*
X109703401Y-64611516D01*
X109703402Y-64611512D01*
X109730500Y-64440424D01*
X109730500Y-64267194D01*
X109730499Y-64267188D01*
X109703402Y-64096107D01*
X109703401Y-64096103D01*
X109649876Y-63931371D01*
X109649874Y-63931368D01*
X109649873Y-63931367D01*
X109649873Y-63931365D01*
X109571232Y-63777022D01*
X109469414Y-63636882D01*
X109346928Y-63514396D01*
X109206788Y-63412578D01*
X109206787Y-63412577D01*
X109206785Y-63412576D01*
X109052441Y-63333935D01*
X109052438Y-63333933D01*
X108887706Y-63280408D01*
X108887702Y-63280407D01*
X108716614Y-63253310D01*
X108716611Y-63253310D01*
X108543389Y-63253310D01*
X108543386Y-63253310D01*
X108372297Y-63280407D01*
X108372293Y-63280408D01*
X108207561Y-63333933D01*
X108207558Y-63333935D01*
X108053214Y-63412576D01*
X107913073Y-63514395D01*
X107790585Y-63636883D01*
X107688766Y-63777024D01*
X107610125Y-63931368D01*
X107610123Y-63931371D01*
X107556598Y-64096103D01*
X107556597Y-64096107D01*
X107529501Y-64267188D01*
X107529500Y-64267194D01*
X107529500Y-64440424D01*
X107556597Y-64611512D01*
X107556598Y-64611516D01*
X107610123Y-64776248D01*
X107610125Y-64776251D01*
X107685005Y-64923214D01*
X107688768Y-64930598D01*
X107790586Y-65070738D01*
X107913072Y-65193224D01*
X108053212Y-65295042D01*
X108053214Y-65295043D01*
X108087063Y-65312290D01*
X108130328Y-65355555D01*
X108139899Y-65415987D01*
X108112122Y-65470504D01*
X108057605Y-65498281D01*
X108042118Y-65499500D01*
X106774280Y-65499500D01*
X106716089Y-65480593D01*
X106680125Y-65431093D01*
X106680125Y-65369907D01*
X106716089Y-65320408D01*
X106749488Y-65296141D01*
X106275176Y-64821829D01*
X106282993Y-64819735D01*
X106397007Y-64753909D01*
X106490099Y-64660817D01*
X106555925Y-64546803D01*
X106558019Y-64538986D01*
X107032330Y-65013297D01*
X107073569Y-64956538D01*
X107155749Y-64795250D01*
X107211683Y-64623099D01*
X107240000Y-64444320D01*
X107240000Y-64263299D01*
X107211683Y-64084520D01*
X107155749Y-63912369D01*
X107073571Y-63751085D01*
X107032330Y-63694321D01*
X106558019Y-64168631D01*
X106555925Y-64160817D01*
X106490099Y-64046803D01*
X106397007Y-63953711D01*
X106282993Y-63887885D01*
X106275174Y-63885790D01*
X106749488Y-63411477D01*
X106692728Y-63370240D01*
X106531440Y-63288060D01*
X106359289Y-63232126D01*
X106180510Y-63203810D01*
X105999490Y-63203810D01*
X105820710Y-63232126D01*
X105648559Y-63288060D01*
X105487267Y-63370242D01*
X105430510Y-63411477D01*
X105904823Y-63885790D01*
X105897007Y-63887885D01*
X105782993Y-63953711D01*
X105689901Y-64046803D01*
X105624075Y-64160817D01*
X105621980Y-64168633D01*
X105147667Y-63694320D01*
X105106432Y-63751077D01*
X105024250Y-63912369D01*
X104968316Y-64084520D01*
X104940000Y-64263299D01*
X104940000Y-64444320D01*
X104968316Y-64623099D01*
X105024250Y-64795250D01*
X105106430Y-64956538D01*
X105147667Y-65013298D01*
X105621980Y-64538984D01*
X105624075Y-64546803D01*
X105689901Y-64660817D01*
X105782993Y-64753909D01*
X105897007Y-64819735D01*
X105904821Y-64821829D01*
X105430510Y-65296141D01*
X105463910Y-65320407D01*
X105499874Y-65369906D01*
X105499875Y-65431091D01*
X105463912Y-65480592D01*
X105405721Y-65499500D01*
X104137882Y-65499500D01*
X104079691Y-65480593D01*
X104043727Y-65431093D01*
X104043727Y-65369907D01*
X104079691Y-65320407D01*
X104092937Y-65312290D01*
X104114023Y-65301546D01*
X104126788Y-65295042D01*
X104266928Y-65193224D01*
X104389414Y-65070738D01*
X104491232Y-64930598D01*
X104569873Y-64776255D01*
X104569874Y-64776250D01*
X104569876Y-64776248D01*
X104623401Y-64611516D01*
X104623402Y-64611512D01*
X104650500Y-64440424D01*
X104650500Y-64267195D01*
X104623402Y-64096107D01*
X104623401Y-64096103D01*
X104569876Y-63931373D01*
X104569872Y-63931363D01*
X104568186Y-63928054D01*
X104558611Y-63867623D01*
X104586386Y-63813105D01*
X105020286Y-63379205D01*
X105143007Y-63256485D01*
X105719996Y-62679496D01*
X105774513Y-62651719D01*
X105790000Y-62650500D01*
X112496142Y-62650500D01*
X112496144Y-62650500D01*
X112585288Y-62626614D01*
X112610626Y-62611985D01*
X112665212Y-62580470D01*
X113144226Y-62101456D01*
X118499500Y-62101456D01*
X118499500Y-63998543D01*
X118537949Y-64191834D01*
X118537949Y-64191836D01*
X118613367Y-64373913D01*
X118613368Y-64373914D01*
X118722861Y-64537782D01*
X118862218Y-64677139D01*
X119026086Y-64786632D01*
X119208165Y-64862051D01*
X119401459Y-64900500D01*
X119401460Y-64900500D01*
X119598540Y-64900500D01*
X119598541Y-64900500D01*
X119791835Y-64862051D01*
X119973914Y-64786632D01*
X120137782Y-64677139D01*
X120277139Y-64537782D01*
X120386632Y-64373914D01*
X120462051Y-64191835D01*
X120500500Y-63998541D01*
X120500500Y-62101459D01*
X120500499Y-62101456D01*
X125499500Y-62101456D01*
X125499500Y-63998543D01*
X125537949Y-64191834D01*
X125537949Y-64191836D01*
X125613367Y-64373913D01*
X125613368Y-64373914D01*
X125722861Y-64537782D01*
X125862218Y-64677139D01*
X126026086Y-64786632D01*
X126208165Y-64862051D01*
X126401459Y-64900500D01*
X126401460Y-64900500D01*
X126598540Y-64900500D01*
X126598541Y-64900500D01*
X126791835Y-64862051D01*
X126973914Y-64786632D01*
X127137782Y-64677139D01*
X127277139Y-64537782D01*
X127386632Y-64373914D01*
X127462051Y-64191835D01*
X127500500Y-63998541D01*
X127500500Y-62101459D01*
X127462051Y-61908165D01*
X127386632Y-61726086D01*
X127277139Y-61562218D01*
X127137782Y-61422861D01*
X126988907Y-61323386D01*
X126973913Y-61313367D01*
X126791835Y-61237949D01*
X126598543Y-61199500D01*
X126598541Y-61199500D01*
X126401459Y-61199500D01*
X126401456Y-61199500D01*
X126208165Y-61237949D01*
X126208163Y-61237949D01*
X126026086Y-61313367D01*
X125862218Y-61422861D01*
X125862214Y-61422864D01*
X125722864Y-61562214D01*
X125722861Y-61562218D01*
X125613367Y-61726086D01*
X125537949Y-61908163D01*
X125537949Y-61908165D01*
X125499500Y-62101456D01*
X120500499Y-62101456D01*
X120462051Y-61908165D01*
X120386632Y-61726086D01*
X120277139Y-61562218D01*
X120137782Y-61422861D01*
X119988907Y-61323386D01*
X119973913Y-61313367D01*
X119791835Y-61237949D01*
X119598543Y-61199500D01*
X119598541Y-61199500D01*
X119401459Y-61199500D01*
X119401456Y-61199500D01*
X119208165Y-61237949D01*
X119208163Y-61237949D01*
X119026086Y-61313367D01*
X118862218Y-61422861D01*
X118862214Y-61422864D01*
X118722864Y-61562214D01*
X118722861Y-61562218D01*
X118613367Y-61726086D01*
X118537949Y-61908163D01*
X118537949Y-61908165D01*
X118499500Y-62101456D01*
X113144226Y-62101456D01*
X115494226Y-59751456D01*
X121149500Y-59751456D01*
X121149500Y-59948543D01*
X121187949Y-60141834D01*
X121187949Y-60141836D01*
X121263367Y-60323913D01*
X121297807Y-60375456D01*
X121372861Y-60487782D01*
X121512218Y-60627139D01*
X121676086Y-60736632D01*
X121858165Y-60812051D01*
X122051459Y-60850500D01*
X122051460Y-60850500D01*
X123948540Y-60850500D01*
X123948541Y-60850500D01*
X124141835Y-60812051D01*
X124323914Y-60736632D01*
X124487782Y-60627139D01*
X124627139Y-60487782D01*
X124736632Y-60323914D01*
X124812051Y-60141835D01*
X124849043Y-59955864D01*
X124850499Y-59948548D01*
X124850500Y-59948539D01*
X124850500Y-59751460D01*
X124850499Y-59751456D01*
X124843440Y-59715967D01*
X124812051Y-59558165D01*
X124736632Y-59376086D01*
X124627139Y-59212218D01*
X124487782Y-59072861D01*
X124323914Y-58963368D01*
X124322982Y-58962982D01*
X124255915Y-58935202D01*
X129100000Y-58935202D01*
X129100000Y-59629999D01*
X129100001Y-59630000D01*
X129788120Y-59630000D01*
X129784075Y-59637007D01*
X129750000Y-59764174D01*
X129750000Y-59895826D01*
X129784075Y-60022993D01*
X129788120Y-60030000D01*
X129100002Y-60030000D01*
X129100001Y-60030001D01*
X129100001Y-60724791D01*
X129102909Y-60749874D01*
X129148213Y-60852477D01*
X129227522Y-60931786D01*
X129330127Y-60977090D01*
X129355203Y-60979999D01*
X130049998Y-60979999D01*
X130050000Y-60979998D01*
X130050000Y-60291879D01*
X130057007Y-60295925D01*
X130184174Y-60330000D01*
X130315826Y-60330000D01*
X130442993Y-60295925D01*
X130450000Y-60291879D01*
X130450000Y-60979998D01*
X130450001Y-60979999D01*
X131144790Y-60979999D01*
X131144791Y-60979998D01*
X131169874Y-60977090D01*
X131272477Y-60931786D01*
X131351786Y-60852477D01*
X131397090Y-60749872D01*
X131399999Y-60724797D01*
X131400000Y-60724795D01*
X131400000Y-60288841D01*
X131740954Y-60288841D01*
X131740954Y-60462071D01*
X131768051Y-60633159D01*
X131768052Y-60633163D01*
X131821577Y-60797895D01*
X131821579Y-60797898D01*
X131890980Y-60934108D01*
X131900222Y-60952245D01*
X132002040Y-61092385D01*
X132124526Y-61214871D01*
X132264666Y-61316689D01*
X132419009Y-61395330D01*
X132419011Y-61395330D01*
X132419012Y-61395331D01*
X132419015Y-61395333D01*
X132583747Y-61448858D01*
X132583751Y-61448859D01*
X132754840Y-61475957D01*
X132754843Y-61475957D01*
X132928068Y-61475957D01*
X133099156Y-61448859D01*
X133099160Y-61448858D01*
X133263892Y-61395333D01*
X133263894Y-61395331D01*
X133263899Y-61395330D01*
X133418242Y-61316689D01*
X133558382Y-61214871D01*
X133680868Y-61092385D01*
X133782686Y-60952245D01*
X133861327Y-60797902D01*
X133861328Y-60797897D01*
X133861330Y-60797895D01*
X133914855Y-60633163D01*
X133914856Y-60633159D01*
X133941954Y-60462071D01*
X133941954Y-60288841D01*
X134280954Y-60288841D01*
X134280954Y-60462071D01*
X134308051Y-60633159D01*
X134308052Y-60633163D01*
X134361577Y-60797895D01*
X134361579Y-60797898D01*
X134430980Y-60934108D01*
X134440222Y-60952245D01*
X134542040Y-61092385D01*
X134664526Y-61214871D01*
X134804666Y-61316689D01*
X134959009Y-61395330D01*
X134959011Y-61395330D01*
X134959012Y-61395331D01*
X134959015Y-61395333D01*
X135123747Y-61448858D01*
X135123751Y-61448859D01*
X135294840Y-61475957D01*
X135294843Y-61475957D01*
X135468068Y-61475957D01*
X135639156Y-61448859D01*
X135639160Y-61448858D01*
X135803892Y-61395333D01*
X135803894Y-61395331D01*
X135803899Y-61395330D01*
X135958242Y-61316689D01*
X136098382Y-61214871D01*
X136220868Y-61092385D01*
X136322686Y-60952245D01*
X136401327Y-60797902D01*
X136401328Y-60797897D01*
X136401330Y-60797895D01*
X136454855Y-60633163D01*
X136454856Y-60633159D01*
X136481954Y-60462071D01*
X136481954Y-60288841D01*
X136820954Y-60288841D01*
X136820954Y-60462071D01*
X136848051Y-60633159D01*
X136848052Y-60633163D01*
X136901577Y-60797895D01*
X136901579Y-60797898D01*
X136970980Y-60934108D01*
X136980222Y-60952245D01*
X137082040Y-61092385D01*
X137204526Y-61214871D01*
X137344666Y-61316689D01*
X137499009Y-61395330D01*
X137499011Y-61395330D01*
X137499012Y-61395331D01*
X137499015Y-61395333D01*
X137663747Y-61448858D01*
X137663751Y-61448859D01*
X137834840Y-61475957D01*
X137834843Y-61475957D01*
X138008068Y-61475957D01*
X138179156Y-61448859D01*
X138179160Y-61448858D01*
X138343892Y-61395333D01*
X138343894Y-61395331D01*
X138343899Y-61395330D01*
X138498242Y-61316689D01*
X138638382Y-61214871D01*
X138760868Y-61092385D01*
X138862686Y-60952245D01*
X138941327Y-60797902D01*
X138941328Y-60797897D01*
X138941330Y-60797895D01*
X138994855Y-60633163D01*
X138994856Y-60633159D01*
X139021954Y-60462071D01*
X139021954Y-60288841D01*
X139360954Y-60288841D01*
X139360954Y-60462071D01*
X139388051Y-60633159D01*
X139388052Y-60633163D01*
X139441577Y-60797895D01*
X139441579Y-60797898D01*
X139510980Y-60934108D01*
X139520222Y-60952245D01*
X139622040Y-61092385D01*
X139744526Y-61214871D01*
X139884666Y-61316689D01*
X140039009Y-61395330D01*
X140039011Y-61395330D01*
X140039012Y-61395331D01*
X140039015Y-61395333D01*
X140203747Y-61448858D01*
X140203751Y-61448859D01*
X140374840Y-61475957D01*
X140374843Y-61475957D01*
X140548068Y-61475957D01*
X140719156Y-61448859D01*
X140719160Y-61448858D01*
X140883892Y-61395333D01*
X140883894Y-61395331D01*
X140883899Y-61395330D01*
X141038242Y-61316689D01*
X141178382Y-61214871D01*
X141300868Y-61092385D01*
X141402686Y-60952245D01*
X141481327Y-60797902D01*
X141481328Y-60797897D01*
X141481330Y-60797895D01*
X141534855Y-60633163D01*
X141534856Y-60633159D01*
X141561954Y-60462071D01*
X141561954Y-60288842D01*
X141561337Y-60284946D01*
X141851454Y-60284946D01*
X141851454Y-60465967D01*
X141879770Y-60644746D01*
X141935704Y-60816897D01*
X142017884Y-60978185D01*
X142059121Y-61034945D01*
X142533434Y-60560631D01*
X142535529Y-60568450D01*
X142601355Y-60682464D01*
X142694447Y-60775556D01*
X142808461Y-60841382D01*
X142816275Y-60843476D01*
X142341965Y-61317787D01*
X142398729Y-61359028D01*
X142560013Y-61441206D01*
X142732164Y-61497140D01*
X142910944Y-61525457D01*
X143091964Y-61525457D01*
X143270743Y-61497140D01*
X143442894Y-61441206D01*
X143604182Y-61359026D01*
X143660941Y-61317787D01*
X143186630Y-60843476D01*
X143194447Y-60841382D01*
X143308461Y-60775556D01*
X143401553Y-60682464D01*
X143467379Y-60568450D01*
X143469473Y-60560633D01*
X143943784Y-61034944D01*
X143985023Y-60978185D01*
X144067203Y-60816897D01*
X144123137Y-60644746D01*
X144151454Y-60465967D01*
X144151454Y-60288841D01*
X144440954Y-60288841D01*
X144440954Y-60462071D01*
X144468051Y-60633159D01*
X144468052Y-60633163D01*
X144521577Y-60797895D01*
X144521579Y-60797898D01*
X144590980Y-60934108D01*
X144600222Y-60952245D01*
X144702040Y-61092385D01*
X144824526Y-61214871D01*
X144964666Y-61316689D01*
X145119009Y-61395330D01*
X145119011Y-61395330D01*
X145119012Y-61395331D01*
X145119015Y-61395333D01*
X145283747Y-61448858D01*
X145283751Y-61448859D01*
X145454840Y-61475957D01*
X145454843Y-61475957D01*
X145628068Y-61475957D01*
X145799156Y-61448859D01*
X145799160Y-61448858D01*
X145963892Y-61395333D01*
X145963894Y-61395331D01*
X145963899Y-61395330D01*
X146118242Y-61316689D01*
X146258382Y-61214871D01*
X146380868Y-61092385D01*
X146482686Y-60952245D01*
X146561327Y-60797902D01*
X146561328Y-60797897D01*
X146561330Y-60797895D01*
X146614855Y-60633163D01*
X146614856Y-60633159D01*
X146641954Y-60462071D01*
X146641954Y-60288841D01*
X146641953Y-60288835D01*
X146614856Y-60117754D01*
X146614855Y-60117750D01*
X146561330Y-59953018D01*
X146561328Y-59953015D01*
X146561327Y-59953014D01*
X146561327Y-59953012D01*
X146482686Y-59798669D01*
X146380868Y-59658529D01*
X146258382Y-59536043D01*
X146118242Y-59434225D01*
X146118241Y-59434224D01*
X146118239Y-59434223D01*
X145963895Y-59355582D01*
X145963892Y-59355580D01*
X145799160Y-59302055D01*
X145799156Y-59302054D01*
X145628068Y-59274957D01*
X145628065Y-59274957D01*
X145454843Y-59274957D01*
X145454840Y-59274957D01*
X145283751Y-59302054D01*
X145283747Y-59302055D01*
X145119015Y-59355580D01*
X145119012Y-59355582D01*
X144964668Y-59434223D01*
X144824527Y-59536042D01*
X144702039Y-59658530D01*
X144600220Y-59798671D01*
X144521579Y-59953015D01*
X144521577Y-59953018D01*
X144468052Y-60117750D01*
X144468051Y-60117754D01*
X144440955Y-60288835D01*
X144440954Y-60288841D01*
X144151454Y-60288841D01*
X144151454Y-60284946D01*
X144123137Y-60106167D01*
X144067203Y-59934016D01*
X143985025Y-59772732D01*
X143943784Y-59715968D01*
X143469473Y-60190278D01*
X143467379Y-60182464D01*
X143401553Y-60068450D01*
X143308461Y-59975358D01*
X143194447Y-59909532D01*
X143186628Y-59907437D01*
X143660942Y-59433124D01*
X143604182Y-59391887D01*
X143442894Y-59309707D01*
X143270743Y-59253773D01*
X143091964Y-59225457D01*
X142910944Y-59225457D01*
X142732164Y-59253773D01*
X142560013Y-59309707D01*
X142398721Y-59391889D01*
X142341964Y-59433124D01*
X142816277Y-59907437D01*
X142808461Y-59909532D01*
X142694447Y-59975358D01*
X142601355Y-60068450D01*
X142535529Y-60182464D01*
X142533434Y-60190280D01*
X142059121Y-59715967D01*
X142017886Y-59772724D01*
X141935704Y-59934016D01*
X141879770Y-60106167D01*
X141851454Y-60284946D01*
X141561337Y-60284946D01*
X141534856Y-60117754D01*
X141534855Y-60117750D01*
X141481330Y-59953018D01*
X141481328Y-59953015D01*
X141481327Y-59953014D01*
X141481327Y-59953012D01*
X141402686Y-59798669D01*
X141300868Y-59658529D01*
X141178382Y-59536043D01*
X141038242Y-59434225D01*
X141038241Y-59434224D01*
X141038239Y-59434223D01*
X140883895Y-59355582D01*
X140883892Y-59355580D01*
X140719160Y-59302055D01*
X140719156Y-59302054D01*
X140548068Y-59274957D01*
X140548065Y-59274957D01*
X140374843Y-59274957D01*
X140374840Y-59274957D01*
X140203751Y-59302054D01*
X140203747Y-59302055D01*
X140039015Y-59355580D01*
X140039012Y-59355582D01*
X139884668Y-59434223D01*
X139744527Y-59536042D01*
X139622039Y-59658530D01*
X139520220Y-59798671D01*
X139441579Y-59953015D01*
X139441577Y-59953018D01*
X139388052Y-60117750D01*
X139388051Y-60117754D01*
X139360955Y-60288835D01*
X139360954Y-60288841D01*
X139021954Y-60288841D01*
X139021953Y-60288835D01*
X138994856Y-60117754D01*
X138994855Y-60117750D01*
X138941330Y-59953018D01*
X138941328Y-59953015D01*
X138941327Y-59953014D01*
X138941327Y-59953012D01*
X138862686Y-59798669D01*
X138760868Y-59658529D01*
X138638382Y-59536043D01*
X138498242Y-59434225D01*
X138498241Y-59434224D01*
X138498239Y-59434223D01*
X138343895Y-59355582D01*
X138343892Y-59355580D01*
X138179160Y-59302055D01*
X138179156Y-59302054D01*
X138008068Y-59274957D01*
X138008065Y-59274957D01*
X137834843Y-59274957D01*
X137834840Y-59274957D01*
X137663751Y-59302054D01*
X137663747Y-59302055D01*
X137499015Y-59355580D01*
X137499012Y-59355582D01*
X137344668Y-59434223D01*
X137204527Y-59536042D01*
X137082039Y-59658530D01*
X136980220Y-59798671D01*
X136901579Y-59953015D01*
X136901577Y-59953018D01*
X136848052Y-60117750D01*
X136848051Y-60117754D01*
X136820955Y-60288835D01*
X136820954Y-60288841D01*
X136481954Y-60288841D01*
X136481953Y-60288835D01*
X136454856Y-60117754D01*
X136454855Y-60117750D01*
X136401330Y-59953018D01*
X136401328Y-59953015D01*
X136401327Y-59953014D01*
X136401327Y-59953012D01*
X136322686Y-59798669D01*
X136220868Y-59658529D01*
X136098382Y-59536043D01*
X135958242Y-59434225D01*
X135958241Y-59434224D01*
X135958239Y-59434223D01*
X135803895Y-59355582D01*
X135803892Y-59355580D01*
X135639160Y-59302055D01*
X135639156Y-59302054D01*
X135468068Y-59274957D01*
X135468065Y-59274957D01*
X135294843Y-59274957D01*
X135294840Y-59274957D01*
X135123751Y-59302054D01*
X135123747Y-59302055D01*
X134959015Y-59355580D01*
X134959012Y-59355582D01*
X134804668Y-59434223D01*
X134664527Y-59536042D01*
X134542039Y-59658530D01*
X134440220Y-59798671D01*
X134361579Y-59953015D01*
X134361577Y-59953018D01*
X134308052Y-60117750D01*
X134308051Y-60117754D01*
X134280955Y-60288835D01*
X134280954Y-60288841D01*
X133941954Y-60288841D01*
X133941953Y-60288835D01*
X133914856Y-60117754D01*
X133914855Y-60117750D01*
X133861330Y-59953018D01*
X133861328Y-59953015D01*
X133861327Y-59953014D01*
X133861327Y-59953012D01*
X133782686Y-59798669D01*
X133680868Y-59658529D01*
X133558382Y-59536043D01*
X133418242Y-59434225D01*
X133418241Y-59434224D01*
X133418239Y-59434223D01*
X133263895Y-59355582D01*
X133263892Y-59355580D01*
X133099160Y-59302055D01*
X133099156Y-59302054D01*
X132928068Y-59274957D01*
X132928065Y-59274957D01*
X132754843Y-59274957D01*
X132754840Y-59274957D01*
X132583751Y-59302054D01*
X132583747Y-59302055D01*
X132419015Y-59355580D01*
X132419012Y-59355582D01*
X132264668Y-59434223D01*
X132124527Y-59536042D01*
X132002039Y-59658530D01*
X131900220Y-59798671D01*
X131821579Y-59953015D01*
X131821577Y-59953018D01*
X131768052Y-60117750D01*
X131768051Y-60117754D01*
X131740955Y-60288835D01*
X131740954Y-60288841D01*
X131400000Y-60288841D01*
X131400000Y-60030001D01*
X131399999Y-60030000D01*
X130711880Y-60030000D01*
X130715925Y-60022993D01*
X130750000Y-59895826D01*
X130750000Y-59764174D01*
X130715925Y-59637007D01*
X130711880Y-59630000D01*
X131399998Y-59630000D01*
X131399999Y-59629999D01*
X131399999Y-58935210D01*
X131399998Y-58935208D01*
X131397090Y-58910125D01*
X131351786Y-58807522D01*
X131272477Y-58728213D01*
X131169872Y-58682909D01*
X131144797Y-58680000D01*
X130450001Y-58680000D01*
X130450000Y-58680001D01*
X130450000Y-59368120D01*
X130442993Y-59364075D01*
X130315826Y-59330000D01*
X130184174Y-59330000D01*
X130057007Y-59364075D01*
X130050000Y-59368120D01*
X130050000Y-58680001D01*
X130049999Y-58680000D01*
X129355210Y-58680000D01*
X129355207Y-58680001D01*
X129330125Y-58682909D01*
X129227522Y-58728213D01*
X129148213Y-58807522D01*
X129102909Y-58910127D01*
X129100000Y-58935202D01*
X124255915Y-58935202D01*
X124141835Y-58887949D01*
X123948543Y-58849500D01*
X123948541Y-58849500D01*
X122051459Y-58849500D01*
X122051456Y-58849500D01*
X121858165Y-58887949D01*
X121858163Y-58887949D01*
X121676086Y-58963367D01*
X121512218Y-59072861D01*
X121512214Y-59072864D01*
X121372864Y-59212214D01*
X121372861Y-59212218D01*
X121263367Y-59376086D01*
X121187949Y-59558163D01*
X121187949Y-59558165D01*
X121149500Y-59751456D01*
X115494226Y-59751456D01*
X116766186Y-58479496D01*
X116820703Y-58451719D01*
X116836190Y-58450500D01*
X126746142Y-58450500D01*
X126746144Y-58450500D01*
X126835288Y-58426614D01*
X126915212Y-58380470D01*
X128092296Y-57203385D01*
X129149500Y-57203385D01*
X129149500Y-57376614D01*
X129176597Y-57547702D01*
X129176598Y-57547706D01*
X129230123Y-57712438D01*
X129230125Y-57712441D01*
X129308168Y-57865612D01*
X129308768Y-57866788D01*
X129410586Y-58006928D01*
X129533072Y-58129414D01*
X129673212Y-58231232D01*
X129827555Y-58309873D01*
X129827557Y-58309873D01*
X129827558Y-58309874D01*
X129827561Y-58309876D01*
X129992293Y-58363401D01*
X129992297Y-58363402D01*
X130163386Y-58390500D01*
X130163389Y-58390500D01*
X130336614Y-58390500D01*
X130507702Y-58363402D01*
X130507706Y-58363401D01*
X130672438Y-58309876D01*
X130672440Y-58309874D01*
X130672445Y-58309873D01*
X130826788Y-58231232D01*
X130966928Y-58129414D01*
X131089414Y-58006928D01*
X131191232Y-57866788D01*
X131269873Y-57712445D01*
X131271023Y-57708904D01*
X131306989Y-57659406D01*
X131365177Y-57640500D01*
X137296033Y-57640500D01*
X137354224Y-57659407D01*
X137381769Y-57690000D01*
X137399381Y-57720504D01*
X137409491Y-57738015D01*
X137511985Y-57840509D01*
X137511987Y-57840510D01*
X137511989Y-57840512D01*
X137637511Y-57912982D01*
X137637512Y-57912982D01*
X137637515Y-57912984D01*
X137777525Y-57950500D01*
X137777526Y-57950500D01*
X137922474Y-57950500D01*
X137922475Y-57950500D01*
X138062485Y-57912984D01*
X138062487Y-57912982D01*
X138062489Y-57912982D01*
X138188010Y-57840512D01*
X138188010Y-57840511D01*
X138188015Y-57840509D01*
X138290509Y-57738015D01*
X138323373Y-57681093D01*
X138362982Y-57612489D01*
X138362982Y-57612487D01*
X138362984Y-57612485D01*
X138400500Y-57472475D01*
X138400500Y-57327525D01*
X138362984Y-57187515D01*
X138362982Y-57187512D01*
X138362982Y-57187510D01*
X138290512Y-57061989D01*
X138290510Y-57061987D01*
X138290509Y-57061985D01*
X138188015Y-56959491D01*
X138188012Y-56959489D01*
X138188010Y-56959487D01*
X138062488Y-56887017D01*
X138062489Y-56887017D01*
X138032896Y-56879087D01*
X137922475Y-56849500D01*
X137777525Y-56849500D01*
X137730855Y-56862005D01*
X137637513Y-56887016D01*
X137569582Y-56926237D01*
X137520082Y-56939500D01*
X131365177Y-56939500D01*
X131306986Y-56920593D01*
X131271023Y-56871095D01*
X131269872Y-56867553D01*
X131191233Y-56713214D01*
X131191232Y-56713212D01*
X131089414Y-56573072D01*
X130966928Y-56450586D01*
X130826788Y-56348768D01*
X130826787Y-56348767D01*
X130826785Y-56348766D01*
X130672441Y-56270125D01*
X130672438Y-56270123D01*
X130507706Y-56216598D01*
X130507702Y-56216597D01*
X130336614Y-56189500D01*
X130336611Y-56189500D01*
X130163389Y-56189500D01*
X130163386Y-56189500D01*
X129992297Y-56216597D01*
X129992293Y-56216598D01*
X129827561Y-56270123D01*
X129827558Y-56270125D01*
X129673214Y-56348766D01*
X129533073Y-56450585D01*
X129410585Y-56573073D01*
X129308766Y-56713214D01*
X129230125Y-56867558D01*
X129230123Y-56867561D01*
X129176598Y-57032293D01*
X129176597Y-57032297D01*
X129149500Y-57203385D01*
X128092296Y-57203385D01*
X129576800Y-55718880D01*
X129631315Y-55691105D01*
X129691747Y-55700676D01*
X129827555Y-55769873D01*
X129827557Y-55769873D01*
X129827558Y-55769874D01*
X129827561Y-55769876D01*
X129992293Y-55823401D01*
X129992297Y-55823402D01*
X130163386Y-55850500D01*
X130163389Y-55850500D01*
X130336614Y-55850500D01*
X130507702Y-55823402D01*
X130507706Y-55823401D01*
X130672438Y-55769876D01*
X130672440Y-55769874D01*
X130672445Y-55769873D01*
X130826788Y-55691232D01*
X130966928Y-55589414D01*
X131089414Y-55466928D01*
X131191232Y-55326788D01*
X131269873Y-55172445D01*
X131271023Y-55168904D01*
X131306989Y-55119406D01*
X131365177Y-55100500D01*
X144796142Y-55100500D01*
X144796144Y-55100500D01*
X144885288Y-55076614D01*
X144965212Y-55030470D01*
X145017054Y-54978628D01*
X145066187Y-54929496D01*
X145120703Y-54901719D01*
X145136190Y-54900500D01*
X145172474Y-54900500D01*
X145172475Y-54900500D01*
X145312485Y-54862984D01*
X145312487Y-54862982D01*
X145312489Y-54862982D01*
X145438010Y-54790512D01*
X145438010Y-54790511D01*
X145438015Y-54790509D01*
X145540509Y-54688015D01*
X145585208Y-54610594D01*
X145612982Y-54562489D01*
X145612982Y-54562487D01*
X145612984Y-54562485D01*
X145650500Y-54422475D01*
X145650500Y-54277525D01*
X145612984Y-54137515D01*
X145612982Y-54137512D01*
X145612982Y-54137510D01*
X145540512Y-54011989D01*
X145540510Y-54011987D01*
X145540509Y-54011985D01*
X145438015Y-53909491D01*
X145438012Y-53909489D01*
X145438010Y-53909487D01*
X145312488Y-53837017D01*
X145312489Y-53837017D01*
X145207063Y-53808768D01*
X145172475Y-53799500D01*
X145027525Y-53799500D01*
X144992937Y-53808768D01*
X144887510Y-53837017D01*
X144761989Y-53909487D01*
X144659487Y-54011989D01*
X144587017Y-54137510D01*
X144549500Y-54277525D01*
X144549500Y-54300500D01*
X144530593Y-54358691D01*
X144481093Y-54394655D01*
X144450500Y-54399500D01*
X131365177Y-54399500D01*
X131306986Y-54380593D01*
X131271023Y-54331095D01*
X131269872Y-54327553D01*
X131191233Y-54173214D01*
X131191232Y-54173212D01*
X131089414Y-54033072D01*
X131025843Y-53969501D01*
X130998068Y-53914987D01*
X131007639Y-53854555D01*
X131050904Y-53811290D01*
X131095849Y-53800500D01*
X139846142Y-53800500D01*
X139846144Y-53800500D01*
X139935288Y-53776614D01*
X139964930Y-53759500D01*
X140015212Y-53730470D01*
X140016187Y-53729494D01*
X140017069Y-53729045D01*
X140020362Y-53726519D01*
X140020830Y-53727129D01*
X140070702Y-53701719D01*
X140086189Y-53700500D01*
X140172474Y-53700500D01*
X140172475Y-53700500D01*
X140312485Y-53662984D01*
X140312487Y-53662982D01*
X140312489Y-53662982D01*
X140438010Y-53590512D01*
X140438010Y-53590511D01*
X140438015Y-53590509D01*
X140540509Y-53488015D01*
X140575656Y-53427139D01*
X140612982Y-53362489D01*
X140612982Y-53362487D01*
X140612984Y-53362485D01*
X140650500Y-53222475D01*
X140650500Y-53077525D01*
X140612984Y-52937515D01*
X140612982Y-52937512D01*
X140612982Y-52937510D01*
X140540512Y-52811989D01*
X140540510Y-52811987D01*
X140540509Y-52811985D01*
X140458025Y-52729501D01*
X140430250Y-52674987D01*
X140439821Y-52614555D01*
X140483086Y-52571290D01*
X140528031Y-52560500D01*
X147386142Y-52560500D01*
X147386144Y-52560500D01*
X147475288Y-52536614D01*
X147555212Y-52490470D01*
X147585700Y-52459981D01*
X147616187Y-52429496D01*
X147670704Y-52401719D01*
X147686190Y-52400500D01*
X147772474Y-52400500D01*
X147772475Y-52400500D01*
X147912485Y-52362984D01*
X147912487Y-52362982D01*
X147912489Y-52362982D01*
X148038010Y-52290512D01*
X148038010Y-52290511D01*
X148038015Y-52290509D01*
X148140509Y-52188015D01*
X148147396Y-52176086D01*
X148212982Y-52062489D01*
X148212982Y-52062487D01*
X148212984Y-52062485D01*
X148250500Y-51922475D01*
X148250500Y-51777525D01*
X148212984Y-51637515D01*
X148212982Y-51637512D01*
X148212982Y-51637510D01*
X148140512Y-51511989D01*
X148140510Y-51511987D01*
X148140509Y-51511985D01*
X148038015Y-51409491D01*
X148038012Y-51409489D01*
X148038010Y-51409487D01*
X147912488Y-51337017D01*
X147912489Y-51337017D01*
X147863066Y-51323774D01*
X147772475Y-51299500D01*
X147627525Y-51299500D01*
X147565790Y-51316041D01*
X147487510Y-51337017D01*
X147361989Y-51409487D01*
X147259487Y-51511989D01*
X147187017Y-51637510D01*
X147173502Y-51687949D01*
X147153294Y-51763368D01*
X147147821Y-51783792D01*
X147145403Y-51783144D01*
X147123696Y-51828651D01*
X147069923Y-51857843D01*
X147051887Y-51859500D01*
X131365177Y-51859500D01*
X131306986Y-51840593D01*
X131271023Y-51791095D01*
X131269872Y-51787553D01*
X131191233Y-51633214D01*
X131191232Y-51633212D01*
X131089414Y-51493072D01*
X130966928Y-51370586D01*
X130966924Y-51370583D01*
X130966922Y-51370581D01*
X130841687Y-51279592D01*
X130805723Y-51230092D01*
X130805724Y-51168907D01*
X130841688Y-51119407D01*
X130899878Y-51100500D01*
X131396142Y-51100500D01*
X131396144Y-51100500D01*
X131485288Y-51076614D01*
X131565212Y-51030470D01*
X132480470Y-50115212D01*
X132503126Y-50075968D01*
X132533635Y-50045461D01*
X132532866Y-50044459D01*
X132538005Y-50040514D01*
X132538015Y-50040509D01*
X132640509Y-49938015D01*
X132640512Y-49938010D01*
X132712982Y-49812489D01*
X132712983Y-49812486D01*
X132712984Y-49812485D01*
X132750500Y-49672475D01*
X132750500Y-49527525D01*
X132712984Y-49387515D01*
X132712982Y-49387512D01*
X132712982Y-49387510D01*
X132640512Y-49261989D01*
X132640510Y-49261987D01*
X132640509Y-49261985D01*
X132538015Y-49159491D01*
X132538012Y-49159489D01*
X132538010Y-49159487D01*
X132412488Y-49087017D01*
X132412489Y-49087017D01*
X132312922Y-49060338D01*
X132272475Y-49049500D01*
X132127525Y-49049500D01*
X132099655Y-49056967D01*
X132075123Y-49063541D01*
X132014021Y-49060338D01*
X131966471Y-49021833D01*
X131950500Y-48967914D01*
X131950500Y-48837525D01*
X131937902Y-48790509D01*
X131912984Y-48697515D01*
X131912982Y-48697512D01*
X131912982Y-48697510D01*
X131840512Y-48571989D01*
X131840510Y-48571987D01*
X131840509Y-48571985D01*
X131738015Y-48469491D01*
X131738012Y-48469489D01*
X131738010Y-48469487D01*
X131612488Y-48397017D01*
X131612489Y-48397017D01*
X131511265Y-48369894D01*
X131472475Y-48359500D01*
X131327525Y-48359500D01*
X131288735Y-48369894D01*
X131187503Y-48397019D01*
X131187377Y-48397072D01*
X131187278Y-48397079D01*
X131181247Y-48398696D01*
X131180947Y-48397577D01*
X131126380Y-48401868D01*
X131074214Y-48369894D01*
X131050804Y-48313364D01*
X131050500Y-48305605D01*
X131050500Y-48277525D01*
X131012984Y-48137515D01*
X131012982Y-48137512D01*
X131012982Y-48137510D01*
X130940512Y-48011989D01*
X130940510Y-48011987D01*
X130940509Y-48011985D01*
X130838015Y-47909491D01*
X130838012Y-47909489D01*
X130838010Y-47909487D01*
X130712488Y-47837017D01*
X130712489Y-47837017D01*
X130682896Y-47829087D01*
X130572475Y-47799500D01*
X130427525Y-47799500D01*
X130365790Y-47816041D01*
X130287510Y-47837017D01*
X130161989Y-47909487D01*
X130059487Y-48011989D01*
X129987017Y-48137510D01*
X129949500Y-48277525D01*
X129949500Y-48363810D01*
X129930593Y-48422001D01*
X129920504Y-48433814D01*
X127601546Y-50752771D01*
X127547029Y-50780548D01*
X127486597Y-50770977D01*
X127443332Y-50727712D01*
X127433761Y-50667280D01*
X127440076Y-50644887D01*
X127462051Y-50591835D01*
X127463647Y-50583814D01*
X127482475Y-50489159D01*
X127500500Y-50398541D01*
X127500500Y-48501459D01*
X127462051Y-48308165D01*
X127386632Y-48126086D01*
X127277139Y-47962218D01*
X127137782Y-47822861D01*
X126973914Y-47713368D01*
X126973915Y-47713368D01*
X126973913Y-47713367D01*
X126791835Y-47637949D01*
X126598543Y-47599500D01*
X126598541Y-47599500D01*
X126401459Y-47599500D01*
X126401456Y-47599500D01*
X126208165Y-47637949D01*
X126208163Y-47637949D01*
X126026086Y-47713367D01*
X125862218Y-47822861D01*
X125862214Y-47822864D01*
X125722864Y-47962214D01*
X125722861Y-47962218D01*
X125613367Y-48126086D01*
X125537949Y-48308163D01*
X125537949Y-48308165D01*
X125499500Y-48501456D01*
X125499500Y-50398543D01*
X125537948Y-50591831D01*
X125537949Y-50591836D01*
X125613367Y-50773913D01*
X125649190Y-50827525D01*
X125722861Y-50937782D01*
X125862218Y-51077139D01*
X126026086Y-51186632D01*
X126208165Y-51262051D01*
X126401459Y-51300500D01*
X126401460Y-51300500D01*
X126598540Y-51300500D01*
X126598541Y-51300500D01*
X126791835Y-51262051D01*
X126844883Y-51240077D01*
X126905878Y-51235277D01*
X126958047Y-51267246D01*
X126981462Y-51323774D01*
X126967178Y-51383269D01*
X126952771Y-51401546D01*
X124623814Y-53730504D01*
X124569297Y-53758281D01*
X124553810Y-53759500D01*
X124467525Y-53759500D01*
X124405790Y-53776041D01*
X124327510Y-53797017D01*
X124201989Y-53869487D01*
X124099487Y-53971989D01*
X124027017Y-54097510D01*
X123989500Y-54237525D01*
X123989500Y-54382474D01*
X124027016Y-54522486D01*
X124044116Y-54552103D01*
X124056837Y-54611952D01*
X124031950Y-54667847D01*
X123978962Y-54698440D01*
X123958379Y-54700603D01*
X123420135Y-54700603D01*
X123361944Y-54681696D01*
X123350132Y-54671607D01*
X123289118Y-54610594D01*
X123289113Y-54610590D01*
X123163591Y-54538120D01*
X123163592Y-54538120D01*
X123133999Y-54530190D01*
X123023578Y-54500603D01*
X122878628Y-54500603D01*
X122816893Y-54517144D01*
X122738613Y-54538120D01*
X122613092Y-54610590D01*
X122510590Y-54713092D01*
X122438120Y-54838613D01*
X122421211Y-54901719D01*
X122400603Y-54978628D01*
X122400603Y-55123578D01*
X122413697Y-55172445D01*
X122438120Y-55263592D01*
X122459718Y-55301000D01*
X122472440Y-55360848D01*
X122447553Y-55416744D01*
X122394565Y-55447337D01*
X122373982Y-55449500D01*
X120169032Y-55449500D01*
X120110841Y-55430593D01*
X120099029Y-55420504D01*
X120038015Y-55359491D01*
X120038010Y-55359487D01*
X119912488Y-55287017D01*
X119912489Y-55287017D01*
X119825066Y-55263592D01*
X119772475Y-55249500D01*
X119627525Y-55249500D01*
X119574934Y-55263592D01*
X119487510Y-55287017D01*
X119361989Y-55359487D01*
X119259487Y-55461989D01*
X119187017Y-55587510D01*
X119149500Y-55727525D01*
X119149500Y-55872474D01*
X119187017Y-56012489D01*
X119259487Y-56138010D01*
X119259489Y-56138012D01*
X119259491Y-56138015D01*
X119261974Y-56140498D01*
X119263115Y-56142737D01*
X119263440Y-56143161D01*
X119263361Y-56143221D01*
X119289750Y-56195013D01*
X119280179Y-56255445D01*
X119236914Y-56298710D01*
X119191969Y-56309500D01*
X115993856Y-56309500D01*
X115980854Y-56312984D01*
X115904712Y-56333386D01*
X115824788Y-56379530D01*
X110933814Y-61270504D01*
X110879297Y-61298281D01*
X110863810Y-61299500D01*
X104296144Y-61299500D01*
X104203856Y-61299500D01*
X104139706Y-61316689D01*
X104114712Y-61323386D01*
X104034788Y-61369530D01*
X101878428Y-63525889D01*
X101823911Y-63553666D01*
X101763479Y-63544095D01*
X101738423Y-63525891D01*
X101726928Y-63514396D01*
X101586788Y-63412578D01*
X101586787Y-63412577D01*
X101586785Y-63412576D01*
X101432441Y-63333935D01*
X101432438Y-63333933D01*
X101267706Y-63280408D01*
X101267702Y-63280407D01*
X101096614Y-63253310D01*
X101096611Y-63253310D01*
X100923389Y-63253310D01*
X100923385Y-63253310D01*
X100890425Y-63258530D01*
X100829993Y-63248958D01*
X100786729Y-63205693D01*
X100777158Y-63145261D01*
X100804933Y-63090747D01*
X105066186Y-58829496D01*
X105120703Y-58801719D01*
X105136190Y-58800500D01*
X108030968Y-58800500D01*
X108089159Y-58819407D01*
X108100971Y-58829496D01*
X108161984Y-58890508D01*
X108161989Y-58890512D01*
X108287511Y-58962982D01*
X108287512Y-58962982D01*
X108287515Y-58962984D01*
X108427525Y-59000500D01*
X108427526Y-59000500D01*
X108572474Y-59000500D01*
X108572475Y-59000500D01*
X108712485Y-58962984D01*
X108712487Y-58962982D01*
X108712489Y-58962982D01*
X108838010Y-58890512D01*
X108838010Y-58890511D01*
X108838015Y-58890509D01*
X108940509Y-58788015D01*
X109012984Y-58662485D01*
X109050500Y-58522475D01*
X109050500Y-58377525D01*
X109012984Y-58237515D01*
X109012982Y-58237512D01*
X109012982Y-58237510D01*
X108940512Y-58111989D01*
X108940510Y-58111987D01*
X108940509Y-58111985D01*
X108838015Y-58009491D01*
X108838012Y-58009489D01*
X108838010Y-58009487D01*
X108712488Y-57937017D01*
X108712489Y-57937017D01*
X108622797Y-57912984D01*
X108572475Y-57899500D01*
X108427525Y-57899500D01*
X108377210Y-57912982D01*
X108287510Y-57937017D01*
X108161989Y-58009487D01*
X108161984Y-58009491D01*
X108100971Y-58070504D01*
X108046454Y-58098281D01*
X108030968Y-58099500D01*
X104903856Y-58099500D01*
X104814712Y-58123386D01*
X104734788Y-58169530D01*
X99369530Y-63534788D01*
X99334240Y-63595913D01*
X99323386Y-63614712D01*
X99308443Y-63670483D01*
X99299500Y-63703857D01*
X99299500Y-64571969D01*
X99280593Y-64630160D01*
X99231093Y-64666124D01*
X99169907Y-64666124D01*
X99130498Y-64641974D01*
X99068015Y-64579491D01*
X99068012Y-64579489D01*
X99068010Y-64579487D01*
X98942488Y-64507017D01*
X98942489Y-64507017D01*
X98912896Y-64499087D01*
X98802475Y-64469500D01*
X98657525Y-64469500D01*
X98617865Y-64480127D01*
X98517510Y-64507017D01*
X98391989Y-64579487D01*
X98289487Y-64681989D01*
X98217017Y-64807510D01*
X98179500Y-64947525D01*
X95580500Y-64947525D01*
X95580500Y-64651459D01*
X95542051Y-64458165D01*
X95466632Y-64276086D01*
X95357139Y-64112218D01*
X95217782Y-63972861D01*
X95076923Y-63878742D01*
X95053913Y-63863367D01*
X94871835Y-63787949D01*
X94678543Y-63749500D01*
X94678541Y-63749500D01*
X94481459Y-63749500D01*
X94481456Y-63749500D01*
X94288165Y-63787949D01*
X94288163Y-63787949D01*
X94106086Y-63863367D01*
X93942218Y-63972861D01*
X93942214Y-63972864D01*
X93802864Y-64112214D01*
X93802861Y-64112218D01*
X93693367Y-64276086D01*
X93617949Y-64458163D01*
X93617949Y-64458165D01*
X93579500Y-64651456D01*
X93090000Y-64651456D01*
X93090000Y-64646586D01*
X93089999Y-64646581D01*
X93049650Y-64443727D01*
X92970498Y-64252639D01*
X92970491Y-64252625D01*
X92855594Y-64080670D01*
X92709329Y-63934405D01*
X92537374Y-63819508D01*
X92537360Y-63819501D01*
X92346277Y-63740351D01*
X92346269Y-63740349D01*
X92240000Y-63719211D01*
X92240000Y-64788120D01*
X92232993Y-64784075D01*
X92105826Y-64750000D01*
X91974174Y-64750000D01*
X91847007Y-64784075D01*
X91840000Y-64788120D01*
X91840000Y-63719211D01*
X91839999Y-63719211D01*
X91733730Y-63740349D01*
X91733722Y-63740351D01*
X91542639Y-63819501D01*
X91542625Y-63819508D01*
X91370670Y-63934405D01*
X91224405Y-64080670D01*
X91109508Y-64252625D01*
X91109501Y-64252639D01*
X91030349Y-64443727D01*
X90990000Y-64646581D01*
X90500500Y-64646581D01*
X90500500Y-63975326D01*
X90485966Y-63902260D01*
X90430601Y-63819399D01*
X90430599Y-63819397D01*
X90347742Y-63764035D01*
X90347740Y-63764034D01*
X90347737Y-63764033D01*
X90347736Y-63764033D01*
X90274684Y-63749501D01*
X90274674Y-63749500D01*
X88725326Y-63749500D01*
X88725325Y-63749500D01*
X88725315Y-63749501D01*
X88652263Y-63764033D01*
X88652257Y-63764035D01*
X88569400Y-63819397D01*
X88569397Y-63819400D01*
X88514035Y-63902257D01*
X88514033Y-63902263D01*
X88499501Y-63975315D01*
X88499500Y-63975327D01*
X84482426Y-63975327D01*
X84480228Y-63051024D01*
X84498997Y-62992791D01*
X84548412Y-62956709D01*
X84578993Y-62951791D01*
X98020268Y-62920350D01*
X98078503Y-62939121D01*
X98114583Y-62988537D01*
X98119500Y-63019350D01*
X98119500Y-63022474D01*
X98157017Y-63162489D01*
X98229487Y-63288010D01*
X98229489Y-63288012D01*
X98229491Y-63288015D01*
X98331985Y-63390509D01*
X98331987Y-63390510D01*
X98331989Y-63390512D01*
X98457511Y-63462982D01*
X98457512Y-63462982D01*
X98457515Y-63462984D01*
X98597525Y-63500500D01*
X98597526Y-63500500D01*
X98742474Y-63500500D01*
X98742475Y-63500500D01*
X98882485Y-63462984D01*
X98882487Y-63462982D01*
X98882489Y-63462982D01*
X99008010Y-63390512D01*
X99008010Y-63390511D01*
X99008015Y-63390509D01*
X99110509Y-63288015D01*
X99114901Y-63280408D01*
X99182982Y-63162489D01*
X99182982Y-63162487D01*
X99182984Y-63162485D01*
X99220500Y-63022475D01*
X99220500Y-62986899D01*
X99239407Y-62928708D01*
X99249490Y-62916901D01*
X100145910Y-62020481D01*
X100145913Y-62020480D01*
X100220480Y-61945913D01*
X100273207Y-61854587D01*
X100300501Y-61752727D01*
X100300501Y-61647273D01*
X100300501Y-61641211D01*
X100300500Y-61641193D01*
X100300500Y-56770076D01*
X100319407Y-56711885D01*
X100368907Y-56675921D01*
X100430093Y-56675921D01*
X100479593Y-56711885D01*
X100495125Y-56744450D01*
X100501992Y-56770076D01*
X100512017Y-56807489D01*
X100584487Y-56933010D01*
X100584489Y-56933012D01*
X100584491Y-56933015D01*
X100686985Y-57035509D01*
X100686987Y-57035510D01*
X100686989Y-57035512D01*
X100812511Y-57107982D01*
X100812512Y-57107982D01*
X100812515Y-57107984D01*
X100952525Y-57145500D01*
X100952526Y-57145500D01*
X101097474Y-57145500D01*
X101097475Y-57145500D01*
X101237485Y-57107984D01*
X101237487Y-57107982D01*
X101237489Y-57107982D01*
X101363010Y-57035512D01*
X101363010Y-57035511D01*
X101363015Y-57035509D01*
X101465509Y-56933015D01*
X101503301Y-56867558D01*
X101537982Y-56807489D01*
X101537982Y-56807487D01*
X101537984Y-56807485D01*
X101575500Y-56667475D01*
X101575500Y-56581190D01*
X101594407Y-56522999D01*
X101604496Y-56511186D01*
X103186186Y-54929496D01*
X103240703Y-54901719D01*
X103256190Y-54900500D01*
X112996142Y-54900500D01*
X112996144Y-54900500D01*
X113085288Y-54876614D01*
X113165212Y-54830470D01*
X115444226Y-52551456D01*
X121149500Y-52551456D01*
X121149500Y-52748543D01*
X121162121Y-52811989D01*
X121184983Y-52926926D01*
X121187949Y-52941834D01*
X121187949Y-52941836D01*
X121263367Y-53123913D01*
X121289802Y-53163476D01*
X121372861Y-53287782D01*
X121512218Y-53427139D01*
X121676086Y-53536632D01*
X121858165Y-53612051D01*
X122051459Y-53650500D01*
X122051460Y-53650500D01*
X123948540Y-53650500D01*
X123948541Y-53650500D01*
X124141835Y-53612051D01*
X124323914Y-53536632D01*
X124487782Y-53427139D01*
X124627139Y-53287782D01*
X124736632Y-53123914D01*
X124812051Y-52941835D01*
X124850500Y-52748541D01*
X124850500Y-52551459D01*
X124812051Y-52358165D01*
X124736632Y-52176086D01*
X124627139Y-52012218D01*
X124487782Y-51872861D01*
X124378288Y-51799699D01*
X124323913Y-51763367D01*
X124141835Y-51687949D01*
X123948543Y-51649500D01*
X123948541Y-51649500D01*
X122051459Y-51649500D01*
X122051456Y-51649500D01*
X121858165Y-51687949D01*
X121858163Y-51687949D01*
X121676086Y-51763367D01*
X121512218Y-51872861D01*
X121512214Y-51872864D01*
X121372864Y-52012214D01*
X121372861Y-52012218D01*
X121263367Y-52176086D01*
X121187949Y-52358163D01*
X121187949Y-52358165D01*
X121149500Y-52551456D01*
X115444226Y-52551456D01*
X116916186Y-51079496D01*
X116970703Y-51051719D01*
X116986190Y-51050500D01*
X117072474Y-51050500D01*
X117072475Y-51050500D01*
X117212485Y-51012984D01*
X117212487Y-51012982D01*
X117212489Y-51012982D01*
X117338010Y-50940512D01*
X117338010Y-50940511D01*
X117338015Y-50940509D01*
X117440509Y-50838015D01*
X117440512Y-50838010D01*
X117512982Y-50712489D01*
X117512982Y-50712487D01*
X117512984Y-50712485D01*
X117550500Y-50572475D01*
X117550500Y-50427525D01*
X117512984Y-50287515D01*
X117512982Y-50287512D01*
X117512982Y-50287510D01*
X117440512Y-50161989D01*
X117440510Y-50161987D01*
X117440509Y-50161985D01*
X117338015Y-50059491D01*
X117338012Y-50059489D01*
X117338010Y-50059487D01*
X117212488Y-49987017D01*
X117212489Y-49987017D01*
X117182896Y-49979087D01*
X117072475Y-49949500D01*
X116927525Y-49949500D01*
X116865790Y-49966041D01*
X116787510Y-49987017D01*
X116661989Y-50059487D01*
X116559487Y-50161989D01*
X116487017Y-50287510D01*
X116449500Y-50427525D01*
X116449500Y-50513810D01*
X116430593Y-50572001D01*
X116420504Y-50583814D01*
X112833814Y-54170504D01*
X112779297Y-54198281D01*
X112763810Y-54199500D01*
X103023856Y-54199500D01*
X102995470Y-54207106D01*
X102967083Y-54214712D01*
X102967082Y-54214711D01*
X102934715Y-54223384D01*
X102854788Y-54269530D01*
X101108814Y-56015504D01*
X101054297Y-56043281D01*
X101038810Y-56044500D01*
X100952525Y-56044500D01*
X100890790Y-56061041D01*
X100812510Y-56082017D01*
X100686989Y-56154487D01*
X100584487Y-56256989D01*
X100512018Y-56382509D01*
X100512016Y-56382513D01*
X100512016Y-56382515D01*
X100495126Y-56445548D01*
X100461802Y-56496861D01*
X100404681Y-56518787D01*
X100345580Y-56502951D01*
X100307075Y-56455401D01*
X100300500Y-56419923D01*
X100300500Y-48501456D01*
X118499500Y-48501456D01*
X118499500Y-50398543D01*
X118537948Y-50591831D01*
X118537949Y-50591836D01*
X118613367Y-50773913D01*
X118649190Y-50827525D01*
X118722861Y-50937782D01*
X118862218Y-51077139D01*
X119026086Y-51186632D01*
X119208165Y-51262051D01*
X119401459Y-51300500D01*
X119401460Y-51300500D01*
X119598540Y-51300500D01*
X119598541Y-51300500D01*
X119791835Y-51262051D01*
X119973914Y-51186632D01*
X120137782Y-51077139D01*
X120277139Y-50937782D01*
X120386632Y-50773914D01*
X120462051Y-50591835D01*
X120463647Y-50583814D01*
X120482475Y-50489159D01*
X120500500Y-50398541D01*
X120500500Y-48501459D01*
X120462051Y-48308165D01*
X120386632Y-48126086D01*
X120277139Y-47962218D01*
X120137782Y-47822861D01*
X119973914Y-47713368D01*
X119973915Y-47713368D01*
X119973913Y-47713367D01*
X119791835Y-47637949D01*
X119598543Y-47599500D01*
X119598541Y-47599500D01*
X119401459Y-47599500D01*
X119401456Y-47599500D01*
X119208165Y-47637949D01*
X119208163Y-47637949D01*
X119026086Y-47713367D01*
X118862218Y-47822861D01*
X118862214Y-47822864D01*
X118722864Y-47962214D01*
X118722861Y-47962218D01*
X118613367Y-48126086D01*
X118537949Y-48308163D01*
X118537949Y-48308165D01*
X118499500Y-48501456D01*
X100300500Y-48501456D01*
X100300500Y-48077274D01*
X100300500Y-48077273D01*
X100286061Y-48023386D01*
X100273207Y-47975412D01*
X100266032Y-47962984D01*
X100223764Y-47889773D01*
X100210500Y-47840273D01*
X100210500Y-47817525D01*
X100202457Y-47787510D01*
X100172984Y-47677515D01*
X100172982Y-47677512D01*
X100172982Y-47677510D01*
X100100512Y-47551989D01*
X100100510Y-47551987D01*
X100100509Y-47551985D01*
X99998015Y-47449491D01*
X99998012Y-47449489D01*
X99998010Y-47449487D01*
X99872488Y-47377017D01*
X99872489Y-47377017D01*
X99832067Y-47366186D01*
X99732475Y-47339500D01*
X99587525Y-47339500D01*
X99525790Y-47356041D01*
X99447510Y-47377017D01*
X99321989Y-47449487D01*
X99219487Y-47551989D01*
X99147017Y-47677510D01*
X99147016Y-47677515D01*
X99109500Y-47817525D01*
X99109500Y-47962475D01*
X99125821Y-48023386D01*
X99147017Y-48102489D01*
X99219487Y-48228010D01*
X99219489Y-48228012D01*
X99219491Y-48228015D01*
X99321985Y-48330509D01*
X99447515Y-48402984D01*
X99447517Y-48402984D01*
X99450000Y-48404418D01*
X99490941Y-48449888D01*
X99499500Y-48490155D01*
X99499500Y-61493099D01*
X99480593Y-61551290D01*
X99470504Y-61563103D01*
X98663103Y-62370504D01*
X98608586Y-62398281D01*
X98603956Y-62398645D01*
X98603958Y-62398653D01*
X98597527Y-62399499D01*
X98457510Y-62437017D01*
X98331980Y-62509493D01*
X98328165Y-62512420D01*
X98270488Y-62532839D01*
X98211824Y-62515457D01*
X98174581Y-62466912D01*
X98168906Y-62434102D01*
X98132840Y-46413384D01*
X99949500Y-46413384D01*
X99949500Y-46586614D01*
X99976597Y-46757702D01*
X99976598Y-46757706D01*
X100030123Y-46922438D01*
X100030125Y-46922441D01*
X100074476Y-47009487D01*
X100108768Y-47076788D01*
X100210586Y-47216928D01*
X100333072Y-47339414D01*
X100473212Y-47441232D01*
X100627555Y-47519873D01*
X100627557Y-47519873D01*
X100627558Y-47519874D01*
X100627561Y-47519876D01*
X100792293Y-47573401D01*
X100792297Y-47573402D01*
X100963386Y-47600500D01*
X100963389Y-47600500D01*
X101136614Y-47600500D01*
X101307702Y-47573402D01*
X101307706Y-47573401D01*
X101472438Y-47519876D01*
X101472440Y-47519874D01*
X101472445Y-47519873D01*
X101626788Y-47441232D01*
X101766928Y-47339414D01*
X101889414Y-47216928D01*
X101991232Y-47076788D01*
X102069873Y-46922445D01*
X102069874Y-46922440D01*
X102069876Y-46922438D01*
X102123401Y-46757706D01*
X102123402Y-46757702D01*
X102150500Y-46586614D01*
X102150500Y-46413384D01*
X102489500Y-46413384D01*
X102489500Y-46586614D01*
X102516597Y-46757702D01*
X102516598Y-46757706D01*
X102570123Y-46922438D01*
X102570125Y-46922441D01*
X102614476Y-47009487D01*
X102648768Y-47076788D01*
X102750586Y-47216928D01*
X102873072Y-47339414D01*
X103013212Y-47441232D01*
X103167555Y-47519873D01*
X103167557Y-47519873D01*
X103167558Y-47519874D01*
X103167561Y-47519876D01*
X103332293Y-47573401D01*
X103332297Y-47573402D01*
X103503386Y-47600500D01*
X103503389Y-47600500D01*
X103676614Y-47600500D01*
X103847702Y-47573402D01*
X103847706Y-47573401D01*
X104012438Y-47519876D01*
X104012440Y-47519874D01*
X104012445Y-47519873D01*
X104166788Y-47441232D01*
X104306928Y-47339414D01*
X104429414Y-47216928D01*
X104531232Y-47076788D01*
X104609873Y-46922445D01*
X104609874Y-46922440D01*
X104609876Y-46922438D01*
X104663401Y-46757706D01*
X104663402Y-46757702D01*
X104690500Y-46586614D01*
X104690500Y-46413385D01*
X104689883Y-46409489D01*
X104980000Y-46409489D01*
X104980000Y-46590510D01*
X105008316Y-46769289D01*
X105064250Y-46941440D01*
X105146430Y-47102728D01*
X105187667Y-47159488D01*
X105661980Y-46685174D01*
X105664075Y-46692993D01*
X105729901Y-46807007D01*
X105822993Y-46900099D01*
X105937007Y-46965925D01*
X105944821Y-46968019D01*
X105470511Y-47442330D01*
X105527275Y-47483571D01*
X105688559Y-47565749D01*
X105860710Y-47621683D01*
X106039490Y-47650000D01*
X106220510Y-47650000D01*
X106399289Y-47621683D01*
X106571440Y-47565749D01*
X106732728Y-47483569D01*
X106789487Y-47442330D01*
X106315176Y-46968019D01*
X106322993Y-46965925D01*
X106437007Y-46900099D01*
X106530099Y-46807007D01*
X106595925Y-46692993D01*
X106598019Y-46685176D01*
X107072330Y-47159487D01*
X107113569Y-47102728D01*
X107195749Y-46941440D01*
X107251683Y-46769289D01*
X107280000Y-46590510D01*
X107280000Y-46413384D01*
X107569500Y-46413384D01*
X107569500Y-46586614D01*
X107596597Y-46757702D01*
X107596598Y-46757706D01*
X107650123Y-46922438D01*
X107650125Y-46922441D01*
X107694476Y-47009487D01*
X107728768Y-47076788D01*
X107830586Y-47216928D01*
X107953072Y-47339414D01*
X108093212Y-47441232D01*
X108247555Y-47519873D01*
X108247557Y-47519873D01*
X108247558Y-47519874D01*
X108247561Y-47519876D01*
X108412293Y-47573401D01*
X108412297Y-47573402D01*
X108583386Y-47600500D01*
X108583389Y-47600500D01*
X108756614Y-47600500D01*
X108927702Y-47573402D01*
X108927706Y-47573401D01*
X109092438Y-47519876D01*
X109092440Y-47519874D01*
X109092445Y-47519873D01*
X109246788Y-47441232D01*
X109386928Y-47339414D01*
X109509414Y-47216928D01*
X109611232Y-47076788D01*
X109689873Y-46922445D01*
X109689874Y-46922440D01*
X109689876Y-46922438D01*
X109743401Y-46757706D01*
X109743402Y-46757702D01*
X109770500Y-46586614D01*
X109770500Y-46413384D01*
X110109500Y-46413384D01*
X110109500Y-46586614D01*
X110136597Y-46757702D01*
X110136598Y-46757706D01*
X110190123Y-46922438D01*
X110190125Y-46922441D01*
X110234476Y-47009487D01*
X110268768Y-47076788D01*
X110370586Y-47216928D01*
X110493072Y-47339414D01*
X110633212Y-47441232D01*
X110787555Y-47519873D01*
X110787557Y-47519873D01*
X110787558Y-47519874D01*
X110787561Y-47519876D01*
X110952293Y-47573401D01*
X110952297Y-47573402D01*
X111123386Y-47600500D01*
X111123389Y-47600500D01*
X111296614Y-47600500D01*
X111467702Y-47573402D01*
X111467706Y-47573401D01*
X111632438Y-47519876D01*
X111632440Y-47519874D01*
X111632445Y-47519873D01*
X111786788Y-47441232D01*
X111926928Y-47339414D01*
X112049414Y-47216928D01*
X112151232Y-47076788D01*
X112229873Y-46922445D01*
X112229874Y-46922440D01*
X112229876Y-46922438D01*
X112283401Y-46757706D01*
X112283402Y-46757702D01*
X112310500Y-46586614D01*
X112310500Y-46413384D01*
X112649500Y-46413384D01*
X112649500Y-46586614D01*
X112676597Y-46757702D01*
X112676598Y-46757706D01*
X112730123Y-46922438D01*
X112730125Y-46922441D01*
X112774476Y-47009487D01*
X112808768Y-47076788D01*
X112910586Y-47216928D01*
X113033072Y-47339414D01*
X113173212Y-47441232D01*
X113327555Y-47519873D01*
X113327557Y-47519873D01*
X113327558Y-47519874D01*
X113327561Y-47519876D01*
X113492293Y-47573401D01*
X113492297Y-47573402D01*
X113663386Y-47600500D01*
X113663389Y-47600500D01*
X113836614Y-47600500D01*
X114007702Y-47573402D01*
X114007706Y-47573401D01*
X114172438Y-47519876D01*
X114172440Y-47519874D01*
X114172445Y-47519873D01*
X114326788Y-47441232D01*
X114466928Y-47339414D01*
X114589414Y-47216928D01*
X114691232Y-47076788D01*
X114769873Y-46922445D01*
X114769874Y-46922440D01*
X114769876Y-46922438D01*
X114823401Y-46757706D01*
X114823402Y-46757702D01*
X114850500Y-46586614D01*
X114850500Y-46413384D01*
X114850499Y-46413378D01*
X114823402Y-46242297D01*
X114823401Y-46242293D01*
X114769876Y-46077561D01*
X114769875Y-46077560D01*
X114769873Y-46077557D01*
X114769873Y-46077555D01*
X114768184Y-46074241D01*
X114758611Y-46013812D01*
X114786386Y-45959294D01*
X114786390Y-45959290D01*
X115020497Y-45725184D01*
X115075013Y-45697407D01*
X115135445Y-45706978D01*
X115178710Y-45750243D01*
X115189500Y-45795188D01*
X115189500Y-47374672D01*
X115189501Y-47374684D01*
X115204033Y-47447736D01*
X115204035Y-47447742D01*
X115259397Y-47530599D01*
X115259400Y-47530602D01*
X115323455Y-47573401D01*
X115342260Y-47585966D01*
X115397808Y-47597015D01*
X115415315Y-47600498D01*
X115415320Y-47600498D01*
X115415326Y-47600500D01*
X115415327Y-47600500D01*
X117164673Y-47600500D01*
X117164674Y-47600500D01*
X117237740Y-47585966D01*
X117320601Y-47530601D01*
X117375966Y-47447740D01*
X117390500Y-47374674D01*
X117390500Y-46949500D01*
X117409407Y-46891309D01*
X117458907Y-46855345D01*
X117489500Y-46850500D01*
X127163810Y-46850500D01*
X127222001Y-46869407D01*
X127233814Y-46879496D01*
X127720504Y-47366186D01*
X127748281Y-47420703D01*
X127749500Y-47436190D01*
X127749500Y-47522475D01*
X127770407Y-47600500D01*
X127787017Y-47662489D01*
X127859487Y-47788010D01*
X127859489Y-47788012D01*
X127859491Y-47788015D01*
X127961985Y-47890509D01*
X127961987Y-47890510D01*
X127961989Y-47890512D01*
X128087511Y-47962982D01*
X128087512Y-47962982D01*
X128087515Y-47962984D01*
X128227525Y-48000500D01*
X128227526Y-48000500D01*
X128372474Y-48000500D01*
X128372475Y-48000500D01*
X128512485Y-47962984D01*
X128512487Y-47962982D01*
X128512489Y-47962982D01*
X128638010Y-47890512D01*
X128638010Y-47890511D01*
X128638015Y-47890509D01*
X128740509Y-47788015D01*
X128783607Y-47713367D01*
X128812982Y-47662489D01*
X128812982Y-47662487D01*
X128812984Y-47662485D01*
X128850500Y-47522475D01*
X128850500Y-47377525D01*
X128812984Y-47237515D01*
X128812982Y-47237512D01*
X128812982Y-47237510D01*
X128740512Y-47111989D01*
X128740510Y-47111987D01*
X128740509Y-47111985D01*
X128638015Y-47009491D01*
X128638012Y-47009489D01*
X128638010Y-47009487D01*
X128512488Y-46937017D01*
X128512489Y-46937017D01*
X128458080Y-46922438D01*
X128372475Y-46899500D01*
X128372474Y-46899500D01*
X128286190Y-46899500D01*
X128227999Y-46880593D01*
X128216186Y-46870504D01*
X128038675Y-46692993D01*
X127665183Y-46319501D01*
X127637408Y-46264987D01*
X127646979Y-46204555D01*
X127690244Y-46161290D01*
X127735189Y-46150500D01*
X130515281Y-46150500D01*
X130573472Y-46169407D01*
X130585285Y-46179496D01*
X133870504Y-49464715D01*
X133898281Y-49519232D01*
X133899500Y-49534719D01*
X133899500Y-50430968D01*
X133880593Y-50489159D01*
X133870504Y-50500971D01*
X133809491Y-50561984D01*
X133809487Y-50561989D01*
X133737017Y-50687510D01*
X133699500Y-50827525D01*
X133699500Y-50972475D01*
X133715040Y-51030469D01*
X133737017Y-51112489D01*
X133809487Y-51238010D01*
X133809489Y-51238012D01*
X133809491Y-51238015D01*
X133911985Y-51340509D01*
X133911987Y-51340510D01*
X133911989Y-51340512D01*
X134037511Y-51412982D01*
X134037512Y-51412982D01*
X134037515Y-51412984D01*
X134177525Y-51450500D01*
X134177526Y-51450500D01*
X134322474Y-51450500D01*
X134322475Y-51450500D01*
X134462485Y-51412984D01*
X134462487Y-51412982D01*
X134462489Y-51412982D01*
X134588010Y-51340512D01*
X134588010Y-51340511D01*
X134588015Y-51340509D01*
X134690509Y-51238015D01*
X134730409Y-51168907D01*
X134762982Y-51112489D01*
X134762982Y-51112487D01*
X134762984Y-51112485D01*
X134800500Y-50972475D01*
X134800500Y-50827525D01*
X134762984Y-50687515D01*
X134762982Y-50687512D01*
X134762982Y-50687510D01*
X134690512Y-50561989D01*
X134690508Y-50561984D01*
X134629496Y-50500971D01*
X134601719Y-50446454D01*
X134600500Y-50430968D01*
X134600500Y-49302386D01*
X134600500Y-49302385D01*
X134576614Y-49213241D01*
X134530470Y-49133317D01*
X134020528Y-48623375D01*
X133992751Y-48568858D01*
X134002322Y-48508426D01*
X134041030Y-48467635D01*
X134088015Y-48440509D01*
X134190509Y-48338015D01*
X134262984Y-48212485D01*
X134300500Y-48072475D01*
X134300500Y-47927525D01*
X134262984Y-47787515D01*
X134262982Y-47787512D01*
X134262982Y-47787510D01*
X134190512Y-47661989D01*
X134190510Y-47661987D01*
X134190509Y-47661985D01*
X134088015Y-47559491D01*
X134088012Y-47559489D01*
X134088010Y-47559487D01*
X133962488Y-47487017D01*
X133962489Y-47487017D01*
X133932896Y-47479087D01*
X133822475Y-47449500D01*
X133822474Y-47449500D01*
X133736189Y-47449500D01*
X133677998Y-47430593D01*
X133666185Y-47420504D01*
X131233462Y-44987781D01*
X128565212Y-42319530D01*
X128485288Y-42273386D01*
X128396144Y-42249500D01*
X114246144Y-42249500D01*
X114153856Y-42249500D01*
X114064712Y-42273386D01*
X113984785Y-42319532D01*
X113783813Y-42520504D01*
X113729297Y-42548281D01*
X113713810Y-42549500D01*
X113627525Y-42549500D01*
X113566596Y-42565826D01*
X113487510Y-42587017D01*
X113361989Y-42659487D01*
X113259487Y-42761989D01*
X113187017Y-42887510D01*
X113149500Y-43027525D01*
X113149500Y-43172474D01*
X113187017Y-43312489D01*
X113259487Y-43438010D01*
X113259489Y-43438012D01*
X113259491Y-43438015D01*
X113361985Y-43540509D01*
X113361987Y-43540510D01*
X113361989Y-43540512D01*
X113487511Y-43612982D01*
X113487512Y-43612982D01*
X113487515Y-43612984D01*
X113627525Y-43650500D01*
X113627526Y-43650500D01*
X113772474Y-43650500D01*
X113772475Y-43650500D01*
X113912485Y-43612984D01*
X113912487Y-43612982D01*
X113912489Y-43612982D01*
X114038010Y-43540512D01*
X114038010Y-43540511D01*
X114038015Y-43540509D01*
X114140509Y-43438015D01*
X114177080Y-43374672D01*
X114212982Y-43312489D01*
X114212982Y-43312487D01*
X114212984Y-43312485D01*
X114250500Y-43172475D01*
X114250500Y-43086190D01*
X114269407Y-43027999D01*
X114279496Y-43016186D01*
X114316186Y-42979496D01*
X114370703Y-42951719D01*
X114386190Y-42950500D01*
X128163810Y-42950500D01*
X128222001Y-42969407D01*
X128233814Y-42979496D01*
X130534814Y-45280496D01*
X130562591Y-45335013D01*
X130553020Y-45395445D01*
X130509755Y-45438710D01*
X130464810Y-45449500D01*
X124307711Y-45449500D01*
X124249520Y-45430593D01*
X124213556Y-45381093D01*
X124213556Y-45319907D01*
X124249520Y-45270407D01*
X124269826Y-45259036D01*
X124286984Y-45251928D01*
X124323914Y-45236632D01*
X124487782Y-45127139D01*
X124627139Y-44987782D01*
X124736632Y-44823914D01*
X124812051Y-44641835D01*
X124850500Y-44448541D01*
X124850500Y-44251459D01*
X124812051Y-44058165D01*
X124736632Y-43876086D01*
X124627139Y-43712218D01*
X124487782Y-43572861D01*
X124323914Y-43463368D01*
X124323915Y-43463368D01*
X124323913Y-43463367D01*
X124141835Y-43387949D01*
X123948543Y-43349500D01*
X123948541Y-43349500D01*
X122051459Y-43349500D01*
X122051456Y-43349500D01*
X121858165Y-43387949D01*
X121858163Y-43387949D01*
X121676086Y-43463367D01*
X121512218Y-43572861D01*
X121512214Y-43572864D01*
X121372864Y-43712214D01*
X121372861Y-43712218D01*
X121263367Y-43876086D01*
X121187949Y-44058163D01*
X121187949Y-44058165D01*
X121149500Y-44251456D01*
X121149500Y-44448543D01*
X121187949Y-44641834D01*
X121187949Y-44641836D01*
X121263367Y-44823913D01*
X121263368Y-44823914D01*
X121372861Y-44987782D01*
X121512218Y-45127139D01*
X121676086Y-45236632D01*
X121730174Y-45259036D01*
X121776700Y-45298772D01*
X121790984Y-45358267D01*
X121767570Y-45414795D01*
X121715401Y-45446764D01*
X121692289Y-45449500D01*
X118436190Y-45449500D01*
X118377999Y-45430593D01*
X118366186Y-45420504D01*
X118182314Y-45236632D01*
X117815212Y-44869530D01*
X117735288Y-44823386D01*
X117646144Y-44799500D01*
X115053856Y-44799500D01*
X114964712Y-44823386D01*
X114964711Y-44823386D01*
X114964709Y-44823387D01*
X114884789Y-44869529D01*
X114884787Y-44869531D01*
X114290707Y-45463609D01*
X114236191Y-45491386D01*
X114175765Y-45481818D01*
X114172445Y-45480126D01*
X114172438Y-45480123D01*
X114007706Y-45426598D01*
X114007702Y-45426597D01*
X113836614Y-45399500D01*
X113836611Y-45399500D01*
X113663389Y-45399500D01*
X113663386Y-45399500D01*
X113492297Y-45426597D01*
X113492293Y-45426598D01*
X113327561Y-45480123D01*
X113327558Y-45480125D01*
X113173214Y-45558766D01*
X113033073Y-45660585D01*
X112910585Y-45783073D01*
X112808766Y-45923214D01*
X112730125Y-46077558D01*
X112730123Y-46077561D01*
X112676598Y-46242293D01*
X112676597Y-46242297D01*
X112649501Y-46413378D01*
X112649500Y-46413384D01*
X112310500Y-46413384D01*
X112310499Y-46413378D01*
X112283402Y-46242297D01*
X112283401Y-46242293D01*
X112229876Y-46077561D01*
X112229874Y-46077558D01*
X112229873Y-46077557D01*
X112229873Y-46077555D01*
X112151232Y-45923212D01*
X112049414Y-45783072D01*
X111926928Y-45660586D01*
X111786788Y-45558768D01*
X111786787Y-45558767D01*
X111786785Y-45558766D01*
X111632441Y-45480125D01*
X111632438Y-45480123D01*
X111467706Y-45426598D01*
X111467702Y-45426597D01*
X111296614Y-45399500D01*
X111296611Y-45399500D01*
X111123389Y-45399500D01*
X111123386Y-45399500D01*
X110952297Y-45426597D01*
X110952293Y-45426598D01*
X110787561Y-45480123D01*
X110787558Y-45480125D01*
X110633214Y-45558766D01*
X110493073Y-45660585D01*
X110370585Y-45783073D01*
X110268766Y-45923214D01*
X110190125Y-46077558D01*
X110190123Y-46077561D01*
X110136598Y-46242293D01*
X110136597Y-46242297D01*
X110109501Y-46413378D01*
X110109500Y-46413384D01*
X109770500Y-46413384D01*
X109770499Y-46413378D01*
X109743402Y-46242297D01*
X109743401Y-46242293D01*
X109689876Y-46077561D01*
X109689874Y-46077558D01*
X109689873Y-46077557D01*
X109689873Y-46077555D01*
X109611232Y-45923212D01*
X109509414Y-45783072D01*
X109386928Y-45660586D01*
X109246788Y-45558768D01*
X109246787Y-45558767D01*
X109246785Y-45558766D01*
X109092441Y-45480125D01*
X109092438Y-45480123D01*
X108927706Y-45426598D01*
X108927702Y-45426597D01*
X108756614Y-45399500D01*
X108756611Y-45399500D01*
X108583389Y-45399500D01*
X108583386Y-45399500D01*
X108412297Y-45426597D01*
X108412293Y-45426598D01*
X108247561Y-45480123D01*
X108247558Y-45480125D01*
X108093214Y-45558766D01*
X107953073Y-45660585D01*
X107830585Y-45783073D01*
X107728766Y-45923214D01*
X107650125Y-46077558D01*
X107650123Y-46077561D01*
X107596598Y-46242293D01*
X107596597Y-46242297D01*
X107569501Y-46413378D01*
X107569500Y-46413384D01*
X107280000Y-46413384D01*
X107280000Y-46409489D01*
X107251683Y-46230710D01*
X107195749Y-46058559D01*
X107113571Y-45897275D01*
X107072330Y-45840511D01*
X106598019Y-46314821D01*
X106595925Y-46307007D01*
X106530099Y-46192993D01*
X106437007Y-46099901D01*
X106322993Y-46034075D01*
X106315174Y-46031980D01*
X106789488Y-45557667D01*
X106732728Y-45516430D01*
X106571440Y-45434250D01*
X106399289Y-45378316D01*
X106220510Y-45350000D01*
X106039490Y-45350000D01*
X105860710Y-45378316D01*
X105688559Y-45434250D01*
X105527267Y-45516432D01*
X105470510Y-45557667D01*
X105944823Y-46031980D01*
X105937007Y-46034075D01*
X105822993Y-46099901D01*
X105729901Y-46192993D01*
X105664075Y-46307007D01*
X105661980Y-46314823D01*
X105187667Y-45840510D01*
X105146432Y-45897267D01*
X105064250Y-46058559D01*
X105008316Y-46230710D01*
X104980000Y-46409489D01*
X104689883Y-46409489D01*
X104663402Y-46242297D01*
X104663401Y-46242293D01*
X104609876Y-46077561D01*
X104609874Y-46077558D01*
X104609873Y-46077557D01*
X104609873Y-46077555D01*
X104531232Y-45923212D01*
X104429414Y-45783072D01*
X104306928Y-45660586D01*
X104166788Y-45558768D01*
X104166787Y-45558767D01*
X104166785Y-45558766D01*
X104012441Y-45480125D01*
X104012438Y-45480123D01*
X103847706Y-45426598D01*
X103847702Y-45426597D01*
X103676614Y-45399500D01*
X103676611Y-45399500D01*
X103503389Y-45399500D01*
X103503386Y-45399500D01*
X103332297Y-45426597D01*
X103332293Y-45426598D01*
X103167561Y-45480123D01*
X103167558Y-45480125D01*
X103013214Y-45558766D01*
X102873073Y-45660585D01*
X102750585Y-45783073D01*
X102648766Y-45923214D01*
X102570125Y-46077558D01*
X102570123Y-46077561D01*
X102516598Y-46242293D01*
X102516597Y-46242297D01*
X102489501Y-46413378D01*
X102489500Y-46413384D01*
X102150500Y-46413384D01*
X102150499Y-46413378D01*
X102123402Y-46242297D01*
X102123401Y-46242293D01*
X102069876Y-46077561D01*
X102069874Y-46077558D01*
X102069873Y-46077557D01*
X102069873Y-46077555D01*
X101991232Y-45923212D01*
X101889414Y-45783072D01*
X101766928Y-45660586D01*
X101626788Y-45558768D01*
X101626787Y-45558767D01*
X101626785Y-45558766D01*
X101472441Y-45480125D01*
X101472438Y-45480123D01*
X101307706Y-45426598D01*
X101307702Y-45426597D01*
X101136614Y-45399500D01*
X101136611Y-45399500D01*
X100963389Y-45399500D01*
X100963386Y-45399500D01*
X100792297Y-45426597D01*
X100792293Y-45426598D01*
X100627561Y-45480123D01*
X100627558Y-45480125D01*
X100473214Y-45558766D01*
X100333073Y-45660585D01*
X100210585Y-45783073D01*
X100108766Y-45923214D01*
X100030125Y-46077558D01*
X100030123Y-46077561D01*
X99976598Y-46242293D01*
X99976597Y-46242297D01*
X99949501Y-46413378D01*
X99949500Y-46413384D01*
X98132840Y-46413384D01*
X98122003Y-41599722D01*
X98140780Y-41541490D01*
X98190198Y-41505415D01*
X98221003Y-41500500D01*
X132042879Y-41500500D01*
X132101070Y-41519407D01*
G37*
G04 #@! TD.AperFunction*
G04 #@! TD*
M02*
