G04 #@! TF.GenerationSoftware,KiCad,Pcbnew,10.0.4*
G04 #@! TF.CreationDate,2026-08-01T02:29:15-07:00*
G04 #@! TF.ProjectId,eurorack,6575726f-7261-4636-9b2e-6b696361645f,rev?*
G04 #@! TF.SameCoordinates,Original*
G04 #@! TF.FileFunction,Copper,L1,Top*
G04 #@! TF.FilePolarity,Positive*
%FSLAX46Y46*%
G04 Gerber Fmt 4.6, Leading zero omitted, Abs format (unit mm)*
G04 Created by KiCad (PCBNEW 10.0.4) date 2026-08-01 02:29:15*
%MOMM*%
%LPD*%
G01*
G04 APERTURE LIST*
G04 Aperture macros list*
%AMRoundRect*
0 Rectangle with rounded corners*
0 $1 Rounding radius*
0 $2 $3 $4 $5 $6 $7 $8 $9 X,Y pos of 4 corners*
0 Add a 4 corners polygon primitive as box body*
4,1,4,$2,$3,$4,$5,$6,$7,$8,$9,$2,$3,0*
0 Add four circle primitives for the rounded corners*
1,1,$1+$1,$2,$3*
1,1,$1+$1,$4,$5*
1,1,$1+$1,$6,$7*
1,1,$1+$1,$8,$9*
0 Add four rect primitives between the rounded corners*
20,1,$1+$1,$2,$3,$4,$5,0*
20,1,$1+$1,$4,$5,$6,$7,0*
20,1,$1+$1,$6,$7,$8,$9,0*
20,1,$1+$1,$8,$9,$2,$3,0*%
G04 Aperture macros list end*
G04 #@! TA.AperFunction,ComponentPad*
%ADD10R,1.700000X1.700000*%
G04 #@! TD*
G04 #@! TA.AperFunction,ComponentPad*
%ADD11C,1.700000*%
G04 #@! TD*
G04 #@! TA.AperFunction,ComponentPad*
%ADD12O,3.200000X1.500000*%
G04 #@! TD*
G04 #@! TA.AperFunction,ComponentPad*
%ADD13O,1.500000X3.200000*%
G04 #@! TD*
G04 #@! TA.AperFunction,SMDPad,CuDef*
%ADD14RoundRect,0.140000X0.170000X-0.140000X0.170000X0.140000X-0.170000X0.140000X-0.170000X-0.140000X0*%
G04 #@! TD*
G04 #@! TA.AperFunction,SMDPad,CuDef*
%ADD15RoundRect,0.250000X-0.475000X0.250000X-0.475000X-0.250000X0.475000X-0.250000X0.475000X0.250000X0*%
G04 #@! TD*
G04 #@! TA.AperFunction,SMDPad,CuDef*
%ADD16RoundRect,0.140000X-0.170000X0.140000X-0.170000X-0.140000X0.170000X-0.140000X0.170000X0.140000X0*%
G04 #@! TD*
G04 #@! TA.AperFunction,SMDPad,CuDef*
%ADD17RoundRect,0.135000X-0.135000X-0.185000X0.135000X-0.185000X0.135000X0.185000X-0.135000X0.185000X0*%
G04 #@! TD*
G04 #@! TA.AperFunction,SMDPad,CuDef*
%ADD18RoundRect,0.250000X0.475000X-0.250000X0.475000X0.250000X-0.475000X0.250000X-0.475000X-0.250000X0*%
G04 #@! TD*
G04 #@! TA.AperFunction,SMDPad,CuDef*
%ADD19RoundRect,0.218750X0.218750X0.381250X-0.218750X0.381250X-0.218750X-0.381250X0.218750X-0.381250X0*%
G04 #@! TD*
G04 #@! TA.AperFunction,SMDPad,CuDef*
%ADD20RoundRect,0.135000X0.135000X0.185000X-0.135000X0.185000X-0.135000X-0.185000X0.135000X-0.185000X0*%
G04 #@! TD*
G04 #@! TA.AperFunction,ComponentPad*
%ADD21R,1.500000X2.500000*%
G04 #@! TD*
G04 #@! TA.AperFunction,ComponentPad*
%ADD22O,1.500000X2.500000*%
G04 #@! TD*
G04 #@! TA.AperFunction,ComponentPad*
%ADD23RoundRect,0.250000X0.600000X-0.600000X0.600000X0.600000X-0.600000X0.600000X-0.600000X-0.600000X0*%
G04 #@! TD*
G04 #@! TA.AperFunction,ViaPad*
%ADD24C,0.600000*%
G04 #@! TD*
G04 #@! TA.AperFunction,Conductor*
%ADD25C,0.200000*%
G04 #@! TD*
G04 #@! TA.AperFunction,Conductor*
%ADD26C,0.300000*%
G04 #@! TD*
G04 #@! TA.AperFunction,Conductor*
%ADD27C,0.500000*%
G04 #@! TD*
G04 APERTURE END LIST*
D10*
G04 #@! TO.P,J8,1,Pin_1_1*
G04 #@! TO.N,AIN_T*
X67880000Y-64337322D03*
D11*
G04 #@! TO.P,J8,2,Pin_2_2*
G04 #@! TO.N,AIN_S*
X70420000Y-64337322D03*
G04 #@! TO.P,J8,3,Pin_3_3*
G04 #@! TO.N,AOUT_S*
X72960000Y-64337322D03*
G04 #@! TO.P,J8,4,Pin_4_4*
G04 #@! TO.N,AOUT_T*
X75500000Y-64337322D03*
G04 #@! TD*
D12*
G04 #@! TO.P,J7 (output),3*
G04 #@! TO.N,N/C*
X123000000Y-44350000D03*
D13*
G04 #@! TO.P,J7 (output),S*
G04 #@! TO.N,AOUT_S*
X126500000Y-49450000D03*
G04 #@! TO.P,J7 (output),T*
G04 #@! TO.N,AOUT_T*
X119500000Y-49450000D03*
D12*
G04 #@! TO.P,J7 (output),TN*
G04 #@! TO.N,unconnected-(J7-PadTN)*
X123000000Y-52650000D03*
G04 #@! TD*
D14*
G04 #@! TO.P,C2,1*
G04 #@! TO.N,+12V_F*
X85180000Y-65980000D03*
G04 #@! TO.P,C2,2*
G04 #@! TO.N,GND*
X85180000Y-65020000D03*
G04 #@! TD*
D15*
G04 #@! TO.P,C3,1*
G04 #@! TO.N,+5V*
X97330000Y-64550000D03*
G04 #@! TO.P,C3,2*
G04 #@! TO.N,GND*
X97330000Y-66450000D03*
G04 #@! TD*
D16*
G04 #@! TO.P,C4,1*
G04 #@! TO.N,+5V*
X98730000Y-65020000D03*
G04 #@! TO.P,C4,2*
G04 #@! TO.N,GND*
X98730000Y-65980000D03*
G04 #@! TD*
D10*
G04 #@! TO.P,J10,1,Pin_1_1*
G04 #@! TO.N,GND*
X130250000Y-59830000D03*
D11*
G04 #@! TO.P,J10,2,Pin_2_2*
G04 #@! TO.N,+3V3*
X130250000Y-57290000D03*
G04 #@! TO.P,J10,3,Pin_3_3*
G04 #@! TO.N,SCL*
X130250000Y-54750000D03*
G04 #@! TO.P,J10,4,Pin_4_4*
G04 #@! TO.N,SDA*
X130250000Y-52210000D03*
G04 #@! TD*
D17*
G04 #@! TO.P,R3,1*
G04 #@! TO.N,AIN_T*
X68490000Y-67250000D03*
G04 #@! TO.P,R3,2*
G04 #@! TO.N,AIN_S*
X69510000Y-67250000D03*
G04 #@! TD*
D10*
G04 #@! TO.P,J4,1,Pin_1_1*
G04 #@! TO.N,SDA*
X116290000Y-46500000D03*
D11*
G04 #@! TO.P,J4,2,Pin_2_2*
G04 #@! TO.N,SCL*
X113750000Y-46500000D03*
G04 #@! TO.P,J4,3,Pin_3_3*
G04 #@! TO.N,+3V3*
X111210000Y-46500000D03*
G04 #@! TO.P,J4,4,Pin_4_4*
G04 #@! TO.N,PASS_B4*
X108670000Y-46500000D03*
G04 #@! TO.P,J4,5,Pin_5_5*
G04 #@! TO.N,GND*
X106130000Y-46500000D03*
G04 #@! TO.P,J4,6,Pin_6_6*
G04 #@! TO.N,PASS_B2*
X103590000Y-46500000D03*
G04 #@! TO.P,J4,7,Pin_7_7*
G04 #@! TO.N,+5V*
X101050000Y-46500000D03*
G04 #@! TD*
D18*
G04 #@! TO.P,C1,1*
G04 #@! TO.N,+12V_F*
X86580000Y-66450000D03*
G04 #@! TO.P,C1,2*
G04 #@! TO.N,GND*
X86580000Y-64550000D03*
G04 #@! TD*
D19*
G04 #@! TO.P,FB1,1*
G04 #@! TO.N,+12V_P*
X107500000Y-68000000D03*
G04 #@! TO.P,FB1,2*
G04 #@! TO.N,+12V_F*
X105375000Y-68000000D03*
G04 #@! TD*
D12*
G04 #@! TO.P,J6 (input),3*
G04 #@! TO.N,N/C*
X123000000Y-68150000D03*
D13*
G04 #@! TO.P,J6 (input),S*
G04 #@! TO.N,AIN_S*
X119500000Y-63050000D03*
G04 #@! TO.P,J6 (input),T*
G04 #@! TO.N,AIN_JACK*
X126500000Y-63050000D03*
D12*
G04 #@! TO.P,J6 (input),TN*
G04 #@! TO.N,unconnected-(J6-PadTN)*
X123000000Y-59850000D03*
G04 #@! TD*
D20*
G04 #@! TO.P,R2,1*
G04 #@! TO.N,AIN_JACK*
X69510000Y-68500000D03*
G04 #@! TO.P,R2,2*
G04 #@! TO.N,AIN_T*
X68490000Y-68500000D03*
G04 #@! TD*
D10*
G04 #@! TO.P,J5,1,Pin_1_1*
G04 #@! TO.N,DET*
X116250000Y-64353810D03*
D11*
G04 #@! TO.P,J5,2,Pin_2_2*
G04 #@! TO.N,MCLK*
X113710000Y-64353810D03*
G04 #@! TO.P,J5,3,Pin_3_3*
G04 #@! TO.N,BCLK*
X111170000Y-64353810D03*
G04 #@! TO.P,J5,4,Pin_4_4*
G04 #@! TO.N,DSDIN*
X108630000Y-64353810D03*
G04 #@! TO.P,J5,5,Pin_5_5*
G04 #@! TO.N,GND*
X106090000Y-64353810D03*
G04 #@! TO.P,J5,6,Pin_6_6*
G04 #@! TO.N,LRCK*
X103550000Y-64353810D03*
G04 #@! TO.P,J5,7,Pin_7_7*
G04 #@! TO.N,ASDOUT*
X101010000Y-64353810D03*
G04 #@! TD*
D21*
G04 #@! TO.P,U1,1,IN_1*
G04 #@! TO.N,+12V_F*
X89500000Y-65250000D03*
D22*
G04 #@! TO.P,U1,2,GND_2*
G04 #@! TO.N,GND*
X92040000Y-65250000D03*
G04 #@! TO.P,U1,3,OUT_3*
G04 #@! TO.N,+5V*
X94580000Y-65250000D03*
G04 #@! TD*
D10*
G04 #@! TO.P,J3,1,Pin_1_1*
G04 #@! TO.N,+5V*
X148081454Y-60375457D03*
D11*
G04 #@! TO.P,J3,2,Pin_2_2*
G04 #@! TO.N,PASS_B2*
X145541454Y-60375457D03*
G04 #@! TO.P,J3,3,Pin_3_3*
G04 #@! TO.N,GND*
X143001454Y-60375457D03*
G04 #@! TO.P,J3,4,Pin_4_4*
G04 #@! TO.N,PASS_B4*
X140461454Y-60375457D03*
G04 #@! TO.P,J3,5,Pin_5_5*
G04 #@! TO.N,+3V3*
X137921454Y-60375457D03*
G04 #@! TO.P,J3,6,Pin_6_6*
G04 #@! TO.N,SCL*
X135381454Y-60375457D03*
G04 #@! TO.P,J3,7,Pin_7_7*
G04 #@! TO.N,SDA*
X132841454Y-60375457D03*
G04 #@! TD*
D23*
G04 #@! TO.P,J1,1,Pin_1_1*
G04 #@! TO.N,-12V*
X144080000Y-68040000D03*
D11*
G04 #@! TO.P,J1,2,Pin_2_2*
X144080000Y-65500000D03*
G04 #@! TO.P,J1,3,Pin_3_3*
G04 #@! TO.N,GND*
X141540000Y-68040000D03*
G04 #@! TO.P,J1,4,Pin_4_4*
X141540000Y-65500000D03*
G04 #@! TO.P,J1,5,Pin_5_5*
X139000000Y-68040000D03*
G04 #@! TO.P,J1,6,Pin_6_6*
X139000000Y-65500000D03*
G04 #@! TO.P,J1,7,Pin_7_7*
X136460000Y-68040000D03*
G04 #@! TO.P,J1,8,Pin_8_8*
X136460000Y-65500000D03*
G04 #@! TO.P,J1,9,Pin_9_9*
G04 #@! TO.N,+12V_RAW*
X133920000Y-68040000D03*
G04 #@! TO.P,J1,10,Pin_10_10*
X133920000Y-65500000D03*
G04 #@! TD*
D10*
G04 #@! TO.P,J2,1,Pin_1_1*
G04 #@! TO.N,ASDOUT*
X148078728Y-42500000D03*
D11*
G04 #@! TO.P,J2,2,Pin_2_2*
G04 #@! TO.N,LRCK*
X145538728Y-42500000D03*
G04 #@! TO.P,J2,3,Pin_3_3*
G04 #@! TO.N,GND*
X142998728Y-42500000D03*
G04 #@! TO.P,J2,4,Pin_4_4*
G04 #@! TO.N,DSDIN*
X140458728Y-42500000D03*
G04 #@! TO.P,J2,5,Pin_5_5*
G04 #@! TO.N,BCLK*
X137918728Y-42500000D03*
G04 #@! TO.P,J2,6,Pin_6_6*
G04 #@! TO.N,MCLK*
X135378728Y-42500000D03*
G04 #@! TO.P,J2,7,Pin_7_7*
G04 #@! TO.N,DET*
X132838728Y-42500000D03*
G04 #@! TD*
D24*
G04 #@! TO.N,GND*
X86600000Y-64550000D03*
X97330000Y-66450000D03*
G04 #@! TO.N,+5V*
X145870000Y-63350000D03*
X98730000Y-65020000D03*
G04 #@! TO.N,+3V3*
X135790000Y-57290000D03*
X137850000Y-46000000D03*
X113700000Y-43100000D03*
G04 #@! TO.N,SCL*
X128700000Y-47950000D03*
X133600000Y-55400000D03*
G04 #@! TO.N,SDA*
X124460000Y-46500000D03*
G04 #@! TO.N,+12V_P*
X111522500Y-68000000D03*
G04 #@! TO.N,DET*
X130500000Y-48350000D03*
X123350735Y-55500000D03*
G04 #@! TO.N,MCLK*
X121140000Y-56100000D03*
X131400000Y-48910000D03*
G04 #@! TO.N,BCLK*
X132200000Y-49600000D03*
X118790000Y-56700000D03*
G04 #@! TO.N,DSDIN*
X116690000Y-57260000D03*
X139640000Y-52710000D03*
G04 #@! TO.N,LRCK*
X143700000Y-54050000D03*
X108100000Y-59800000D03*
G04 #@! TO.N,ASDOUT*
X146250000Y-56500000D03*
G04 #@! TD*
G04 #@! TO.N,AIN_T*
D25*
X68490000Y-67250000D02*
X68490000Y-67190000D01*
X68490000Y-67190000D02*
X67880000Y-66580000D01*
X68490000Y-68500000D02*
X68490000Y-67250000D01*
X67880000Y-66580000D02*
X67880000Y-64337322D01*
G04 #@! TO.N,AIN_S*
X118100000Y-69600000D02*
X75682678Y-69600000D01*
X69510000Y-67250000D02*
X69510000Y-65247322D01*
X119500000Y-63050000D02*
X119500000Y-68200000D01*
X75682678Y-69600000D02*
X70420000Y-64337322D01*
X119500000Y-68200000D02*
X118100000Y-69600000D01*
X69510000Y-65247322D02*
X70420000Y-64337322D01*
G04 #@! TO.N,AOUT_S*
X126500000Y-49450000D02*
X125550000Y-49450000D01*
X97100000Y-43900000D02*
X97100000Y-61248528D01*
X117950000Y-41850000D02*
X99150000Y-41850000D01*
X97100000Y-61248528D02*
X96748528Y-61600000D01*
X125550000Y-49450000D02*
X117950000Y-41850000D01*
X75697322Y-61600000D02*
X72960000Y-64337322D01*
X96748528Y-61600000D02*
X75697322Y-61600000D01*
X99150000Y-41850000D02*
X97100000Y-43900000D01*
G04 #@! TO.N,AOUT_T*
X77637322Y-62200000D02*
X75500000Y-64337322D01*
X119500000Y-44300000D02*
X117600000Y-42400000D01*
X117600000Y-42400000D02*
X99400000Y-42400000D01*
X97600000Y-61500000D02*
X96900000Y-62200000D01*
X96900000Y-62200000D02*
X77637322Y-62200000D01*
X97600000Y-44200000D02*
X97600000Y-61500000D01*
X119500000Y-49450000D02*
X119500000Y-44300000D01*
X99400000Y-42400000D02*
X97600000Y-44200000D01*
G04 #@! TO.N,+12V_F*
D26*
X86580000Y-66450000D02*
X85650000Y-66450000D01*
X104875000Y-67500000D02*
X91750000Y-67500000D01*
X91750000Y-67500000D02*
X89500000Y-65250000D01*
X89000000Y-65750000D02*
X89500000Y-65250000D01*
X86580000Y-66450000D02*
X86800000Y-66450000D01*
X86800000Y-66450000D02*
X87500000Y-65750000D01*
X105375000Y-68000000D02*
X104875000Y-67500000D01*
X85650000Y-66450000D02*
X85180000Y-65980000D01*
X87500000Y-65750000D02*
X89000000Y-65750000D01*
G04 #@! TO.N,GND*
X85650000Y-64550000D02*
X86580000Y-64550000D01*
X97330000Y-66450000D02*
X98260000Y-66450000D01*
X85180000Y-65020000D02*
X85650000Y-64550000D01*
D25*
X86580000Y-64550000D02*
X86600000Y-64550000D01*
D26*
X98260000Y-66450000D02*
X98730000Y-65980000D01*
G04 #@! TO.N,+5V*
X145870000Y-63350000D02*
X145870000Y-63330000D01*
X96300000Y-65250000D02*
X94580000Y-65250000D01*
D25*
X98730000Y-65020000D02*
X98720000Y-65020000D01*
D26*
X101050000Y-46500000D02*
X99000000Y-48550000D01*
X145870000Y-63330000D02*
X148080000Y-61120000D01*
X97330000Y-64550000D02*
X97000000Y-64550000D01*
X98250000Y-64550000D02*
X97330000Y-64550000D01*
X148080000Y-61120000D02*
X148080000Y-60250000D01*
X98720000Y-65020000D02*
X98250000Y-64550000D01*
X99000000Y-62950000D02*
X97330000Y-64620000D01*
X97000000Y-64550000D02*
X96300000Y-65250000D01*
X99000000Y-48550000D02*
X99000000Y-62950000D01*
G04 #@! TO.N,+3V3*
D25*
X137850000Y-59350000D02*
X137850000Y-60180000D01*
X137850000Y-60180000D02*
X137850000Y-46000000D01*
X111210000Y-45590000D02*
X113700000Y-43100000D01*
X111210000Y-46500000D02*
X111210000Y-45590000D01*
X135790000Y-57290000D02*
X137850000Y-59350000D01*
G04 #@! TO.N,SCL*
X128700000Y-47950000D02*
X128700000Y-53200000D01*
X133600000Y-58470000D02*
X133600000Y-55400000D01*
X135380000Y-60250000D02*
X133600000Y-58470000D01*
X128700000Y-53200000D02*
X130250000Y-54750000D01*
G04 #@! TO.N,SDA*
X132840000Y-60250000D02*
X132840000Y-54800000D01*
X129650000Y-51610000D02*
X130250000Y-52210000D01*
X128600000Y-46500000D02*
X129650000Y-47550000D01*
X129650000Y-47550000D02*
X129650000Y-51610000D01*
X132840000Y-54800000D02*
X130250000Y-52210000D01*
X124460000Y-46500000D02*
X128600000Y-46500000D01*
G04 #@! TO.N,PASS_B4*
X138910000Y-61800000D02*
X128910000Y-61800000D01*
X115200000Y-48700000D02*
X110870000Y-48700000D01*
X121050000Y-51050000D02*
X120500000Y-51600000D01*
X128910000Y-61800000D02*
X126400000Y-59290000D01*
X125357967Y-51050000D02*
X121050000Y-51050000D01*
X110870000Y-48700000D02*
X108670000Y-46500000D01*
X126400000Y-52092033D02*
X125357967Y-51050000D01*
X140460000Y-60250000D02*
X138910000Y-61800000D01*
X120500000Y-51600000D02*
X118100000Y-51600000D01*
X126400000Y-59290000D02*
X126400000Y-52092033D01*
X118100000Y-51600000D02*
X115200000Y-48700000D01*
G04 #@! TO.N,PASS_B2*
X106340000Y-49250000D02*
X115000000Y-49250000D01*
X125100000Y-51600000D02*
X125850000Y-52350000D01*
X121350000Y-51600000D02*
X125100000Y-51600000D01*
X125850000Y-52350000D02*
X125850000Y-59598529D01*
X103590000Y-46500000D02*
X106340000Y-49250000D01*
X143340000Y-62450000D02*
X145540000Y-60250000D01*
X125850000Y-59598529D02*
X128701471Y-62450000D01*
X128701471Y-62450000D02*
X143340000Y-62450000D01*
X120800000Y-52150000D02*
X121350000Y-51600000D01*
X117900000Y-52150000D02*
X120800000Y-52150000D01*
X115000000Y-49250000D02*
X117900000Y-52150000D01*
G04 #@! TO.N,+12V_P*
D27*
X107500000Y-68000000D02*
X111522500Y-68000000D01*
G04 #@! TO.N,AIN_JACK*
D25*
X71210000Y-70200000D02*
X69510000Y-68500000D01*
X127000000Y-63550000D02*
X125000000Y-63550000D01*
X118350000Y-70200000D02*
X71210000Y-70200000D01*
X126500000Y-63050000D02*
X127000000Y-63550000D01*
X125000000Y-63550000D02*
X118350000Y-70200000D01*
G04 #@! TO.N,DET*
X119700000Y-59150735D02*
X119699265Y-59150735D01*
X119699265Y-59150735D02*
X116250000Y-62600000D01*
X130500000Y-44838728D02*
X132838728Y-42500000D01*
X116250000Y-62600000D02*
X116250000Y-64353810D01*
X130500000Y-48350000D02*
X130500000Y-44838728D01*
X123350735Y-55500000D02*
X119700000Y-59150735D01*
G04 #@! TO.N,MCLK*
X113710000Y-64353810D02*
X114050000Y-64013810D01*
X131400000Y-48910000D02*
X131400000Y-46478728D01*
X114050000Y-63200000D02*
X115100000Y-62150000D01*
X115100000Y-62140000D02*
X121140000Y-56100000D01*
X115100000Y-62150000D02*
X115100000Y-62140000D01*
X114050000Y-64013810D02*
X114050000Y-63200000D01*
X131400000Y-46478728D02*
X135378728Y-42500000D01*
G04 #@! TO.N,BCLK*
X111170000Y-64330000D02*
X111170000Y-64353810D01*
X132200000Y-47851471D02*
X132200000Y-49600000D01*
X137551471Y-42500000D02*
X132200000Y-47851471D01*
X137918728Y-42500000D02*
X137551471Y-42500000D01*
X118790000Y-56710000D02*
X111170000Y-64330000D01*
X118790000Y-56700000D02*
X118790000Y-56710000D01*
G04 #@! TO.N,DSDIN*
X139640000Y-52710000D02*
X140458728Y-51891272D01*
X116690000Y-57260000D02*
X116550000Y-57400000D01*
X140458728Y-51891272D02*
X140458728Y-42500000D01*
X109411531Y-64353810D02*
X108630000Y-64353810D01*
X116550000Y-57400000D02*
X116365341Y-57400000D01*
X116365341Y-57400000D02*
X109411531Y-64353810D01*
G04 #@! TO.N,LRCK*
X145538728Y-52211272D02*
X145538728Y-42500000D01*
X104853810Y-63050000D02*
X103550000Y-64353810D01*
X104853810Y-63046190D02*
X104853810Y-63050000D01*
X108100000Y-59800000D02*
X104853810Y-63046190D01*
X143700000Y-54050000D02*
X145538728Y-52211272D01*
G04 #@! TO.N,ASDOUT*
X146250000Y-56500000D02*
X148078728Y-54671272D01*
X148078728Y-54671272D02*
X148078728Y-42500000D01*
G04 #@! TO.N,-12V*
D27*
X144080000Y-68040000D02*
X144080000Y-65500000D01*
G04 #@! TO.N,+12V_RAW*
X133920000Y-68040000D02*
X133920000Y-65500000D01*
G04 #@! TD*
M02*
